ISO-10303-21;
HEADER;
/* Generated by software containing ST-Developer
 * from STEP Tools, Inc. (www.steptools.com) 
 */
/* OPTION: using custom renumber hook */

FILE_DESCRIPTION(
/* description */ ('STEP AP242 Edition 2',
'CAx-IF Rec.Pracs.---Representation and Presentation of Product Manufa
cturing Information (PMI)---4.0---2014-10-13',
'CAx-IF Rec.Pracs.---3D Tessellated Geometry---0.4---2014-09-14','2;1',
'CAx-IF Rec.Pracs.---User Defined Attributes---1.5---2016-08-15'),
/* implementation_level */ '2;1');

FILE_NAME(
/* name */ 'Brain',
/* time_stamp */ '2026-08-28T05:25:50Z',
/* author */ (''),
/* organization */ (''),
/* preprocessor_version */ 'ST-DEVELOPER v20',
/* originating_system */ 'ONSHAPE BY PTC INC, 1.219',
/* authorisation */ '  ');

FILE_SCHEMA (('AP242_MANAGED_MODEL_BASED_3D_ENGINEERING_MIM_LF { 1 0 10303 442 3 1 4 }'));
ENDSEC;

DATA;
#10=SHAPE_REPRESENTATION_RELATIONSHIP('','',#1163,#11);
#11=ADVANCED_BREP_SHAPE_REPRESENTATION('',(#1161),#1960);
#12=(
BOUNDED_SURFACE()
B_SPLINE_SURFACE(3,2,((#1845,#1846,#1847),(#1848,#1849,#1850),(#1851,#1852,
#1853),(#1854,#1855,#1856),(#1857,#1858,#1859),(#1860,#1861,#1862),(#1863,
#1864,#1865),(#1866,#1867,#1868),(#1869,#1870,#1871)),.UNSPECIFIED.,.F.,
 .F.,.F.)
B_SPLINE_SURFACE_WITH_KNOTS((4,1,1,1,1,1,4),(3,3),(3.14159265358979,3.33794219443916,
3.53429173528852,3.73064127613788,3.92699081698724,4.31968989868597,4.71238898038469),
(0.,1.),.UNSPECIFIED.)
GEOMETRIC_REPRESENTATION_ITEM()
RATIONAL_B_SPLINE_SURFACE(((1.,0.707106781186548,1.),(1.,0.707106781191485,
1.),(1.,0.716400177599413,1.),(1.,0.754563896244777,1.),(1.,0.80803495651309,
1.),(1.,0.886299164406157,1.),(1.,0.973513794545734,1.),(1.,0.999999999999087,
1.),(1.,1.,1.)))
REPRESENTATION_ITEM('')
SURFACE()
);
#13=(
BOUNDED_SURFACE()
B_SPLINE_SURFACE(3,2,((#1874,#1875,#1876),(#1877,#1878,#1879),(#1880,#1881,
#1882),(#1883,#1884,#1885),(#1886,#1887,#1888),(#1889,#1890,#1891),(#1892,
#1893,#1894),(#1895,#1896,#1897),(#1898,#1899,#1900)),.UNSPECIFIED.,.F.,
 .F.,.F.)
B_SPLINE_SURFACE_WITH_KNOTS((4,1,1,1,1,1,4),(3,3),(3.14159265358979,3.33794219443916,
3.53429173528852,3.73064127613788,3.92699081698724,4.31968989868597,4.71238898038469),
(0.,1.),.UNSPECIFIED.)
GEOMETRIC_REPRESENTATION_ITEM()
RATIONAL_B_SPLINE_SURFACE(((1.,0.707106781186548,1.),(1.,0.707106781191485,
1.),(1.,0.716400177599413,1.),(1.,0.754563896244777,1.),(1.,0.808034956513089,
1.),(1.,0.886299164406156,1.),(1.,0.973513794545734,1.),(1.,0.999999999999087,
1.),(1.,1.,1.)))
REPRESENTATION_ITEM('')
SURFACE()
);
#14=(
BOUNDED_SURFACE()
B_SPLINE_SURFACE(3,2,((#1903,#1904,#1905),(#1906,#1907,#1908),(#1909,#1910,
#1911),(#1912,#1913,#1914),(#1915,#1916,#1917),(#1918,#1919,#1920),(#1921,
#1922,#1923),(#1924,#1925,#1926),(#1927,#1928,#1929)),.UNSPECIFIED.,.F.,
 .F.,.F.)
B_SPLINE_SURFACE_WITH_KNOTS((4,1,1,1,1,1,4),(3,3),(6.28318530717959,6.47953484802895,
6.67588438887831,6.87223392972767,7.06858347057703,7.46128255227576,7.85398163397448),
(0.,1.),.UNSPECIFIED.)
GEOMETRIC_REPRESENTATION_ITEM()
RATIONAL_B_SPLINE_SURFACE(((1.,0.707106781186548,1.),(1.,0.707106781191485,
1.),(1.,0.716400177599413,1.),(1.,0.754563896244777,1.),(1.,0.80803495651309,
1.),(1.,0.886299164406154,1.),(1.,0.973513794545735,1.),(1.,0.999999999999087,
1.),(1.,1.,1.)))
REPRESENTATION_ITEM('')
SURFACE()
);
#15=(
BOUNDED_SURFACE()
B_SPLINE_SURFACE(3,2,((#1932,#1933,#1934),(#1935,#1936,#1937),(#1938,#1939,
#1940),(#1941,#1942,#1943),(#1944,#1945,#1946),(#1947,#1948,#1949),(#1950,
#1951,#1952),(#1953,#1954,#1955),(#1956,#1957,#1958)),.UNSPECIFIED.,.F.,
 .F.,.F.)
B_SPLINE_SURFACE_WITH_KNOTS((4,1,1,1,1,1,4),(3,3),(6.28318530717959,6.47953484802895,
6.67588438887831,6.87223392972767,7.06858347057703,7.46128255227576,7.85398163397448),
(0.,1.),.UNSPECIFIED.)
GEOMETRIC_REPRESENTATION_ITEM()
RATIONAL_B_SPLINE_SURFACE(((1.,0.707106781186548,1.),(1.,0.707106781191485,
1.),(1.,0.716400177599413,1.),(1.,0.754563896244777,1.),(1.,0.80803495651309,
1.),(1.,0.886299164406154,1.),(1.,0.973513794545735,1.),(1.,0.999999999999087,
1.),(1.,1.,1.)))
REPRESENTATION_ITEM('')
SURFACE()
);
#16=ELLIPSE('',#1220,0.00875839734197987,0.008382);
#17=ELLIPSE('',#1221,0.00875839734197987,0.008382);
#18=ELLIPSE('',#1223,0.00875839734197987,0.008382);
#19=ELLIPSE('',#1224,0.00875839734197987,0.008382);
#20=ELLIPSE('',#1226,0.00875839734197987,0.008382);
#21=ELLIPSE('',#1227,0.00875839734197987,0.008382);
#22=ELLIPSE('',#1229,0.00875839734197987,0.008382);
#23=ELLIPSE('',#1230,0.00875839734197987,0.008382);
#24=CYLINDRICAL_SURFACE('',#1219,0.008382);
#25=CYLINDRICAL_SURFACE('',#1222,0.008382);
#26=CYLINDRICAL_SURFACE('',#1225,0.008382);
#27=CYLINDRICAL_SURFACE('',#1228,0.008382);
#28=CYLINDRICAL_SURFACE('',#1231,0.005842);
#29=CYLINDRICAL_SURFACE('',#1233,0.005842);
#30=CYLINDRICAL_SURFACE('',#1235,0.005842);
#31=CYLINDRICAL_SURFACE('',#1237,0.005842);
#32=CIRCLE('',#1168,0.005842);
#33=CIRCLE('',#1169,0.005842);
#34=CIRCLE('',#1170,0.005842);
#35=CIRCLE('',#1171,0.005842);
#36=CIRCLE('',#1232,0.005842);
#37=CIRCLE('',#1234,0.005842);
#38=CIRCLE('',#1236,0.005842);
#39=CIRCLE('',#1238,0.005842);
#40=ORIENTED_EDGE('',*,*,#358,.F.);
#41=ORIENTED_EDGE('',*,*,#359,.T.);
#42=ORIENTED_EDGE('',*,*,#360,.T.);
#43=ORIENTED_EDGE('',*,*,#361,.F.);
#44=ORIENTED_EDGE('',*,*,#362,.F.);
#45=ORIENTED_EDGE('',*,*,#363,.F.);
#46=ORIENTED_EDGE('',*,*,#364,.F.);
#47=ORIENTED_EDGE('',*,*,#365,.T.);
#48=ORIENTED_EDGE('',*,*,#366,.T.);
#49=ORIENTED_EDGE('',*,*,#367,.T.);
#50=ORIENTED_EDGE('',*,*,#368,.F.);
#51=ORIENTED_EDGE('',*,*,#369,.F.);
#52=ORIENTED_EDGE('',*,*,#370,.T.);
#53=ORIENTED_EDGE('',*,*,#371,.F.);
#54=ORIENTED_EDGE('',*,*,#372,.F.);
#55=ORIENTED_EDGE('',*,*,#373,.T.);
#56=ORIENTED_EDGE('',*,*,#374,.T.);
#57=ORIENTED_EDGE('',*,*,#375,.F.);
#58=ORIENTED_EDGE('',*,*,#376,.T.);
#59=ORIENTED_EDGE('',*,*,#377,.F.);
#60=ORIENTED_EDGE('',*,*,#378,.F.);
#61=ORIENTED_EDGE('',*,*,#379,.T.);
#62=ORIENTED_EDGE('',*,*,#380,.T.);
#63=ORIENTED_EDGE('',*,*,#381,.F.);
#64=ORIENTED_EDGE('',*,*,#382,.T.);
#65=ORIENTED_EDGE('',*,*,#383,.T.);
#66=ORIENTED_EDGE('',*,*,#384,.F.);
#67=ORIENTED_EDGE('',*,*,#385,.F.);
#68=ORIENTED_EDGE('',*,*,#386,.F.);
#69=ORIENTED_EDGE('',*,*,#387,.T.);
#70=ORIENTED_EDGE('',*,*,#388,.T.);
#71=ORIENTED_EDGE('',*,*,#389,.F.);
#72=ORIENTED_EDGE('',*,*,#390,.F.);
#73=ORIENTED_EDGE('',*,*,#391,.T.);
#74=ORIENTED_EDGE('',*,*,#392,.T.);
#75=ORIENTED_EDGE('',*,*,#393,.T.);
#76=ORIENTED_EDGE('',*,*,#394,.F.);
#77=ORIENTED_EDGE('',*,*,#395,.F.);
#78=ORIENTED_EDGE('',*,*,#396,.T.);
#79=ORIENTED_EDGE('',*,*,#397,.F.);
#80=ORIENTED_EDGE('',*,*,#398,.F.);
#81=ORIENTED_EDGE('',*,*,#399,.T.);
#82=ORIENTED_EDGE('',*,*,#400,.T.);
#83=ORIENTED_EDGE('',*,*,#401,.T.);
#84=ORIENTED_EDGE('',*,*,#402,.T.);
#85=ORIENTED_EDGE('',*,*,#403,.T.);
#86=ORIENTED_EDGE('',*,*,#404,.T.);
#87=ORIENTED_EDGE('',*,*,#405,.F.);
#88=ORIENTED_EDGE('',*,*,#406,.T.);
#89=ORIENTED_EDGE('',*,*,#407,.F.);
#90=ORIENTED_EDGE('',*,*,#408,.T.);
#91=ORIENTED_EDGE('',*,*,#409,.T.);
#92=ORIENTED_EDGE('',*,*,#368,.T.);
#93=ORIENTED_EDGE('',*,*,#410,.F.);
#94=ORIENTED_EDGE('',*,*,#383,.F.);
#95=ORIENTED_EDGE('',*,*,#388,.F.);
#96=ORIENTED_EDGE('',*,*,#411,.T.);
#97=ORIENTED_EDGE('',*,*,#412,.T.);
#98=ORIENTED_EDGE('',*,*,#413,.F.);
#99=ORIENTED_EDGE('',*,*,#384,.T.);
#100=ORIENTED_EDGE('',*,*,#410,.T.);
#101=ORIENTED_EDGE('',*,*,#367,.F.);
#102=ORIENTED_EDGE('',*,*,#414,.F.);
#103=ORIENTED_EDGE('',*,*,#415,.F.);
#104=ORIENTED_EDGE('',*,*,#416,.T.);
#105=ORIENTED_EDGE('',*,*,#363,.T.);
#106=ORIENTED_EDGE('',*,*,#417,.T.);
#107=ORIENTED_EDGE('',*,*,#375,.T.);
#108=ORIENTED_EDGE('',*,*,#418,.F.);
#109=ORIENTED_EDGE('',*,*,#419,.F.);
#110=ORIENTED_EDGE('',*,*,#420,.T.);
#111=ORIENTED_EDGE('',*,*,#421,.T.);
#112=ORIENTED_EDGE('',*,*,#369,.T.);
#113=ORIENTED_EDGE('',*,*,#409,.F.);
#114=ORIENTED_EDGE('',*,*,#382,.F.);
#115=ORIENTED_EDGE('',*,*,#422,.T.);
#116=ORIENTED_EDGE('',*,*,#423,.F.);
#117=ORIENTED_EDGE('',*,*,#424,.F.);
#118=ORIENTED_EDGE('',*,*,#378,.T.);
#119=ORIENTED_EDGE('',*,*,#425,.T.);
#120=ORIENTED_EDGE('',*,*,#373,.F.);
#121=ORIENTED_EDGE('',*,*,#426,.T.);
#122=ORIENTED_EDGE('',*,*,#427,.T.);
#123=ORIENTED_EDGE('',*,*,#401,.F.);
#124=ORIENTED_EDGE('',*,*,#428,.T.);
#125=ORIENTED_EDGE('',*,*,#429,.T.);
#126=ORIENTED_EDGE('',*,*,#430,.T.);
#127=ORIENTED_EDGE('',*,*,#431,.F.);
#128=ORIENTED_EDGE('',*,*,#432,.F.);
#129=ORIENTED_EDGE('',*,*,#433,.T.);
#130=ORIENTED_EDGE('',*,*,#434,.T.);
#131=ORIENTED_EDGE('',*,*,#407,.T.);
#132=ORIENTED_EDGE('',*,*,#435,.T.);
#133=ORIENTED_EDGE('',*,*,#403,.F.);
#134=ORIENTED_EDGE('',*,*,#436,.T.);
#135=ORIENTED_EDGE('',*,*,#437,.T.);
#136=ORIENTED_EDGE('',*,*,#438,.T.);
#137=ORIENTED_EDGE('',*,*,#439,.T.);
#138=ORIENTED_EDGE('',*,*,#440,.T.);
#139=ORIENTED_EDGE('',*,*,#441,.T.);
#140=ORIENTED_EDGE('',*,*,#442,.T.);
#141=ORIENTED_EDGE('',*,*,#389,.T.);
#142=ORIENTED_EDGE('',*,*,#418,.T.);
#143=ORIENTED_EDGE('',*,*,#374,.F.);
#144=ORIENTED_EDGE('',*,*,#425,.F.);
#145=ORIENTED_EDGE('',*,*,#443,.F.);
#146=ORIENTED_EDGE('',*,*,#444,.F.);
#147=ORIENTED_EDGE('',*,*,#358,.T.);
#148=ORIENTED_EDGE('',*,*,#445,.T.);
#149=ORIENTED_EDGE('',*,*,#444,.T.);
#150=ORIENTED_EDGE('',*,*,#446,.T.);
#151=ORIENTED_EDGE('',*,*,#447,.F.);
#152=ORIENTED_EDGE('',*,*,#359,.F.);
#153=ORIENTED_EDGE('',*,*,#447,.T.);
#154=ORIENTED_EDGE('',*,*,#448,.T.);
#155=ORIENTED_EDGE('',*,*,#449,.F.);
#156=ORIENTED_EDGE('',*,*,#360,.F.);
#157=ORIENTED_EDGE('',*,*,#450,.F.);
#158=ORIENTED_EDGE('',*,*,#445,.F.);
#159=ORIENTED_EDGE('',*,*,#361,.T.);
#160=ORIENTED_EDGE('',*,*,#449,.T.);
#161=ORIENTED_EDGE('',*,*,#451,.T.);
#162=ORIENTED_EDGE('',*,*,#429,.F.);
#163=ORIENTED_EDGE('',*,*,#452,.F.);
#164=ORIENTED_EDGE('',*,*,#400,.F.);
#165=ORIENTED_EDGE('',*,*,#453,.F.);
#166=ORIENTED_EDGE('',*,*,#454,.F.);
#167=ORIENTED_EDGE('',*,*,#455,.T.);
#168=ORIENTED_EDGE('',*,*,#456,.T.);
#169=ORIENTED_EDGE('',*,*,#390,.T.);
#170=ORIENTED_EDGE('',*,*,#452,.T.);
#171=ORIENTED_EDGE('',*,*,#432,.T.);
#172=ORIENTED_EDGE('',*,*,#398,.T.);
#173=ORIENTED_EDGE('',*,*,#453,.T.);
#174=ORIENTED_EDGE('',*,*,#431,.T.);
#175=ORIENTED_EDGE('',*,*,#457,.F.);
#176=ORIENTED_EDGE('',*,*,#457,.T.);
#177=ORIENTED_EDGE('',*,*,#430,.F.);
#178=ORIENTED_EDGE('',*,*,#451,.F.);
#179=ORIENTED_EDGE('',*,*,#399,.F.);
#180=ORIENTED_EDGE('',*,*,#458,.F.);
#181=ORIENTED_EDGE('',*,*,#380,.F.);
#182=ORIENTED_EDGE('',*,*,#459,.T.);
#183=ORIENTED_EDGE('',*,*,#423,.T.);
#184=ORIENTED_EDGE('',*,*,#379,.F.);
#185=ORIENTED_EDGE('',*,*,#424,.T.);
#186=ORIENTED_EDGE('',*,*,#459,.F.);
#187=ORIENTED_EDGE('',*,*,#371,.T.);
#188=ORIENTED_EDGE('',*,*,#460,.T.);
#189=ORIENTED_EDGE('',*,*,#420,.F.);
#190=ORIENTED_EDGE('',*,*,#461,.F.);
#191=ORIENTED_EDGE('',*,*,#461,.T.);
#192=ORIENTED_EDGE('',*,*,#419,.T.);
#193=ORIENTED_EDGE('',*,*,#372,.T.);
#194=ORIENTED_EDGE('',*,*,#462,.F.);
#195=ORIENTED_EDGE('',*,*,#365,.F.);
#196=ORIENTED_EDGE('',*,*,#463,.T.);
#197=ORIENTED_EDGE('',*,*,#415,.T.);
#198=ORIENTED_EDGE('',*,*,#364,.T.);
#199=ORIENTED_EDGE('',*,*,#416,.F.);
#200=ORIENTED_EDGE('',*,*,#463,.F.);
#201=ORIENTED_EDGE('',*,*,#386,.T.);
#202=ORIENTED_EDGE('',*,*,#464,.T.);
#203=ORIENTED_EDGE('',*,*,#412,.F.);
#204=ORIENTED_EDGE('',*,*,#465,.F.);
#205=ORIENTED_EDGE('',*,*,#465,.T.);
#206=ORIENTED_EDGE('',*,*,#411,.F.);
#207=ORIENTED_EDGE('',*,*,#387,.F.);
#208=ORIENTED_EDGE('',*,*,#464,.F.);
#209=ORIENTED_EDGE('',*,*,#385,.T.);
#210=ORIENTED_EDGE('',*,*,#413,.T.);
#211=ORIENTED_EDGE('',*,*,#366,.F.);
#212=ORIENTED_EDGE('',*,*,#462,.T.);
#213=ORIENTED_EDGE('',*,*,#414,.T.);
#214=ORIENTED_EDGE('',*,*,#460,.F.);
#215=ORIENTED_EDGE('',*,*,#370,.F.);
#216=ORIENTED_EDGE('',*,*,#421,.F.);
#217=ORIENTED_EDGE('',*,*,#381,.T.);
#218=ORIENTED_EDGE('',*,*,#458,.T.);
#219=ORIENTED_EDGE('',*,*,#422,.F.);
#220=ORIENTED_EDGE('',*,*,#397,.T.);
#221=ORIENTED_EDGE('',*,*,#466,.F.);
#222=ORIENTED_EDGE('',*,*,#467,.F.);
#223=ORIENTED_EDGE('',*,*,#454,.T.);
#224=ORIENTED_EDGE('',*,*,#396,.F.);
#225=ORIENTED_EDGE('',*,*,#468,.F.);
#226=ORIENTED_EDGE('',*,*,#469,.T.);
#227=ORIENTED_EDGE('',*,*,#466,.T.);
#228=ORIENTED_EDGE('',*,*,#395,.T.);
#229=ORIENTED_EDGE('',*,*,#470,.F.);
#230=ORIENTED_EDGE('',*,*,#471,.F.);
#231=ORIENTED_EDGE('',*,*,#468,.T.);
#232=ORIENTED_EDGE('',*,*,#394,.T.);
#233=ORIENTED_EDGE('',*,*,#472,.F.);
#234=ORIENTED_EDGE('',*,*,#473,.F.);
#235=ORIENTED_EDGE('',*,*,#470,.T.);
#236=ORIENTED_EDGE('',*,*,#393,.F.);
#237=ORIENTED_EDGE('',*,*,#474,.F.);
#238=ORIENTED_EDGE('',*,*,#475,.T.);
#239=ORIENTED_EDGE('',*,*,#472,.T.);
#240=ORIENTED_EDGE('',*,*,#392,.F.);
#241=ORIENTED_EDGE('',*,*,#476,.F.);
#242=ORIENTED_EDGE('',*,*,#477,.T.);
#243=ORIENTED_EDGE('',*,*,#474,.T.);
#244=ORIENTED_EDGE('',*,*,#391,.F.);
#245=ORIENTED_EDGE('',*,*,#456,.F.);
#246=ORIENTED_EDGE('',*,*,#478,.T.);
#247=ORIENTED_EDGE('',*,*,#476,.T.);
#248=ORIENTED_EDGE('',*,*,#455,.F.);
#249=ORIENTED_EDGE('',*,*,#467,.T.);
#250=ORIENTED_EDGE('',*,*,#469,.F.);
#251=ORIENTED_EDGE('',*,*,#471,.T.);
#252=ORIENTED_EDGE('',*,*,#473,.T.);
#253=ORIENTED_EDGE('',*,*,#475,.F.);
#254=ORIENTED_EDGE('',*,*,#477,.F.);
#255=ORIENTED_EDGE('',*,*,#478,.F.);
#256=ORIENTED_EDGE('',*,*,#479,.T.);
#257=ORIENTED_EDGE('',*,*,#480,.T.);
#258=ORIENTED_EDGE('',*,*,#405,.T.);
#259=ORIENTED_EDGE('',*,*,#481,.T.);
#260=ORIENTED_EDGE('',*,*,#482,.F.);
#261=ORIENTED_EDGE('',*,*,#483,.T.);
#262=ORIENTED_EDGE('',*,*,#484,.F.);
#263=ORIENTED_EDGE('',*,*,#485,.F.);
#264=ORIENTED_EDGE('',*,*,#482,.T.);
#265=ORIENTED_EDGE('',*,*,#486,.F.);
#266=ORIENTED_EDGE('',*,*,#487,.F.);
#267=ORIENTED_EDGE('',*,*,#488,.T.);
#268=ORIENTED_EDGE('',*,*,#483,.F.);
#269=ORIENTED_EDGE('',*,*,#488,.F.);
#270=ORIENTED_EDGE('',*,*,#489,.T.);
#271=ORIENTED_EDGE('',*,*,#490,.T.);
#272=ORIENTED_EDGE('',*,*,#484,.T.);
#273=ORIENTED_EDGE('',*,*,#490,.F.);
#274=ORIENTED_EDGE('',*,*,#491,.F.);
#275=ORIENTED_EDGE('',*,*,#492,.T.);
#276=ORIENTED_EDGE('',*,*,#485,.T.);
#277=ORIENTED_EDGE('',*,*,#492,.F.);
#278=ORIENTED_EDGE('',*,*,#493,.F.);
#279=ORIENTED_EDGE('',*,*,#486,.T.);
#280=ORIENTED_EDGE('',*,*,#487,.T.);
#281=ORIENTED_EDGE('',*,*,#493,.T.);
#282=ORIENTED_EDGE('',*,*,#491,.T.);
#283=ORIENTED_EDGE('',*,*,#489,.F.);
#284=ORIENTED_EDGE('',*,*,#446,.F.);
#285=ORIENTED_EDGE('',*,*,#443,.T.);
#286=ORIENTED_EDGE('',*,*,#450,.T.);
#287=ORIENTED_EDGE('',*,*,#448,.F.);
#288=ORIENTED_EDGE('',*,*,#494,.F.);
#289=ORIENTED_EDGE('',*,*,#495,.T.);
#290=ORIENTED_EDGE('',*,*,#496,.T.);
#291=ORIENTED_EDGE('',*,*,#417,.F.);
#292=ORIENTED_EDGE('',*,*,#495,.F.);
#293=ORIENTED_EDGE('',*,*,#497,.F.);
#294=ORIENTED_EDGE('',*,*,#498,.T.);
#295=ORIENTED_EDGE('',*,*,#499,.T.);
#296=ORIENTED_EDGE('',*,*,#494,.T.);
#297=ORIENTED_EDGE('',*,*,#362,.T.);
#298=ORIENTED_EDGE('',*,*,#500,.F.);
#299=ORIENTED_EDGE('',*,*,#501,.F.);
#300=ORIENTED_EDGE('',*,*,#497,.T.);
#301=ORIENTED_EDGE('',*,*,#377,.T.);
#302=ORIENTED_EDGE('',*,*,#502,.F.);
#303=ORIENTED_EDGE('',*,*,#503,.F.);
#304=ORIENTED_EDGE('',*,*,#500,.T.);
#305=ORIENTED_EDGE('',*,*,#496,.F.);
#306=ORIENTED_EDGE('',*,*,#499,.F.);
#307=ORIENTED_EDGE('',*,*,#504,.T.);
#308=ORIENTED_EDGE('',*,*,#502,.T.);
#309=ORIENTED_EDGE('',*,*,#376,.F.);
#310=ORIENTED_EDGE('',*,*,#498,.F.);
#311=ORIENTED_EDGE('',*,*,#501,.T.);
#312=ORIENTED_EDGE('',*,*,#503,.T.);
#313=ORIENTED_EDGE('',*,*,#504,.F.);
#314=ORIENTED_EDGE('',*,*,#439,.F.);
#315=ORIENTED_EDGE('',*,*,#505,.T.);
#316=ORIENTED_EDGE('',*,*,#433,.F.);
#317=ORIENTED_EDGE('',*,*,#506,.T.);
#318=ORIENTED_EDGE('',*,*,#442,.F.);
#319=ORIENTED_EDGE('',*,*,#507,.T.);
#320=ORIENTED_EDGE('',*,*,#426,.F.);
#321=ORIENTED_EDGE('',*,*,#508,.T.);
#322=ORIENTED_EDGE('',*,*,#440,.F.);
#323=ORIENTED_EDGE('',*,*,#509,.T.);
#324=ORIENTED_EDGE('',*,*,#479,.F.);
#325=ORIENTED_EDGE('',*,*,#510,.T.);
#326=ORIENTED_EDGE('',*,*,#437,.F.);
#327=ORIENTED_EDGE('',*,*,#511,.T.);
#328=ORIENTED_EDGE('',*,*,#441,.F.);
#329=ORIENTED_EDGE('',*,*,#512,.T.);
#330=ORIENTED_EDGE('',*,*,#402,.F.);
#331=ORIENTED_EDGE('',*,*,#427,.F.);
#332=ORIENTED_EDGE('',*,*,#513,.F.);
#333=ORIENTED_EDGE('',*,*,#436,.F.);
#334=ORIENTED_EDGE('',*,*,#513,.T.);
#335=ORIENTED_EDGE('',*,*,#507,.F.);
#336=ORIENTED_EDGE('',*,*,#511,.F.);
#337=ORIENTED_EDGE('',*,*,#408,.F.);
#338=ORIENTED_EDGE('',*,*,#434,.F.);
#339=ORIENTED_EDGE('',*,*,#514,.F.);
#340=ORIENTED_EDGE('',*,*,#428,.F.);
#341=ORIENTED_EDGE('',*,*,#514,.T.);
#342=ORIENTED_EDGE('',*,*,#505,.F.);
#343=ORIENTED_EDGE('',*,*,#508,.F.);
#344=ORIENTED_EDGE('',*,*,#406,.F.);
#345=ORIENTED_EDGE('',*,*,#480,.F.);
#346=ORIENTED_EDGE('',*,*,#515,.F.);
#347=ORIENTED_EDGE('',*,*,#435,.F.);
#348=ORIENTED_EDGE('',*,*,#509,.F.);
#349=ORIENTED_EDGE('',*,*,#506,.F.);
#350=ORIENTED_EDGE('',*,*,#515,.T.);
#351=ORIENTED_EDGE('',*,*,#404,.F.);
#352=ORIENTED_EDGE('',*,*,#438,.F.);
#353=ORIENTED_EDGE('',*,*,#516,.F.);
#354=ORIENTED_EDGE('',*,*,#481,.F.);
#355=ORIENTED_EDGE('',*,*,#512,.F.);
#356=ORIENTED_EDGE('',*,*,#510,.F.);
#357=ORIENTED_EDGE('',*,*,#516,.T.);
#358=EDGE_CURVE('',#517,#518,#618,.T.);
#359=EDGE_CURVE('',#517,#519,#619,.T.);
#360=EDGE_CURVE('',#519,#520,#620,.T.);
#361=EDGE_CURVE('',#518,#520,#621,.T.);
#362=EDGE_CURVE('',#521,#522,#622,.T.);
#363=EDGE_CURVE('',#523,#521,#623,.T.);
#364=EDGE_CURVE('',#524,#523,#624,.T.);
#365=EDGE_CURVE('',#524,#525,#625,.T.);
#366=EDGE_CURVE('',#525,#526,#626,.T.);
#367=EDGE_CURVE('',#526,#527,#627,.T.);
#368=EDGE_CURVE('',#528,#527,#628,.T.);
#369=EDGE_CURVE('',#529,#528,#629,.T.);
#370=EDGE_CURVE('',#529,#530,#630,.T.);
#371=EDGE_CURVE('',#531,#530,#631,.T.);
#372=EDGE_CURVE('',#532,#531,#632,.T.);
#373=EDGE_CURVE('',#532,#533,#633,.T.);
#374=EDGE_CURVE('',#533,#534,#634,.T.);
#375=EDGE_CURVE('',#535,#534,#635,.T.);
#376=EDGE_CURVE('',#535,#536,#636,.T.);
#377=EDGE_CURVE('',#522,#536,#637,.T.);
#378=EDGE_CURVE('',#537,#538,#638,.T.);
#379=EDGE_CURVE('',#537,#539,#639,.T.);
#380=EDGE_CURVE('',#539,#540,#640,.T.);
#381=EDGE_CURVE('',#541,#540,#641,.T.);
#382=EDGE_CURVE('',#541,#542,#642,.T.);
#383=EDGE_CURVE('',#542,#543,#643,.T.);
#384=EDGE_CURVE('',#544,#543,#644,.T.);
#385=EDGE_CURVE('',#545,#544,#645,.T.);
#386=EDGE_CURVE('',#546,#545,#646,.T.);
#387=EDGE_CURVE('',#546,#547,#647,.T.);
#388=EDGE_CURVE('',#547,#548,#648,.T.);
#389=EDGE_CURVE('',#538,#548,#649,.T.);
#390=EDGE_CURVE('',#549,#550,#650,.T.);
#391=EDGE_CURVE('',#549,#551,#651,.T.);
#392=EDGE_CURVE('',#551,#552,#652,.T.);
#393=EDGE_CURVE('',#552,#553,#653,.T.);
#394=EDGE_CURVE('',#554,#553,#654,.T.);
#395=EDGE_CURVE('',#555,#554,#655,.T.);
#396=EDGE_CURVE('',#555,#556,#656,.T.);
#397=EDGE_CURVE('',#557,#556,#657,.T.);
#398=EDGE_CURVE('',#558,#557,#658,.T.);
#399=EDGE_CURVE('',#558,#559,#659,.T.);
#400=EDGE_CURVE('',#559,#550,#660,.T.);
#401=EDGE_CURVE('',#560,#561,#661,.T.);
#402=EDGE_CURVE('',#561,#562,#32,.T.);
#403=EDGE_CURVE('',#562,#563,#662,.T.);
#404=EDGE_CURVE('',#563,#564,#33,.T.);
#405=EDGE_CURVE('',#565,#564,#663,.T.);
#406=EDGE_CURVE('',#565,#566,#34,.T.);
#407=EDGE_CURVE('',#567,#566,#664,.T.);
#408=EDGE_CURVE('',#567,#560,#35,.T.);
#409=EDGE_CURVE('',#542,#528,#665,.T.);
#410=EDGE_CURVE('',#543,#527,#666,.T.);
#411=EDGE_CURVE('',#547,#568,#667,.T.);
#412=EDGE_CURVE('',#568,#569,#668,.T.);
#413=EDGE_CURVE('',#544,#569,#669,.T.);
#414=EDGE_CURVE('',#570,#526,#670,.T.);
#415=EDGE_CURVE('',#571,#570,#671,.T.);
#416=EDGE_CURVE('',#571,#523,#672,.T.);
#417=EDGE_CURVE('',#521,#535,#673,.T.);
#418=EDGE_CURVE('',#548,#534,#674,.T.);
#419=EDGE_CURVE('',#572,#532,#675,.T.);
#420=EDGE_CURVE('',#572,#573,#676,.T.);
#421=EDGE_CURVE('',#573,#529,#677,.T.);
#422=EDGE_CURVE('',#541,#574,#678,.T.);
#423=EDGE_CURVE('',#575,#574,#679,.T.);
#424=EDGE_CURVE('',#537,#575,#680,.T.);
#425=EDGE_CURVE('',#538,#533,#681,.T.);
#426=EDGE_CURVE('',#576,#577,#682,.T.);
#427=EDGE_CURVE('',#577,#561,#683,.F.);
#428=EDGE_CURVE('',#560,#576,#684,.T.);
#429=EDGE_CURVE('',#578,#579,#685,.T.);
#430=EDGE_CURVE('',#579,#580,#686,.T.);
#431=EDGE_CURVE('',#581,#580,#687,.T.);
#432=EDGE_CURVE('',#578,#581,#688,.T.);
#433=EDGE_CURVE('',#582,#583,#689,.F.);
#434=EDGE_CURVE('',#583,#567,#690,.F.);
#435=EDGE_CURVE('',#566,#582,#691,.T.);
#436=EDGE_CURVE('',#562,#584,#692,.T.);
#437=EDGE_CURVE('',#584,#585,#693,.T.);
#438=EDGE_CURVE('',#585,#563,#694,.F.);
#439=EDGE_CURVE('',#586,#587,#695,.T.);
#440=EDGE_CURVE('',#587,#588,#696,.T.);
#441=EDGE_CURVE('',#588,#589,#697,.F.);
#442=EDGE_CURVE('',#589,#586,#698,.F.);
#443=EDGE_CURVE('',#590,#591,#699,.T.);
#444=EDGE_CURVE('',#517,#590,#700,.T.);
#445=EDGE_CURVE('',#518,#591,#701,.T.);
#446=EDGE_CURVE('',#590,#592,#702,.T.);
#447=EDGE_CURVE('',#519,#592,#703,.T.);
#448=EDGE_CURVE('',#592,#593,#704,.T.);
#449=EDGE_CURVE('',#520,#593,#705,.T.);
#450=EDGE_CURVE('',#591,#593,#706,.T.);
#451=EDGE_CURVE('',#559,#579,#707,.T.);
#452=EDGE_CURVE('',#550,#578,#708,.T.);
#453=EDGE_CURVE('',#557,#581,#709,.T.);
#454=EDGE_CURVE('',#594,#557,#710,.T.);
#455=EDGE_CURVE('',#594,#595,#711,.T.);
#456=EDGE_CURVE('',#595,#549,#712,.T.);
#457=EDGE_CURVE('',#558,#580,#713,.T.);
#458=EDGE_CURVE('',#540,#574,#714,.T.);
#459=EDGE_CURVE('',#539,#575,#715,.T.);
#460=EDGE_CURVE('',#530,#573,#716,.T.);
#461=EDGE_CURVE('',#531,#572,#717,.T.);
#462=EDGE_CURVE('',#525,#570,#718,.T.);
#463=EDGE_CURVE('',#524,#571,#719,.T.);
#464=EDGE_CURVE('',#545,#569,#720,.T.);
#465=EDGE_CURVE('',#546,#568,#721,.T.);
#466=EDGE_CURVE('',#596,#556,#722,.T.);
#467=EDGE_CURVE('',#594,#596,#723,.T.);
#468=EDGE_CURVE('',#597,#555,#724,.T.);
#469=EDGE_CURVE('',#597,#596,#725,.T.);
#470=EDGE_CURVE('',#598,#554,#726,.T.);
#471=EDGE_CURVE('',#597,#598,#727,.T.);
#472=EDGE_CURVE('',#599,#553,#728,.T.);
#473=EDGE_CURVE('',#598,#599,#729,.T.);
#474=EDGE_CURVE('',#600,#552,#730,.T.);
#475=EDGE_CURVE('',#600,#599,#731,.T.);
#476=EDGE_CURVE('',#601,#551,#732,.T.);
#477=EDGE_CURVE('',#601,#600,#733,.T.);
#478=EDGE_CURVE('',#595,#601,#734,.T.);
#479=EDGE_CURVE('',#602,#603,#735,.F.);
#480=EDGE_CURVE('',#603,#565,#736,.F.);
#481=EDGE_CURVE('',#564,#602,#737,.T.);
#482=EDGE_CURVE('',#604,#605,#738,.T.);
#483=EDGE_CURVE('',#604,#606,#739,.T.);
#484=EDGE_CURVE('',#607,#606,#740,.T.);
#485=EDGE_CURVE('',#605,#607,#741,.T.);
#486=EDGE_CURVE('',#608,#605,#742,.T.);
#487=EDGE_CURVE('',#609,#608,#743,.T.);
#488=EDGE_CURVE('',#609,#604,#744,.T.);
#489=EDGE_CURVE('',#609,#610,#745,.T.);
#490=EDGE_CURVE('',#610,#606,#746,.T.);
#491=EDGE_CURVE('',#611,#610,#747,.T.);
#492=EDGE_CURVE('',#611,#607,#748,.T.);
#493=EDGE_CURVE('',#608,#611,#749,.T.);
#494=EDGE_CURVE('',#612,#521,#750,.T.);
#495=EDGE_CURVE('',#612,#613,#751,.T.);
#496=EDGE_CURVE('',#613,#535,#752,.T.);
#497=EDGE_CURVE('',#614,#612,#753,.T.);
#498=EDGE_CURVE('',#614,#615,#754,.T.);
#499=EDGE_CURVE('',#615,#613,#755,.T.);
#500=EDGE_CURVE('',#616,#522,#756,.T.);
#501=EDGE_CURVE('',#614,#616,#757,.T.);
#502=EDGE_CURVE('',#617,#536,#758,.T.);
#503=EDGE_CURVE('',#616,#617,#759,.T.);
#504=EDGE_CURVE('',#615,#617,#760,.T.);
#505=EDGE_CURVE('',#586,#583,#16,.T.);
#506=EDGE_CURVE('',#582,#587,#17,.F.);
#507=EDGE_CURVE('',#589,#577,#18,.T.);
#508=EDGE_CURVE('',#576,#586,#19,.F.);
#509=EDGE_CURVE('',#587,#603,#20,.T.);
#510=EDGE_CURVE('',#602,#588,#21,.F.);
#511=EDGE_CURVE('',#584,#589,#22,.F.);
#512=EDGE_CURVE('',#588,#585,#23,.T.);
#513=EDGE_CURVE('',#584,#577,#36,.T.);
#514=EDGE_CURVE('',#576,#583,#37,.T.);
#515=EDGE_CURVE('',#582,#603,#38,.T.);
#516=EDGE_CURVE('',#602,#585,#39,.T.);
#517=VERTEX_POINT('',#1535);
#518=VERTEX_POINT('',#1536);
#519=VERTEX_POINT('',#1538);
#520=VERTEX_POINT('',#1540);
#521=VERTEX_POINT('',#1543);
#522=VERTEX_POINT('',#1544);
#523=VERTEX_POINT('',#1546);
#524=VERTEX_POINT('',#1548);
#525=VERTEX_POINT('',#1550);
#526=VERTEX_POINT('',#1552);
#527=VERTEX_POINT('',#1554);
#528=VERTEX_POINT('',#1556);
#529=VERTEX_POINT('',#1558);
#530=VERTEX_POINT('',#1560);
#531=VERTEX_POINT('',#1562);
#532=VERTEX_POINT('',#1564);
#533=VERTEX_POINT('',#1566);
#534=VERTEX_POINT('',#1568);
#535=VERTEX_POINT('',#1570);
#536=VERTEX_POINT('',#1572);
#537=VERTEX_POINT('',#1576);
#538=VERTEX_POINT('',#1577);
#539=VERTEX_POINT('',#1579);
#540=VERTEX_POINT('',#1581);
#541=VERTEX_POINT('',#1583);
#542=VERTEX_POINT('',#1585);
#543=VERTEX_POINT('',#1587);
#544=VERTEX_POINT('',#1589);
#545=VERTEX_POINT('',#1591);
#546=VERTEX_POINT('',#1593);
#547=VERTEX_POINT('',#1595);
#548=VERTEX_POINT('',#1597);
#549=VERTEX_POINT('',#1600);
#550=VERTEX_POINT('',#1601);
#551=VERTEX_POINT('',#1603);
#552=VERTEX_POINT('',#1605);
#553=VERTEX_POINT('',#1607);
#554=VERTEX_POINT('',#1609);
#555=VERTEX_POINT('',#1611);
#556=VERTEX_POINT('',#1613);
#557=VERTEX_POINT('',#1615);
#558=VERTEX_POINT('',#1617);
#559=VERTEX_POINT('',#1619);
#560=VERTEX_POINT('',#1623);
#561=VERTEX_POINT('',#1624);
#562=VERTEX_POINT('',#1626);
#563=VERTEX_POINT('',#1628);
#564=VERTEX_POINT('',#1630);
#565=VERTEX_POINT('',#1632);
#566=VERTEX_POINT('',#1634);
#567=VERTEX_POINT('',#1636);
#568=VERTEX_POINT('',#1642);
#569=VERTEX_POINT('',#1644);
#570=VERTEX_POINT('',#1647);
#571=VERTEX_POINT('',#1649);
#572=VERTEX_POINT('',#1655);
#573=VERTEX_POINT('',#1657);
#574=VERTEX_POINT('',#1660);
#575=VERTEX_POINT('',#1662);
#576=VERTEX_POINT('',#1667);
#577=VERTEX_POINT('',#1668);
#578=VERTEX_POINT('',#1672);
#579=VERTEX_POINT('',#1673);
#580=VERTEX_POINT('',#1675);
#581=VERTEX_POINT('',#1677);
#582=VERTEX_POINT('',#1681);
#583=VERTEX_POINT('',#1682);
#584=VERTEX_POINT('',#1687);
#585=VERTEX_POINT('',#1689);
#586=VERTEX_POINT('',#1693);
#587=VERTEX_POINT('',#1694);
#588=VERTEX_POINT('',#1696);
#589=VERTEX_POINT('',#1698);
#590=VERTEX_POINT('',#1703);
#591=VERTEX_POINT('',#1704);
#592=VERTEX_POINT('',#1709);
#593=VERTEX_POINT('',#1713);
#594=VERTEX_POINT('',#1723);
#595=VERTEX_POINT('',#1725);
#596=VERTEX_POINT('',#1752);
#597=VERTEX_POINT('',#1756);
#598=VERTEX_POINT('',#1760);
#599=VERTEX_POINT('',#1764);
#600=VERTEX_POINT('',#1768);
#601=VERTEX_POINT('',#1772);
#602=VERTEX_POINT('',#1779);
#603=VERTEX_POINT('',#1780);
#604=VERTEX_POINT('',#1784);
#605=VERTEX_POINT('',#1785);
#606=VERTEX_POINT('',#1787);
#607=VERTEX_POINT('',#1789);
#608=VERTEX_POINT('',#1793);
#609=VERTEX_POINT('',#1795);
#610=VERTEX_POINT('',#1799);
#611=VERTEX_POINT('',#1803);
#612=VERTEX_POINT('',#1810);
#613=VERTEX_POINT('',#1812);
#614=VERTEX_POINT('',#1816);
#615=VERTEX_POINT('',#1818);
#616=VERTEX_POINT('',#1822);
#617=VERTEX_POINT('',#1826);
#618=LINE('',#1534,#761);
#619=LINE('',#1537,#762);
#620=LINE('',#1539,#763);
#621=LINE('',#1541,#764);
#622=LINE('',#1542,#765);
#623=LINE('',#1545,#766);
#624=LINE('',#1547,#767);
#625=LINE('',#1549,#768);
#626=LINE('',#1551,#769);
#627=LINE('',#1553,#770);
#628=LINE('',#1555,#771);
#629=LINE('',#1557,#772);
#630=LINE('',#1559,#773);
#631=LINE('',#1561,#774);
#632=LINE('',#1563,#775);
#633=LINE('',#1565,#776);
#634=LINE('',#1567,#777);
#635=LINE('',#1569,#778);
#636=LINE('',#1571,#779);
#637=LINE('',#1573,#780);
#638=LINE('',#1575,#781);
#639=LINE('',#1578,#782);
#640=LINE('',#1580,#783);
#641=LINE('',#1582,#784);
#642=LINE('',#1584,#785);
#643=LINE('',#1586,#786);
#644=LINE('',#1588,#787);
#645=LINE('',#1590,#788);
#646=LINE('',#1592,#789);
#647=LINE('',#1594,#790);
#648=LINE('',#1596,#791);
#649=LINE('',#1598,#792);
#650=LINE('',#1599,#793);
#651=LINE('',#1602,#794);
#652=LINE('',#1604,#795);
#653=LINE('',#1606,#796);
#654=LINE('',#1608,#797);
#655=LINE('',#1610,#798);
#656=LINE('',#1612,#799);
#657=LINE('',#1614,#800);
#658=LINE('',#1616,#801);
#659=LINE('',#1618,#802);
#660=LINE('',#1620,#803);
#661=LINE('',#1622,#804);
#662=LINE('',#1627,#805);
#663=LINE('',#1631,#806);
#664=LINE('',#1635,#807);
#665=LINE('',#1638,#808);
#666=LINE('',#1639,#809);
#667=LINE('',#1641,#810);
#668=LINE('',#1643,#811);
#669=LINE('',#1645,#812);
#670=LINE('',#1646,#813);
#671=LINE('',#1648,#814);
#672=LINE('',#1650,#815);
#673=LINE('',#1651,#816);
#674=LINE('',#1652,#817);
#675=LINE('',#1654,#818);
#676=LINE('',#1656,#819);
#677=LINE('',#1658,#820);
#678=LINE('',#1659,#821);
#679=LINE('',#1661,#822);
#680=LINE('',#1663,#823);
#681=LINE('',#1664,#824);
#682=LINE('',#1666,#825);
#683=LINE('',#1669,#826);
#684=LINE('',#1670,#827);
#685=LINE('',#1671,#828);
#686=LINE('',#1674,#829);
#687=LINE('',#1676,#830);
#688=LINE('',#1678,#831);
#689=LINE('',#1680,#832);
#690=LINE('',#1683,#833);
#691=LINE('',#1684,#834);
#692=LINE('',#1686,#835);
#693=LINE('',#1688,#836);
#694=LINE('',#1690,#837);
#695=LINE('',#1692,#838);
#696=LINE('',#1695,#839);
#697=LINE('',#1697,#840);
#698=LINE('',#1699,#841);
#699=LINE('',#1702,#842);
#700=LINE('',#1705,#843);
#701=LINE('',#1706,#844);
#702=LINE('',#1708,#845);
#703=LINE('',#1710,#846);
#704=LINE('',#1712,#847);
#705=LINE('',#1714,#848);
#706=LINE('',#1716,#849);
#707=LINE('',#1718,#850);
#708=LINE('',#1719,#851);
#709=LINE('',#1721,#852);
#710=LINE('',#1722,#853);
#711=LINE('',#1724,#854);
#712=LINE('',#1726,#855);
#713=LINE('',#1728,#856);
#714=LINE('',#1731,#857);
#715=LINE('',#1732,#858);
#716=LINE('',#1735,#859);
#717=LINE('',#1736,#860);
#718=LINE('',#1739,#861);
#719=LINE('',#1740,#862);
#720=LINE('',#1743,#863);
#721=LINE('',#1744,#864);
#722=LINE('',#1751,#865);
#723=LINE('',#1753,#866);
#724=LINE('',#1755,#867);
#725=LINE('',#1757,#868);
#726=LINE('',#1759,#869);
#727=LINE('',#1761,#870);
#728=LINE('',#1763,#871);
#729=LINE('',#1765,#872);
#730=LINE('',#1767,#873);
#731=LINE('',#1769,#874);
#732=LINE('',#1771,#875);
#733=LINE('',#1773,#876);
#734=LINE('',#1775,#877);
#735=LINE('',#1778,#878);
#736=LINE('',#1781,#879);
#737=LINE('',#1782,#880);
#738=LINE('',#1783,#881);
#739=LINE('',#1786,#882);
#740=LINE('',#1788,#883);
#741=LINE('',#1790,#884);
#742=LINE('',#1792,#885);
#743=LINE('',#1794,#886);
#744=LINE('',#1796,#887);
#745=LINE('',#1798,#888);
#746=LINE('',#1800,#889);
#747=LINE('',#1802,#890);
#748=LINE('',#1804,#891);
#749=LINE('',#1806,#892);
#750=LINE('',#1809,#893);
#751=LINE('',#1811,#894);
#752=LINE('',#1813,#895);
#753=LINE('',#1815,#896);
#754=LINE('',#1817,#897);
#755=LINE('',#1819,#898);
#756=LINE('',#1821,#899);
#757=LINE('',#1823,#900);
#758=LINE('',#1825,#901);
#759=LINE('',#1827,#902);
#760=LINE('',#1829,#903);
#761=VECTOR('',#1243,1.);
#762=VECTOR('',#1244,1.);
#763=VECTOR('',#1245,1.);
#764=VECTOR('',#1246,1.);
#765=VECTOR('',#1247,1.);
#766=VECTOR('',#1248,1.);
#767=VECTOR('',#1249,1.);
#768=VECTOR('',#1250,1.);
#769=VECTOR('',#1251,1.);
#770=VECTOR('',#1252,1.);
#771=VECTOR('',#1253,1.);
#772=VECTOR('',#1254,1.);
#773=VECTOR('',#1255,1.);
#774=VECTOR('',#1256,1.);
#775=VECTOR('',#1257,1.);
#776=VECTOR('',#1258,1.);
#777=VECTOR('',#1259,1.);
#778=VECTOR('',#1260,1.);
#779=VECTOR('',#1261,1.);
#780=VECTOR('',#1262,1.);
#781=VECTOR('',#1265,1.);
#782=VECTOR('',#1266,1.);
#783=VECTOR('',#1267,1.);
#784=VECTOR('',#1268,1.);
#785=VECTOR('',#1269,1.);
#786=VECTOR('',#1270,1.);
#787=VECTOR('',#1271,1.);
#788=VECTOR('',#1272,1.);
#789=VECTOR('',#1273,1.);
#790=VECTOR('',#1274,1.);
#791=VECTOR('',#1275,1.);
#792=VECTOR('',#1276,1.);
#793=VECTOR('',#1277,1.);
#794=VECTOR('',#1278,1.);
#795=VECTOR('',#1279,1.);
#796=VECTOR('',#1280,1.);
#797=VECTOR('',#1281,1.);
#798=VECTOR('',#1282,1.);
#799=VECTOR('',#1283,1.);
#800=VECTOR('',#1284,1.);
#801=VECTOR('',#1285,1.);
#802=VECTOR('',#1286,1.);
#803=VECTOR('',#1287,1.);
#804=VECTOR('',#1290,1.);
#805=VECTOR('',#1293,1.);
#806=VECTOR('',#1296,1.);
#807=VECTOR('',#1299,1.);
#808=VECTOR('',#1302,1.);
#809=VECTOR('',#1303,1.);
#810=VECTOR('',#1306,1.);
#811=VECTOR('',#1307,1.);
#812=VECTOR('',#1308,1.);
#813=VECTOR('',#1309,1.);
#814=VECTOR('',#1310,1.);
#815=VECTOR('',#1311,1.);
#816=VECTOR('',#1312,1.);
#817=VECTOR('',#1313,1.);
#818=VECTOR('',#1316,1.);
#819=VECTOR('',#1317,1.);
#820=VECTOR('',#1318,1.);
#821=VECTOR('',#1319,1.);
#822=VECTOR('',#1320,1.);
#823=VECTOR('',#1321,1.);
#824=VECTOR('',#1322,1.);
#825=VECTOR('',#1325,1.);
#826=VECTOR('',#1326,1.);
#827=VECTOR('',#1327,1.);
#828=VECTOR('',#1328,1.);
#829=VECTOR('',#1329,1.);
#830=VECTOR('',#1330,1.);
#831=VECTOR('',#1331,1.);
#832=VECTOR('',#1334,1.);
#833=VECTOR('',#1335,1.);
#834=VECTOR('',#1336,1.);
#835=VECTOR('',#1339,1.);
#836=VECTOR('',#1340,1.);
#837=VECTOR('',#1341,1.);
#838=VECTOR('',#1344,1.);
#839=VECTOR('',#1345,1.);
#840=VECTOR('',#1346,1.);
#841=VECTOR('',#1347,1.);
#842=VECTOR('',#1352,1.);
#843=VECTOR('',#1353,1.);
#844=VECTOR('',#1354,1.);
#845=VECTOR('',#1357,1.);
#846=VECTOR('',#1358,1.);
#847=VECTOR('',#1361,1.);
#848=VECTOR('',#1362,1.);
#849=VECTOR('',#1365,1.);
#850=VECTOR('',#1368,1.);
#851=VECTOR('',#1369,1.);
#852=VECTOR('',#1372,1.);
#853=VECTOR('',#1373,1.);
#854=VECTOR('',#1374,1.);
#855=VECTOR('',#1375,1.);
#856=VECTOR('',#1378,1.);
#857=VECTOR('',#1383,1.);
#858=VECTOR('',#1384,1.);
#859=VECTOR('',#1389,1.);
#860=VECTOR('',#1390,1.);
#861=VECTOR('',#1395,1.);
#862=VECTOR('',#1396,1.);
#863=VECTOR('',#1401,1.);
#864=VECTOR('',#1402,1.);
#865=VECTOR('',#1415,1.);
#866=VECTOR('',#1416,1.);
#867=VECTOR('',#1419,1.);
#868=VECTOR('',#1420,1.);
#869=VECTOR('',#1423,1.);
#870=VECTOR('',#1424,1.);
#871=VECTOR('',#1427,1.);
#872=VECTOR('',#1428,1.);
#873=VECTOR('',#1431,1.);
#874=VECTOR('',#1432,1.);
#875=VECTOR('',#1435,1.);
#876=VECTOR('',#1436,1.);
#877=VECTOR('',#1439,1.);
#878=VECTOR('',#1444,1.);
#879=VECTOR('',#1445,1.);
#880=VECTOR('',#1446,1.);
#881=VECTOR('',#1447,1.);
#882=VECTOR('',#1448,1.);
#883=VECTOR('',#1449,1.);
#884=VECTOR('',#1450,1.);
#885=VECTOR('',#1453,1.);
#886=VECTOR('',#1454,1.);
#887=VECTOR('',#1455,1.);
#888=VECTOR('',#1458,1.);
#889=VECTOR('',#1459,1.);
#890=VECTOR('',#1462,1.);
#891=VECTOR('',#1463,1.);
#892=VECTOR('',#1466,1.);
#893=VECTOR('',#1471,1.);
#894=VECTOR('',#1472,1.);
#895=VECTOR('',#1473,1.);
#896=VECTOR('',#1476,1.);
#897=VECTOR('',#1477,1.);
#898=VECTOR('',#1478,1.);
#899=VECTOR('',#1481,1.);
#900=VECTOR('',#1482,1.);
#901=VECTOR('',#1485,1.);
#902=VECTOR('',#1486,1.);
#903=VECTOR('',#1489,1.);
#904=EDGE_LOOP('',(#40,#41,#42,#43));
#905=EDGE_LOOP('',(#44,#45,#46,#47,#48,#49,#50,#51,#52,#53,#54,#55,#56,
#57,#58,#59));
#906=EDGE_LOOP('',(#60,#61,#62,#63,#64,#65,#66,#67,#68,#69,#70,#71));
#907=EDGE_LOOP('',(#72,#73,#74,#75,#76,#77,#78,#79,#80,#81,#82));
#908=EDGE_LOOP('',(#83,#84,#85,#86,#87,#88,#89,#90));
#909=EDGE_LOOP('',(#91,#92,#93,#94));
#910=EDGE_LOOP('',(#95,#96,#97,#98,#99,#100,#101,#102,#103,#104,#105,#106,
#107,#108));
#911=EDGE_LOOP('',(#109,#110,#111,#112,#113,#114,#115,#116,#117,#118,#119,
#120));
#912=EDGE_LOOP('',(#121,#122,#123,#124));
#913=EDGE_LOOP('',(#125,#126,#127,#128));
#914=EDGE_LOOP('',(#129,#130,#131,#132));
#915=EDGE_LOOP('',(#133,#134,#135,#136));
#916=EDGE_LOOP('',(#137,#138,#139,#140));
#917=EDGE_LOOP('',(#141,#142,#143,#144));
#918=EDGE_LOOP('',(#145,#146,#147,#148));
#919=EDGE_LOOP('',(#149,#150,#151,#152));
#920=EDGE_LOOP('',(#153,#154,#155,#156));
#921=EDGE_LOOP('',(#157,#158,#159,#160));
#922=EDGE_LOOP('',(#161,#162,#163,#164));
#923=EDGE_LOOP('',(#165,#166,#167,#168,#169,#170,#171));
#924=EDGE_LOOP('',(#172,#173,#174,#175));
#925=EDGE_LOOP('',(#176,#177,#178,#179));
#926=EDGE_LOOP('',(#180,#181,#182,#183));
#927=EDGE_LOOP('',(#184,#185,#186));
#928=EDGE_LOOP('',(#187,#188,#189,#190));
#929=EDGE_LOOP('',(#191,#192,#193));
#930=EDGE_LOOP('',(#194,#195,#196,#197));
#931=EDGE_LOOP('',(#198,#199,#200));
#932=EDGE_LOOP('',(#201,#202,#203,#204));
#933=EDGE_LOOP('',(#205,#206,#207));
#934=EDGE_LOOP('',(#208,#209,#210));
#935=EDGE_LOOP('',(#211,#212,#213));
#936=EDGE_LOOP('',(#214,#215,#216));
#937=EDGE_LOOP('',(#217,#218,#219));
#938=EDGE_LOOP('',(#220,#221,#222,#223));
#939=EDGE_LOOP('',(#224,#225,#226,#227));
#940=EDGE_LOOP('',(#228,#229,#230,#231));
#941=EDGE_LOOP('',(#232,#233,#234,#235));
#942=EDGE_LOOP('',(#236,#237,#238,#239));
#943=EDGE_LOOP('',(#240,#241,#242,#243));
#944=EDGE_LOOP('',(#244,#245,#246,#247));
#945=EDGE_LOOP('',(#248,#249,#250,#251,#252,#253,#254,#255));
#946=EDGE_LOOP('',(#256,#257,#258,#259));
#947=EDGE_LOOP('',(#260,#261,#262,#263));
#948=EDGE_LOOP('',(#264,#265,#266,#267));
#949=EDGE_LOOP('',(#268,#269,#270,#271));
#950=EDGE_LOOP('',(#272,#273,#274,#275));
#951=EDGE_LOOP('',(#276,#277,#278,#279));
#952=EDGE_LOOP('',(#280,#281,#282,#283));
#953=EDGE_LOOP('',(#284,#285,#286,#287));
#954=EDGE_LOOP('',(#288,#289,#290,#291));
#955=EDGE_LOOP('',(#292,#293,#294,#295));
#956=EDGE_LOOP('',(#296,#297,#298,#299,#300));
#957=EDGE_LOOP('',(#301,#302,#303,#304));
#958=EDGE_LOOP('',(#305,#306,#307,#308,#309));
#959=EDGE_LOOP('',(#310,#311,#312,#313));
#960=EDGE_LOOP('',(#314,#315,#316,#317));
#961=EDGE_LOOP('',(#318,#319,#320,#321));
#962=EDGE_LOOP('',(#322,#323,#324,#325));
#963=EDGE_LOOP('',(#326,#327,#328,#329));
#964=EDGE_LOOP('',(#330,#331,#332,#333));
#965=EDGE_LOOP('',(#334,#335,#336));
#966=EDGE_LOOP('',(#337,#338,#339,#340));
#967=EDGE_LOOP('',(#341,#342,#343));
#968=EDGE_LOOP('',(#344,#345,#346,#347));
#969=EDGE_LOOP('',(#348,#349,#350));
#970=EDGE_LOOP('',(#351,#352,#353,#354));
#971=EDGE_LOOP('',(#355,#356,#357));
#972=FACE_BOUND('',#904,.T.);
#973=FACE_BOUND('',#905,.T.);
#974=FACE_BOUND('',#906,.T.);
#975=FACE_BOUND('',#907,.T.);
#976=FACE_BOUND('',#908,.T.);
#977=FACE_BOUND('',#909,.T.);
#978=FACE_BOUND('',#910,.T.);
#979=FACE_BOUND('',#911,.T.);
#980=FACE_BOUND('',#912,.T.);
#981=FACE_BOUND('',#913,.T.);
#982=FACE_BOUND('',#914,.T.);
#983=FACE_BOUND('',#915,.T.);
#984=FACE_BOUND('',#916,.T.);
#985=FACE_BOUND('',#917,.T.);
#986=FACE_BOUND('',#918,.T.);
#987=FACE_BOUND('',#919,.T.);
#988=FACE_BOUND('',#920,.T.);
#989=FACE_BOUND('',#921,.T.);
#990=FACE_BOUND('',#922,.T.);
#991=FACE_BOUND('',#923,.T.);
#992=FACE_BOUND('',#924,.T.);
#993=FACE_BOUND('',#925,.T.);
#994=FACE_BOUND('',#926,.T.);
#995=FACE_BOUND('',#927,.T.);
#996=FACE_BOUND('',#928,.T.);
#997=FACE_BOUND('',#929,.T.);
#998=FACE_BOUND('',#930,.T.);
#999=FACE_BOUND('',#931,.T.);
#1000=FACE_BOUND('',#932,.T.);
#1001=FACE_BOUND('',#933,.T.);
#1002=FACE_BOUND('',#934,.T.);
#1003=FACE_BOUND('',#935,.T.);
#1004=FACE_BOUND('',#936,.T.);
#1005=FACE_BOUND('',#937,.T.);
#1006=FACE_BOUND('',#938,.T.);
#1007=FACE_BOUND('',#939,.T.);
#1008=FACE_BOUND('',#940,.T.);
#1009=FACE_BOUND('',#941,.T.);
#1010=FACE_BOUND('',#942,.T.);
#1011=FACE_BOUND('',#943,.T.);
#1012=FACE_BOUND('',#944,.T.);
#1013=FACE_BOUND('',#945,.T.);
#1014=FACE_BOUND('',#946,.T.);
#1015=FACE_BOUND('',#947,.T.);
#1016=FACE_BOUND('',#948,.T.);
#1017=FACE_BOUND('',#949,.T.);
#1018=FACE_BOUND('',#950,.T.);
#1019=FACE_BOUND('',#951,.T.);
#1020=FACE_BOUND('',#952,.T.);
#1021=FACE_BOUND('',#953,.T.);
#1022=FACE_BOUND('',#954,.T.);
#1023=FACE_BOUND('',#955,.T.);
#1024=FACE_BOUND('',#956,.T.);
#1025=FACE_BOUND('',#957,.T.);
#1026=FACE_BOUND('',#958,.T.);
#1027=FACE_BOUND('',#959,.T.);
#1028=FACE_BOUND('',#960,.T.);
#1029=FACE_BOUND('',#961,.T.);
#1030=FACE_BOUND('',#962,.T.);
#1031=FACE_BOUND('',#963,.T.);
#1032=FACE_BOUND('',#964,.T.);
#1033=FACE_BOUND('',#965,.T.);
#1034=FACE_BOUND('',#966,.T.);
#1035=FACE_BOUND('',#967,.T.);
#1036=FACE_BOUND('',#968,.T.);
#1037=FACE_BOUND('',#969,.T.);
#1038=FACE_BOUND('',#970,.T.);
#1039=FACE_BOUND('',#971,.T.);
#1040=PLANE('',#1165);
#1041=PLANE('',#1166);
#1042=PLANE('',#1167);
#1043=PLANE('',#1172);
#1044=PLANE('',#1173);
#1045=PLANE('',#1174);
#1046=PLANE('',#1175);
#1047=PLANE('',#1176);
#1048=PLANE('',#1177);
#1049=PLANE('',#1178);
#1050=PLANE('',#1179);
#1051=PLANE('',#1180);
#1052=PLANE('',#1181);
#1053=PLANE('',#1182);
#1054=PLANE('',#1183);
#1055=PLANE('',#1184);
#1056=PLANE('',#1185);
#1057=PLANE('',#1186);
#1058=PLANE('',#1187);
#1059=PLANE('',#1188);
#1060=PLANE('',#1189);
#1061=PLANE('',#1190);
#1062=PLANE('',#1191);
#1063=PLANE('',#1192);
#1064=PLANE('',#1193);
#1065=PLANE('',#1194);
#1066=PLANE('',#1195);
#1067=PLANE('',#1196);
#1068=PLANE('',#1197);
#1069=PLANE('',#1198);
#1070=PLANE('',#1199);
#1071=PLANE('',#1200);
#1072=PLANE('',#1201);
#1073=PLANE('',#1202);
#1074=PLANE('',#1203);
#1075=PLANE('',#1204);
#1076=PLANE('',#1205);
#1077=PLANE('',#1206);
#1078=PLANE('',#1207);
#1079=PLANE('',#1208);
#1080=PLANE('',#1209);
#1081=PLANE('',#1210);
#1082=PLANE('',#1211);
#1083=PLANE('',#1212);
#1084=PLANE('',#1213);
#1085=PLANE('',#1214);
#1086=PLANE('',#1215);
#1087=PLANE('',#1216);
#1088=PLANE('',#1217);
#1089=PLANE('',#1218);
#1090=ADVANCED_FACE('',(#972,#973),#1040,.F.);
#1091=ADVANCED_FACE('',(#974,#975),#1041,.T.);
#1092=ADVANCED_FACE('',(#976,#977),#1042,.T.);
#1093=ADVANCED_FACE('',(#978),#1043,.T.);
#1094=ADVANCED_FACE('',(#979),#1044,.F.);
#1095=ADVANCED_FACE('',(#980,#981),#1045,.F.);
#1096=ADVANCED_FACE('',(#982),#1046,.T.);
#1097=ADVANCED_FACE('',(#983),#1047,.F.);
#1098=ADVANCED_FACE('',(#984),#1048,.F.);
#1099=ADVANCED_FACE('',(#985),#1049,.T.);
#1100=ADVANCED_FACE('',(#986),#1050,.T.);
#1101=ADVANCED_FACE('',(#987),#1051,.F.);
#1102=ADVANCED_FACE('',(#988),#1052,.F.);
#1103=ADVANCED_FACE('',(#989),#1053,.T.);
#1104=ADVANCED_FACE('',(#990),#1054,.T.);
#1105=ADVANCED_FACE('',(#991),#1055,.F.);
#1106=ADVANCED_FACE('',(#992),#1056,.F.);
#1107=ADVANCED_FACE('',(#993),#1057,.T.);
#1108=ADVANCED_FACE('',(#994),#1058,.T.);
#1109=ADVANCED_FACE('',(#995),#1059,.F.);
#1110=ADVANCED_FACE('',(#996),#1060,.F.);
#1111=ADVANCED_FACE('',(#997),#1061,.F.);
#1112=ADVANCED_FACE('',(#998),#1062,.T.);
#1113=ADVANCED_FACE('',(#999),#1063,.F.);
#1114=ADVANCED_FACE('',(#1000),#1064,.F.);
#1115=ADVANCED_FACE('',(#1001),#1065,.F.);
#1116=ADVANCED_FACE('',(#1002),#1066,.T.);
#1117=ADVANCED_FACE('',(#1003),#1067,.T.);
#1118=ADVANCED_FACE('',(#1004),#1068,.T.);
#1119=ADVANCED_FACE('',(#1005),#1069,.T.);
#1120=ADVANCED_FACE('',(#1006),#1070,.F.);
#1121=ADVANCED_FACE('',(#1007),#1071,.T.);
#1122=ADVANCED_FACE('',(#1008),#1072,.F.);
#1123=ADVANCED_FACE('',(#1009),#1073,.F.);
#1124=ADVANCED_FACE('',(#1010),#1074,.T.);
#1125=ADVANCED_FACE('',(#1011),#1075,.T.);
#1126=ADVANCED_FACE('',(#1012),#1076,.T.);
#1127=ADVANCED_FACE('',(#1013),#1077,.T.);
#1128=ADVANCED_FACE('',(#1014,#1015),#1078,.T.);
#1129=ADVANCED_FACE('',(#1016),#1079,.F.);
#1130=ADVANCED_FACE('',(#1017),#1080,.T.);
#1131=ADVANCED_FACE('',(#1018),#1081,.F.);
#1132=ADVANCED_FACE('',(#1019),#1082,.F.);
#1133=ADVANCED_FACE('',(#1020,#1021),#1083,.F.);
#1134=ADVANCED_FACE('',(#1022),#1084,.F.);
#1135=ADVANCED_FACE('',(#1023),#1085,.T.);
#1136=ADVANCED_FACE('',(#1024),#1086,.F.);
#1137=ADVANCED_FACE('',(#1025),#1087,.F.);
#1138=ADVANCED_FACE('',(#1026),#1088,.T.);
#1139=ADVANCED_FACE('',(#1027),#1089,.T.);
#1140=ADVANCED_FACE('',(#1028),#24,.T.);
#1141=ADVANCED_FACE('',(#1029),#25,.T.);
#1142=ADVANCED_FACE('',(#1030),#26,.T.);
#1143=ADVANCED_FACE('',(#1031),#27,.T.);
#1144=ADVANCED_FACE('',(#1032),#28,.T.);
#1145=ADVANCED_FACE('',(#1033),#12,.T.);
#1146=ADVANCED_FACE('',(#1034),#29,.T.);
#1147=ADVANCED_FACE('',(#1035),#13,.T.);
#1148=ADVANCED_FACE('',(#1036),#30,.T.);
#1149=ADVANCED_FACE('',(#1037),#14,.T.);
#1150=ADVANCED_FACE('',(#1038),#31,.T.);
#1151=ADVANCED_FACE('',(#1039),#15,.T.);
#1152=CLOSED_SHELL('',(#1090,#1091,#1092,#1093,#1094,#1095,#1096,#1097,
#1098,#1099,#1100,#1101,#1102,#1103,#1104,#1105,#1106,#1107,#1108,#1109,
#1110,#1111,#1112,#1113,#1114,#1115,#1116,#1117,#1118,#1119,#1120,#1121,
#1122,#1123,#1124,#1125,#1126,#1127,#1128,#1129,#1130,#1131,#1132,#1133,
#1134,#1135,#1136,#1137,#1138,#1139,#1140,#1141,#1142,#1143,#1144,#1145,
#1146,#1147,#1148,#1149,#1150,#1151));
#1153=STYLED_ITEM('',(#1154),#1161);
#1154=PRESENTATION_STYLE_ASSIGNMENT((#1155));
#1155=SURFACE_STYLE_USAGE(.BOTH.,#1156);
#1156=SURFACE_SIDE_STYLE('',(#1157));
#1157=SURFACE_STYLE_FILL_AREA(#1158);
#1158=FILL_AREA_STYLE('',(#1159));
#1159=FILL_AREA_STYLE_COLOUR('',#1160);
#1160=COLOUR_RGB('',0.615686274509804,0.811764705882353,0.929411764705882);
#1161=MANIFOLD_SOLID_BREP('Part 1',#1152);
#1162=SHAPE_DEFINITION_REPRESENTATION(#1965,#1163);
#1163=SHAPE_REPRESENTATION('Part 1',(#1164),#1960);
#1164=AXIS2_PLACEMENT_3D('',#1532,#1239,#1240);
#1165=AXIS2_PLACEMENT_3D('',#1533,#1241,#1242);
#1166=AXIS2_PLACEMENT_3D('',#1574,#1263,#1264);
#1167=AXIS2_PLACEMENT_3D('',#1621,#1288,#1289);
#1168=AXIS2_PLACEMENT_3D('',#1625,#1291,#1292);
#1169=AXIS2_PLACEMENT_3D('',#1629,#1294,#1295);
#1170=AXIS2_PLACEMENT_3D('',#1633,#1297,#1298);
#1171=AXIS2_PLACEMENT_3D('',#1637,#1300,#1301);
#1172=AXIS2_PLACEMENT_3D('',#1640,#1304,#1305);
#1173=AXIS2_PLACEMENT_3D('',#1653,#1314,#1315);
#1174=AXIS2_PLACEMENT_3D('',#1665,#1323,#1324);
#1175=AXIS2_PLACEMENT_3D('',#1679,#1332,#1333);
#1176=AXIS2_PLACEMENT_3D('',#1685,#1337,#1338);
#1177=AXIS2_PLACEMENT_3D('',#1691,#1342,#1343);
#1178=AXIS2_PLACEMENT_3D('',#1700,#1348,#1349);
#1179=AXIS2_PLACEMENT_3D('',#1701,#1350,#1351);
#1180=AXIS2_PLACEMENT_3D('',#1707,#1355,#1356);
#1181=AXIS2_PLACEMENT_3D('',#1711,#1359,#1360);
#1182=AXIS2_PLACEMENT_3D('',#1715,#1363,#1364);
#1183=AXIS2_PLACEMENT_3D('',#1717,#1366,#1367);
#1184=AXIS2_PLACEMENT_3D('',#1720,#1370,#1371);
#1185=AXIS2_PLACEMENT_3D('',#1727,#1376,#1377);
#1186=AXIS2_PLACEMENT_3D('',#1729,#1379,#1380);
#1187=AXIS2_PLACEMENT_3D('',#1730,#1381,#1382);
#1188=AXIS2_PLACEMENT_3D('',#1733,#1385,#1386);
#1189=AXIS2_PLACEMENT_3D('',#1734,#1387,#1388);
#1190=AXIS2_PLACEMENT_3D('',#1737,#1391,#1392);
#1191=AXIS2_PLACEMENT_3D('',#1738,#1393,#1394);
#1192=AXIS2_PLACEMENT_3D('',#1741,#1397,#1398);
#1193=AXIS2_PLACEMENT_3D('',#1742,#1399,#1400);
#1194=AXIS2_PLACEMENT_3D('',#1745,#1403,#1404);
#1195=AXIS2_PLACEMENT_3D('',#1746,#1405,#1406);
#1196=AXIS2_PLACEMENT_3D('',#1747,#1407,#1408);
#1197=AXIS2_PLACEMENT_3D('',#1748,#1409,#1410);
#1198=AXIS2_PLACEMENT_3D('',#1749,#1411,#1412);
#1199=AXIS2_PLACEMENT_3D('',#1750,#1413,#1414);
#1200=AXIS2_PLACEMENT_3D('',#1754,#1417,#1418);
#1201=AXIS2_PLACEMENT_3D('',#1758,#1421,#1422);
#1202=AXIS2_PLACEMENT_3D('',#1762,#1425,#1426);
#1203=AXIS2_PLACEMENT_3D('',#1766,#1429,#1430);
#1204=AXIS2_PLACEMENT_3D('',#1770,#1433,#1434);
#1205=AXIS2_PLACEMENT_3D('',#1774,#1437,#1438);
#1206=AXIS2_PLACEMENT_3D('',#1776,#1440,#1441);
#1207=AXIS2_PLACEMENT_3D('',#1777,#1442,#1443);
#1208=AXIS2_PLACEMENT_3D('',#1791,#1451,#1452);
#1209=AXIS2_PLACEMENT_3D('',#1797,#1456,#1457);
#1210=AXIS2_PLACEMENT_3D('',#1801,#1460,#1461);
#1211=AXIS2_PLACEMENT_3D('',#1805,#1464,#1465);
#1212=AXIS2_PLACEMENT_3D('',#1807,#1467,#1468);
#1213=AXIS2_PLACEMENT_3D('',#1808,#1469,#1470);
#1214=AXIS2_PLACEMENT_3D('',#1814,#1474,#1475);
#1215=AXIS2_PLACEMENT_3D('',#1820,#1479,#1480);
#1216=AXIS2_PLACEMENT_3D('',#1824,#1483,#1484);
#1217=AXIS2_PLACEMENT_3D('',#1828,#1487,#1488);
#1218=AXIS2_PLACEMENT_3D('',#1830,#1490,#1491);
#1219=AXIS2_PLACEMENT_3D('',#1831,#1492,#1493);
#1220=AXIS2_PLACEMENT_3D('',#1832,#1494,#1495);
#1221=AXIS2_PLACEMENT_3D('',#1833,#1496,#1497);
#1222=AXIS2_PLACEMENT_3D('',#1834,#1498,#1499);
#1223=AXIS2_PLACEMENT_3D('',#1835,#1500,#1501);
#1224=AXIS2_PLACEMENT_3D('',#1836,#1502,#1503);
#1225=AXIS2_PLACEMENT_3D('',#1837,#1504,#1505);
#1226=AXIS2_PLACEMENT_3D('',#1838,#1506,#1507);
#1227=AXIS2_PLACEMENT_3D('',#1839,#1508,#1509);
#1228=AXIS2_PLACEMENT_3D('',#1840,#1510,#1511);
#1229=AXIS2_PLACEMENT_3D('',#1841,#1512,#1513);
#1230=AXIS2_PLACEMENT_3D('',#1842,#1514,#1515);
#1231=AXIS2_PLACEMENT_3D('',#1843,#1516,#1517);
#1232=AXIS2_PLACEMENT_3D('',#1844,#1518,#1519);
#1233=AXIS2_PLACEMENT_3D('',#1872,#1520,#1521);
#1234=AXIS2_PLACEMENT_3D('',#1873,#1522,#1523);
#1235=AXIS2_PLACEMENT_3D('',#1901,#1524,#1525);
#1236=AXIS2_PLACEMENT_3D('',#1902,#1526,#1527);
#1237=AXIS2_PLACEMENT_3D('',#1930,#1528,#1529);
#1238=AXIS2_PLACEMENT_3D('',#1931,#1530,#1531);
#1239=DIRECTION('',(0.,0.,1.));
#1240=DIRECTION('',(1.,0.,0.));
#1241=DIRECTION('',(-1.,0.,0.));
#1242=DIRECTION('',(0.,0.,1.));
#1243=DIRECTION('',(0.,1.,-2.95334918233975E-16));
#1244=DIRECTION('',(0.,9.89799997704443E-17,1.));
#1245=DIRECTION('',(0.,1.,-2.95334918233975E-16));
#1246=DIRECTION('',(0.,9.89799997704443E-17,1.));
#1247=DIRECTION('',(0.,-1.,0.));
#1248=DIRECTION('',(0.,0.,-1.));
#1249=DIRECTION('',(0.,1.,0.));
#1250=DIRECTION('',(0.,0.,1.));
#1251=DIRECTION('',(0.,1.,0.));
#1252=DIRECTION('',(0.,0.,1.));
#1253=DIRECTION('',(0.,1.,0.));
#1254=DIRECTION('',(0.,0.,1.));
#1255=DIRECTION('',(0.,1.,0.));
#1256=DIRECTION('',(0.,0.,1.));
#1257=DIRECTION('',(0.,1.,0.));
#1258=DIRECTION('',(0.,0.,-1.));
#1259=DIRECTION('',(0.,1.,0.));
#1260=DIRECTION('',(0.,0.,-1.));
#1261=DIRECTION('',(0.,-1.,-1.36592399683213E-16));
#1262=DIRECTION('',(0.,2.73184799366426E-16,-1.));
#1263=DIRECTION('',(-1.,0.,0.));
#1264=DIRECTION('',(0.,0.,1.));
#1265=DIRECTION('',(0.,0.,-1.));
#1266=DIRECTION('',(0.,1.,0.));
#1267=DIRECTION('',(0.,0.,1.));
#1268=DIRECTION('',(0.,1.,0.));
#1269=DIRECTION('',(0.,0.,1.));
#1270=DIRECTION('',(0.,1.,0.));
#1271=DIRECTION('',(0.,0.,1.));
#1272=DIRECTION('',(0.,1.,0.));
#1273=DIRECTION('',(0.,0.,1.));
#1274=DIRECTION('',(0.,1.,0.));
#1275=DIRECTION('',(0.,0.,-1.));
#1276=DIRECTION('',(0.,1.,0.));
#1277=DIRECTION('',(0.,1.,0.));
#1278=DIRECTION('',(0.,-4.44202925799067E-16,1.));
#1279=DIRECTION('',(0.,-1.,-9.26050167343817E-16));
#1280=DIRECTION('',(0.,3.7942333245337E-15,-1.));
#1281=DIRECTION('',(0.,-1.,-5.46369598732853E-16));
#1282=DIRECTION('',(0.,-4.710082747697E-16,1.));
#1283=DIRECTION('',(0.,-1.,-1.0927391974657E-15));
#1284=DIRECTION('',(0.,-1.51769332981348E-15,1.));
#1285=DIRECTION('',(0.,-8.53702498020082E-17,1.));
#1286=DIRECTION('',(0.,1.,0.));
#1287=DIRECTION('',(0.,-8.53702498020082E-17,1.));
#1288=DIRECTION('',(0.,0.,1.));
#1289=DIRECTION('',(1.,0.,0.));
#1290=DIRECTION('',(0.,1.,0.));
#1291=DIRECTION('',(0.,0.,1.));
#1292=DIRECTION('',(1.,0.,0.));
#1293=DIRECTION('',(-1.,-1.85210033468763E-16,0.));
#1294=DIRECTION('',(0.,0.,1.));
#1295=DIRECTION('',(1.,0.,0.));
#1296=DIRECTION('',(0.,1.,0.));
#1297=DIRECTION('',(0.,0.,1.));
#1298=DIRECTION('',(1.,0.,0.));
#1299=DIRECTION('',(-1.,-9.26050167343818E-17,0.));
#1300=DIRECTION('',(0.,0.,1.));
#1301=DIRECTION('',(1.,0.,0.));
#1302=DIRECTION('',(-1.,-1.01179555320899E-16,0.));
#1303=DIRECTION('',(-1.,-2.02359110641797E-16,0.));
#1304=DIRECTION('',(2.02359110641797E-16,-1.,0.));
#1305=DIRECTION('',(1.,2.02359110641797E-16,0.));
#1306=DIRECTION('',(-1.,-2.02359110641797E-16,0.));
#1307=DIRECTION('',(0.,0.,1.));
#1308=DIRECTION('',(-1.,-2.02359110641797E-16,0.));
#1309=DIRECTION('',(-1.,-2.02359110641797E-16,0.));
#1310=DIRECTION('',(0.,0.,1.));
#1311=DIRECTION('',(-1.,-2.02359110641797E-16,0.));
#1312=DIRECTION('',(0.,0.,-1.));
#1313=DIRECTION('',(-1.,-2.02359110641797E-16,0.));
#1314=DIRECTION('',(1.01179555320899E-16,-1.,0.));
#1315=DIRECTION('',(1.,1.01179555320899E-16,0.));
#1316=DIRECTION('',(-1.,-1.01179555320899E-16,0.));
#1317=DIRECTION('',(0.,0.,1.));
#1318=DIRECTION('',(-1.,-1.01179555320899E-16,0.));
#1319=DIRECTION('',(-1.,-1.01179555320899E-16,0.));
#1320=DIRECTION('',(0.,0.,1.));
#1321=DIRECTION('',(-1.,-1.01179555320899E-16,0.));
#1322=DIRECTION('',(-1.,-1.01179555320899E-16,0.));
#1323=DIRECTION('',(-1.,0.,0.));
#1324=DIRECTION('',(0.,0.,1.));
#1325=DIRECTION('',(0.,1.,0.));
#1326=DIRECTION('',(0.,0.,-1.));
#1327=DIRECTION('',(0.,0.,-1.));
#1328=DIRECTION('',(0.,8.53702498020082E-17,-1.));
#1329=DIRECTION('',(0.,-1.,0.));
#1330=DIRECTION('',(0.,8.53702498020082E-17,-1.));
#1331=DIRECTION('',(0.,-1.,0.));
#1332=DIRECTION('',(9.26050167343818E-17,-1.,0.));
#1333=DIRECTION('',(1.,9.26050167343818E-17,0.));
#1334=DIRECTION('',(-1.,-9.26050167343818E-17,0.));
#1335=DIRECTION('',(0.,0.,-1.));
#1336=DIRECTION('',(0.,0.,-1.));
#1337=DIRECTION('',(1.85210033468763E-16,-1.,0.));
#1338=DIRECTION('',(1.,1.85210033468763E-16,0.));
#1339=DIRECTION('',(0.,0.,-1.));
#1340=DIRECTION('',(-1.,-1.85210033468763E-16,0.));
#1341=DIRECTION('',(0.,0.,-1.));
#1342=DIRECTION('',(0.,0.,1.));
#1343=DIRECTION('',(1.,0.,0.));
#1344=DIRECTION('',(-1.,-9.26050167343818E-17,0.));
#1345=DIRECTION('',(0.,1.,0.));
#1346=DIRECTION('',(-1.,-1.85210033468763E-16,0.));
#1347=DIRECTION('',(0.,1.,0.));
#1348=DIRECTION('',(0.,0.,1.));
#1349=DIRECTION('',(1.,0.,0.));
#1350=DIRECTION('',(0.,2.95334918233975E-16,1.));
#1351=DIRECTION('',(0.,-1.,2.95334918233975E-16));
#1352=DIRECTION('',(0.,1.,-2.95334918233975E-16));
#1353=DIRECTION('',(-1.,0.,0.));
#1354=DIRECTION('',(-1.,0.,0.));
#1355=DIRECTION('',(0.,-1.,9.89799997704443E-17));
#1356=DIRECTION('',(0.,-9.89799997704443E-17,-1.));
#1357=DIRECTION('',(0.,9.89799997704443E-17,1.));
#1358=DIRECTION('',(-1.,0.,0.));
#1359=DIRECTION('',(0.,2.95334918233975E-16,1.));
#1360=DIRECTION('',(0.,-1.,2.95334918233975E-16));
#1361=DIRECTION('',(0.,1.,-2.95334918233975E-16));
#1362=DIRECTION('',(-1.,0.,0.));
#1363=DIRECTION('',(0.,-1.,9.89799997704443E-17));
#1364=DIRECTION('',(0.,-9.89799997704443E-17,-1.));
#1365=DIRECTION('',(0.,9.89799997704443E-17,1.));
#1366=DIRECTION('',(0.,-1.,-8.53702498020082E-17));
#1367=DIRECTION('',(0.,8.53702498020082E-17,-1.));
#1368=DIRECTION('',(1.,0.,0.));
#1369=DIRECTION('',(1.,0.,0.));
#1370=DIRECTION('',(0.,0.,1.));
#1371=DIRECTION('',(1.,0.,0.));
#1372=DIRECTION('',(1.,0.,0.));
#1373=DIRECTION('',(1.,0.,0.));
#1374=DIRECTION('',(0.,1.,0.));
#1375=DIRECTION('',(1.,0.,0.));
#1376=DIRECTION('',(0.,-1.,-8.53702498020082E-17));
#1377=DIRECTION('',(0.,8.53702498020082E-17,-1.));
#1378=DIRECTION('',(1.,0.,0.));
#1379=DIRECTION('',(0.,0.,1.));
#1380=DIRECTION('',(1.,0.,0.));
#1381=DIRECTION('',(-0.707106781186547,0.707106781186548,0.));
#1382=DIRECTION('',(-0.707106781186548,-0.707106781186547,0.));
#1383=DIRECTION('',(-0.707106781186548,-0.707106781186547,0.));
#1384=DIRECTION('',(-0.707106781186548,-0.707106781186547,0.));
#1385=DIRECTION('',(0.,0.,1.));
#1386=DIRECTION('',(1.,0.,0.));
#1387=DIRECTION('',(-0.707106781186547,-0.707106781186548,0.));
#1388=DIRECTION('',(0.707106781186548,-0.707106781186547,0.));
#1389=DIRECTION('',(0.707106781186548,-0.707106781186547,0.));
#1390=DIRECTION('',(0.707106781186548,-0.707106781186547,0.));
#1391=DIRECTION('',(0.,0.,1.));
#1392=DIRECTION('',(1.,0.,0.));
#1393=DIRECTION('',(0.707106781186547,-0.707106781186548,0.));
#1394=DIRECTION('',(0.707106781186548,0.707106781186547,0.));
#1395=DIRECTION('',(0.707106781186548,0.707106781186547,0.));
#1396=DIRECTION('',(0.707106781186548,0.707106781186547,0.));
#1397=DIRECTION('',(0.,0.,1.));
#1398=DIRECTION('',(1.,0.,0.));
#1399=DIRECTION('',(0.707106781186547,0.707106781186548,0.));
#1400=DIRECTION('',(-0.707106781186548,0.707106781186547,0.));
#1401=DIRECTION('',(-0.707106781186548,0.707106781186547,0.));
#1402=DIRECTION('',(-0.707106781186548,0.707106781186547,0.));
#1403=DIRECTION('',(0.,0.,1.));
#1404=DIRECTION('',(1.,0.,0.));
#1405=DIRECTION('',(0.,0.,1.));
#1406=DIRECTION('',(1.,0.,0.));
#1407=DIRECTION('',(0.,0.,1.));
#1408=DIRECTION('',(1.,0.,0.));
#1409=DIRECTION('',(0.,0.,1.));
#1410=DIRECTION('',(1.,0.,0.));
#1411=DIRECTION('',(0.,0.,1.));
#1412=DIRECTION('',(1.,0.,0.));
#1413=DIRECTION('',(0.,1.,1.51769332981348E-15));
#1414=DIRECTION('',(0.,-1.51769332981348E-15,1.));
#1415=DIRECTION('',(1.,0.,0.));
#1416=DIRECTION('',(0.,-1.51769332981348E-15,1.));
#1417=DIRECTION('',(0.,-1.0927391974657E-15,1.));
#1418=DIRECTION('',(0.,-1.,-1.0927391974657E-15));
#1419=DIRECTION('',(1.,0.,0.));
#1420=DIRECTION('',(0.,-1.,-1.0927391974657E-15));
#1421=DIRECTION('',(0.,1.,4.710082747697E-16));
#1422=DIRECTION('',(0.,-4.710082747697E-16,1.));
#1423=DIRECTION('',(1.,0.,0.));
#1424=DIRECTION('',(0.,-4.710082747697E-16,1.));
#1425=DIRECTION('',(0.,-5.46369598732853E-16,1.));
#1426=DIRECTION('',(0.,-1.,-5.46369598732853E-16));
#1427=DIRECTION('',(1.,0.,0.));
#1428=DIRECTION('',(0.,-1.,-5.46369598732853E-16));
#1429=DIRECTION('',(0.,-1.,-3.7942333245337E-15));
#1430=DIRECTION('',(0.,3.7942333245337E-15,-1.));
#1431=DIRECTION('',(1.,0.,0.));
#1432=DIRECTION('',(0.,3.7942333245337E-15,-1.));
#1433=DIRECTION('',(0.,-9.26050167343817E-16,1.));
#1434=DIRECTION('',(0.,-1.,-9.26050167343817E-16));
#1435=DIRECTION('',(1.,0.,0.));
#1436=DIRECTION('',(0.,-1.,-9.26050167343817E-16));
#1437=DIRECTION('',(0.,1.,4.44202925799067E-16));
#1438=DIRECTION('',(0.,-4.44202925799067E-16,1.));
#1439=DIRECTION('',(0.,-4.44202925799067E-16,1.));
#1440=DIRECTION('',(-1.,0.,0.));
#1441=DIRECTION('',(0.,-1.,0.));
#1442=DIRECTION('',(-1.,0.,0.));
#1443=DIRECTION('',(0.,0.,1.));
#1444=DIRECTION('',(0.,1.,0.));
#1445=DIRECTION('',(0.,0.,-1.));
#1446=DIRECTION('',(0.,0.,-1.));
#1447=DIRECTION('',(0.,0.,-1.));
#1448=DIRECTION('',(0.,-1.,0.));
#1449=DIRECTION('',(0.,2.15956363135515E-16,1.));
#1450=DIRECTION('',(0.,-1.,0.));
#1451=DIRECTION('',(0.,1.,0.));
#1452=DIRECTION('',(0.,0.,1.));
#1453=DIRECTION('',(-1.,0.,0.));
#1454=DIRECTION('',(0.,0.,-1.));
#1455=DIRECTION('',(-1.,0.,0.));
#1456=DIRECTION('',(0.,0.,-1.));
#1457=DIRECTION('',(-1.,0.,0.));
#1458=DIRECTION('',(0.,-1.,0.));
#1459=DIRECTION('',(-1.,0.,0.));
#1460=DIRECTION('',(0.,-1.,2.15956363135515E-16));
#1461=DIRECTION('',(0.,-2.15956363135515E-16,-1.));
#1462=DIRECTION('',(0.,2.15956363135515E-16,1.));
#1463=DIRECTION('',(-1.,0.,0.));
#1464=DIRECTION('',(0.,0.,-1.));
#1465=DIRECTION('',(-1.,0.,0.));
#1466=DIRECTION('',(0.,-1.,0.));
#1467=DIRECTION('',(-1.,0.,0.));
#1468=DIRECTION('',(0.,-1.,0.));
#1469=DIRECTION('',(1.,0.,0.));
#1470=DIRECTION('',(0.,1.,0.));
#1471=DIRECTION('',(0.,-1.,0.));
#1472=DIRECTION('',(0.,0.,-1.));
#1473=DIRECTION('',(0.,-1.,-1.36592399683213E-16));
#1474=DIRECTION('',(0.,-1.,0.));
#1475=DIRECTION('',(0.,0.,-1.));
#1476=DIRECTION('',(1.,0.,0.));
#1477=DIRECTION('',(0.,0.,-1.));
#1478=DIRECTION('',(1.,0.,0.));
#1479=DIRECTION('',(0.,0.,1.));
#1480=DIRECTION('',(1.,0.,0.));
#1481=DIRECTION('',(1.,0.,0.));
#1482=DIRECTION('',(0.,-1.,0.));
#1483=DIRECTION('',(0.,-1.,-2.73184799366426E-16));
#1484=DIRECTION('',(0.,2.73184799366426E-16,-1.));
#1485=DIRECTION('',(1.,0.,0.));
#1486=DIRECTION('',(0.,2.73184799366426E-16,-1.));
#1487=DIRECTION('',(0.,-1.36592399683213E-16,1.));
#1488=DIRECTION('',(0.,-1.,-1.36592399683213E-16));
#1489=DIRECTION('',(0.,-1.,-1.36592399683213E-16));
#1490=DIRECTION('',(1.,0.,0.));
#1491=DIRECTION('',(0.,1.,0.));
#1492=DIRECTION('',(1.,9.26050167343818E-17,0.));
#1493=DIRECTION('',(-9.26050167343818E-17,1.,0.));
#1494=DIRECTION('',(-0.957024404433473,-0.290007395282871,0.));
#1495=DIRECTION('',(-0.290007395282871,0.957024404433474,0.));
#1496=DIRECTION('',(-0.957024404433473,0.290007395282871,0.));
#1497=DIRECTION('',(-0.290007395282871,-0.957024404433474,0.));
#1498=DIRECTION('',(0.,1.,0.));
#1499=DIRECTION('',(0.,0.,1.));
#1500=DIRECTION('',(0.290007395282871,-0.957024404433474,0.));
#1501=DIRECTION('',(-0.957024404433474,-0.290007395282871,0.));
#1502=DIRECTION('',(-0.290007395282871,-0.957024404433473,0.));
#1503=DIRECTION('',(-0.957024404433474,0.290007395282871,0.));
#1504=DIRECTION('',(0.,-1.,0.));
#1505=DIRECTION('',(0.,0.,-1.));
#1506=DIRECTION('',(-0.290007395282871,0.957024404433473,0.));
#1507=DIRECTION('',(-0.957024404433474,-0.290007395282871,0.));
#1508=DIRECTION('',(0.290007395282871,0.957024404433474,0.));
#1509=DIRECTION('',(-0.957024404433474,0.290007395282871,0.));
#1510=DIRECTION('',(-1.,-1.85210033468763E-16,0.));
#1511=DIRECTION('',(1.85210033468763E-16,-1.,0.));
#1512=DIRECTION('',(0.957024404433474,-0.290007395282871,0.));
#1513=DIRECTION('',(-0.290007395282871,-0.957024404433474,0.));
#1514=DIRECTION('',(0.957024404433474,0.290007395282871,0.));
#1515=DIRECTION('',(-0.290007395282871,0.957024404433474,0.));
#1516=DIRECTION('',(0.,0.,-1.));
#1517=DIRECTION('',(-1.,0.,0.));
#1518=DIRECTION('',(0.,0.,-1.));
#1519=DIRECTION('',(-1.,0.,0.));
#1520=DIRECTION('',(0.,0.,1.));
#1521=DIRECTION('',(1.,0.,0.));
#1522=DIRECTION('',(0.,0.,-1.));
#1523=DIRECTION('',(-1.,0.,0.));
#1524=DIRECTION('',(0.,0.,-1.));
#1525=DIRECTION('',(-1.,0.,0.));
#1526=DIRECTION('',(0.,0.,-1.));
#1527=DIRECTION('',(-1.,0.,0.));
#1528=DIRECTION('',(0.,0.,1.));
#1529=DIRECTION('',(1.,0.,0.));
#1530=DIRECTION('',(0.,0.,-1.));
#1531=DIRECTION('',(-1.,0.,0.));
#1532=CARTESIAN_POINT('',(0.,0.,0.));
#1533=CARTESIAN_POINT('',(-0.03429,-6.93889390390723E-18,0.04953));
#1534=CARTESIAN_POINT('',(-0.03429,-1.95414255347874E-17,0.006858));
#1535=CARTESIAN_POINT('',(-0.03429,-0.020955,0.006858));
#1536=CARTESIAN_POINT('',(-0.03429,0.026035,0.006858));
#1537=CARTESIAN_POINT('',(-0.03429,-0.020955,0.04953));
#1538=CARTESIAN_POINT('',(-0.03429,-0.020955,0.04191));
#1539=CARTESIAN_POINT('',(-0.03429,-9.18934598085011E-18,0.04191));
#1540=CARTESIAN_POINT('',(-0.03429,0.026035,0.04191));
#1541=CARTESIAN_POINT('',(-0.03429,0.026035,0.04953));
#1542=CARTESIAN_POINT('',(-0.03429,0.0330021690651664,0.044958));
#1543=CARTESIAN_POINT('',(-0.03429,0.03556,0.044958));
#1544=CARTESIAN_POINT('',(-0.03429,0.0298271690651664,0.044958));
#1545=CARTESIAN_POINT('',(-0.03429,0.03556,0.04953));
#1546=CARTESIAN_POINT('',(-0.03429,0.03556,0.04572));
#1547=CARTESIAN_POINT('',(-0.03429,-6.93889390390723E-18,0.04572));
#1548=CARTESIAN_POINT('',(-0.03429,0.03048,0.04572));
#1549=CARTESIAN_POINT('',(-0.03429,0.03048,0.04572));
#1550=CARTESIAN_POINT('',(-0.03429,0.03048,0.04826));
#1551=CARTESIAN_POINT('',(-0.03429,-6.93889390390723E-18,0.04826));
#1552=CARTESIAN_POINT('',(-0.03429,0.03556,0.04826));
#1553=CARTESIAN_POINT('',(-0.03429,0.03556,0.04826));
#1554=CARTESIAN_POINT('',(-0.03429,0.03556,0.04953));
#1555=CARTESIAN_POINT('',(-0.03429,-6.93889390390723E-18,0.04953));
#1556=CARTESIAN_POINT('',(-0.03429,-0.03556,0.04953));
#1557=CARTESIAN_POINT('',(-0.03429,-0.03556,0.04826));
#1558=CARTESIAN_POINT('',(-0.03429,-0.03556,0.04826));
#1559=CARTESIAN_POINT('',(-0.03429,-6.93889390390723E-18,0.04826));
#1560=CARTESIAN_POINT('',(-0.03429,-0.03048,0.04826));
#1561=CARTESIAN_POINT('',(-0.03429,-0.03048,0.04572));
#1562=CARTESIAN_POINT('',(-0.03429,-0.03048,0.04572));
#1563=CARTESIAN_POINT('',(-0.03429,-6.93889390390723E-18,0.04572));
#1564=CARTESIAN_POINT('',(-0.03429,-0.03556,0.04572));
#1565=CARTESIAN_POINT('',(-0.03429,-0.03556,0.04953));
#1566=CARTESIAN_POINT('',(-0.03429,-0.03556,0.003175));
#1567=CARTESIAN_POINT('',(-0.03429,-6.93889390390723E-18,0.003175));
#1568=CARTESIAN_POINT('',(-0.03429,0.03556,0.003175));
#1569=CARTESIAN_POINT('',(-0.03429,0.03556,0.04953));
#1570=CARTESIAN_POINT('',(-0.03429,0.03556,0.006858));
#1571=CARTESIAN_POINT('',(-0.03429,0.0330021690651664,0.006858));
#1572=CARTESIAN_POINT('',(-0.03429,0.0298271690651664,0.006858));
#1573=CARTESIAN_POINT('',(-0.03429,0.0298271690651664,0.025908));
#1574=CARTESIAN_POINT('',(0.03429,6.93889390390723E-18,0.04953));
#1575=CARTESIAN_POINT('',(0.03429,-0.03556,0.04953));
#1576=CARTESIAN_POINT('',(0.03429,-0.03556,0.04572));
#1577=CARTESIAN_POINT('',(0.03429,-0.03556,0.003175));
#1578=CARTESIAN_POINT('',(0.03429,6.93889390390723E-18,0.04572));
#1579=CARTESIAN_POINT('',(0.03429,-0.03048,0.04572));
#1580=CARTESIAN_POINT('',(0.03429,-0.03048,0.04572));
#1581=CARTESIAN_POINT('',(0.03429,-0.03048,0.04826));
#1582=CARTESIAN_POINT('',(0.03429,6.93889390390723E-18,0.04826));
#1583=CARTESIAN_POINT('',(0.03429,-0.03556,0.04826));
#1584=CARTESIAN_POINT('',(0.03429,-0.03556,0.04826));
#1585=CARTESIAN_POINT('',(0.03429,-0.03556,0.04953));
#1586=CARTESIAN_POINT('',(0.03429,6.93889390390723E-18,0.04953));
#1587=CARTESIAN_POINT('',(0.03429,0.03556,0.04953));
#1588=CARTESIAN_POINT('',(0.03429,0.03556,0.04826));
#1589=CARTESIAN_POINT('',(0.03429,0.03556,0.04826));
#1590=CARTESIAN_POINT('',(0.03429,6.93889390390723E-18,0.04826));
#1591=CARTESIAN_POINT('',(0.03429,0.03048,0.04826));
#1592=CARTESIAN_POINT('',(0.03429,0.03048,0.04572));
#1593=CARTESIAN_POINT('',(0.03429,0.03048,0.04572));
#1594=CARTESIAN_POINT('',(0.03429,6.93889390390723E-18,0.04572));
#1595=CARTESIAN_POINT('',(0.03429,0.03556,0.04572));
#1596=CARTESIAN_POINT('',(0.03429,0.03556,0.04953));
#1597=CARTESIAN_POINT('',(0.03429,0.03556,0.003175));
#1598=CARTESIAN_POINT('',(0.03429,6.93889390390723E-18,0.003175));
#1599=CARTESIAN_POINT('',(0.03429,6.93889390390723E-18,0.02667));
#1600=CARTESIAN_POINT('',(0.03429,0.007366,0.02667));
#1601=CARTESIAN_POINT('',(0.03429,0.00762,0.02667));
#1602=CARTESIAN_POINT('',(0.03429,0.007366,0.0344805));
#1603=CARTESIAN_POINT('',(0.03429,0.007366,0.042291));
#1604=CARTESIAN_POINT('',(0.03429,-0.000127000000000002,0.042291));
#1605=CARTESIAN_POINT('',(0.03429,-0.00762,0.042291));
#1606=CARTESIAN_POINT('',(0.03429,-0.00762,0.041148));
#1607=CARTESIAN_POINT('',(0.03429,-0.00762,0.040005));
#1608=CARTESIAN_POINT('',(0.03429,-0.00127,0.040005));
#1609=CARTESIAN_POINT('',(0.03429,0.00508,0.040005));
#1610=CARTESIAN_POINT('',(0.03429,0.00508,0.0344805));
#1611=CARTESIAN_POINT('',(0.03429,0.00508,0.028956));
#1612=CARTESIAN_POINT('',(0.03429,-0.00127,0.028956));
#1613=CARTESIAN_POINT('',(0.03429,-0.00762,0.028956));
#1614=CARTESIAN_POINT('',(0.03429,-0.00762,0.027813));
#1615=CARTESIAN_POINT('',(0.03429,-0.00762,0.02667));
#1616=CARTESIAN_POINT('',(0.03429,-0.00762,0.04953));
#1617=CARTESIAN_POINT('',(0.03429,-0.00762,0.01651));
#1618=CARTESIAN_POINT('',(0.03429,6.93889390390723E-18,0.01651));
#1619=CARTESIAN_POINT('',(0.03429,0.00762,0.01651));
#1620=CARTESIAN_POINT('',(0.03429,0.00762,0.04953));
#1621=CARTESIAN_POINT('',(0.,0.,0.04953));
#1622=CARTESIAN_POINT('',(0.037465,6.93889390390723E-18,0.04953));
#1623=CARTESIAN_POINT('',(0.037465,-0.032893,0.04953));
#1624=CARTESIAN_POINT('',(0.037465,0.032893,0.04953));
#1625=CARTESIAN_POINT('',(0.031623,0.032893,0.04953));
#1626=CARTESIAN_POINT('',(0.031623,0.038735,0.04953));
#1627=CARTESIAN_POINT('',(0.,0.038735,0.04953));
#1628=CARTESIAN_POINT('',(-0.034163,0.038735,0.04953));
#1629=CARTESIAN_POINT('',(-0.034163,0.032893,0.04953));
#1630=CARTESIAN_POINT('',(-0.040005,0.032893,0.04953));
#1631=CARTESIAN_POINT('',(-0.040005,-6.93889390390723E-18,0.04953));
#1632=CARTESIAN_POINT('',(-0.040005,-0.032893,0.04953));
#1633=CARTESIAN_POINT('',(-0.034163,-0.032893,0.04953));
#1634=CARTESIAN_POINT('',(-0.034163,-0.038735,0.04953));
#1635=CARTESIAN_POINT('',(0.,-0.038735,0.04953));
#1636=CARTESIAN_POINT('',(0.031623,-0.038735,0.04953));
#1637=CARTESIAN_POINT('',(0.031623,-0.032893,0.04953));
#1638=CARTESIAN_POINT('',(0.,-0.03556,0.04953));
#1639=CARTESIAN_POINT('',(0.,0.03556,0.04953));
#1640=CARTESIAN_POINT('',(0.,0.03556,0.04953));
#1641=CARTESIAN_POINT('',(0.,0.03556,0.04572));
#1642=CARTESIAN_POINT('',(0.02921,0.03556,0.04572));
#1643=CARTESIAN_POINT('',(0.02921,0.03556,0.04572));
#1644=CARTESIAN_POINT('',(0.02921,0.03556,0.04826));
#1645=CARTESIAN_POINT('',(0.,0.03556,0.04826));
#1646=CARTESIAN_POINT('',(0.,0.03556,0.04826));
#1647=CARTESIAN_POINT('',(-0.02921,0.03556,0.04826));
#1648=CARTESIAN_POINT('',(-0.02921,0.03556,0.04572));
#1649=CARTESIAN_POINT('',(-0.02921,0.03556,0.04572));
#1650=CARTESIAN_POINT('',(0.,0.03556,0.04572));
#1651=CARTESIAN_POINT('',(-0.03429,0.03556,0.04953));
#1652=CARTESIAN_POINT('',(0.,0.03556,0.003175));
#1653=CARTESIAN_POINT('',(0.,-0.03556,0.04953));
#1654=CARTESIAN_POINT('',(0.,-0.03556,0.04572));
#1655=CARTESIAN_POINT('',(-0.02921,-0.03556,0.04572));
#1656=CARTESIAN_POINT('',(-0.02921,-0.03556,0.04572));
#1657=CARTESIAN_POINT('',(-0.02921,-0.03556,0.04826));
#1658=CARTESIAN_POINT('',(0.,-0.03556,0.04826));
#1659=CARTESIAN_POINT('',(0.,-0.03556,0.04826));
#1660=CARTESIAN_POINT('',(0.02921,-0.03556,0.04826));
#1661=CARTESIAN_POINT('',(0.02921,-0.03556,0.04572));
#1662=CARTESIAN_POINT('',(0.02921,-0.03556,0.04572));
#1663=CARTESIAN_POINT('',(0.,-0.03556,0.04572));
#1664=CARTESIAN_POINT('',(0.,-0.03556,0.003175));
#1665=CARTESIAN_POINT('',(0.037465,6.93889390390723E-18,0.04953));
#1666=CARTESIAN_POINT('',(0.037465,6.93889390390723E-18,0.008382));
#1667=CARTESIAN_POINT('',(0.037465,-0.032893,0.008382));
#1668=CARTESIAN_POINT('',(0.037465,0.032893,0.008382));
#1669=CARTESIAN_POINT('',(0.037465,0.032893,0.04953));
#1670=CARTESIAN_POINT('',(0.037465,-0.032893,0.008382));
#1671=CARTESIAN_POINT('',(0.037465,0.00762,0.02159));
#1672=CARTESIAN_POINT('',(0.037465,0.00762,0.02667));
#1673=CARTESIAN_POINT('',(0.037465,0.00762,0.01651));
#1674=CARTESIAN_POINT('',(0.037465,5.20417042793042E-18,0.01651));
#1675=CARTESIAN_POINT('',(0.037465,-0.00762,0.01651));
#1676=CARTESIAN_POINT('',(0.037465,-0.00762,0.02159));
#1677=CARTESIAN_POINT('',(0.037465,-0.00762,0.02667));
#1678=CARTESIAN_POINT('',(0.037465,5.20417042793042E-18,0.02667));
#1679=CARTESIAN_POINT('',(0.,-0.038735,0.04953));
#1680=CARTESIAN_POINT('',(0.037465,-0.038735,0.008382));
#1681=CARTESIAN_POINT('',(-0.034163,-0.038735,0.008382));
#1682=CARTESIAN_POINT('',(0.031623,-0.038735,0.008382));
#1683=CARTESIAN_POINT('',(0.031623,-0.038735,0.04953));
#1684=CARTESIAN_POINT('',(-0.034163,-0.038735,0.04953));
#1685=CARTESIAN_POINT('',(0.,0.038735,0.04953));
#1686=CARTESIAN_POINT('',(0.031623,0.038735,0.04953));
#1687=CARTESIAN_POINT('',(0.031623,0.038735,0.008382));
#1688=CARTESIAN_POINT('',(0.,0.038735,0.008382));
#1689=CARTESIAN_POINT('',(-0.034163,0.038735,0.008382));
#1690=CARTESIAN_POINT('',(-0.034163,0.038735,0.04953));
#1691=CARTESIAN_POINT('',(0.,0.,0.));
#1692=CARTESIAN_POINT('',(-0.040005,-0.030353,0.));
#1693=CARTESIAN_POINT('',(0.029083,-0.030353,0.));
#1694=CARTESIAN_POINT('',(-0.031623,-0.030353,0.));
#1695=CARTESIAN_POINT('',(-0.031623,0.038735,0.));
#1696=CARTESIAN_POINT('',(-0.031623,0.030353,0.));
#1697=CARTESIAN_POINT('',(-5.62168014587738E-18,0.030353,0.));
#1698=CARTESIAN_POINT('',(0.029083,0.030353,0.));
#1699=CARTESIAN_POINT('',(0.029083,0.,0.));
#1700=CARTESIAN_POINT('',(0.,0.,0.003175));
#1701=CARTESIAN_POINT('',(-0.012065,0.00254,0.006858));
#1702=CARTESIAN_POINT('',(-0.037465,0.00254,0.006858));
#1703=CARTESIAN_POINT('',(-0.037465,-0.020955,0.006858));
#1704=CARTESIAN_POINT('',(-0.037465,0.026035,0.006858));
#1705=CARTESIAN_POINT('',(-0.012065,-0.020955,0.006858));
#1706=CARTESIAN_POINT('',(-0.012065,0.026035,0.006858));
#1707=CARTESIAN_POINT('',(-0.012065,-0.020955,0.024384));
#1708=CARTESIAN_POINT('',(-0.037465,-0.020955,0.024384));
#1709=CARTESIAN_POINT('',(-0.037465,-0.020955,0.04191));
#1710=CARTESIAN_POINT('',(-0.012065,-0.020955,0.04191));
#1711=CARTESIAN_POINT('',(-0.012065,0.00254,0.04191));
#1712=CARTESIAN_POINT('',(-0.037465,0.00254,0.04191));
#1713=CARTESIAN_POINT('',(-0.037465,0.026035,0.04191));
#1714=CARTESIAN_POINT('',(-0.012065,0.026035,0.04191));
#1715=CARTESIAN_POINT('',(-0.012065,0.026035,0.024384));
#1716=CARTESIAN_POINT('',(-0.037465,0.026035,0.024384));
#1717=CARTESIAN_POINT('',(0.012065,0.00762,0.02159));
#1718=CARTESIAN_POINT('',(0.012065,0.00762,0.01651));
#1719=CARTESIAN_POINT('',(0.012065,0.00762,0.02667));
#1720=CARTESIAN_POINT('',(0.012065,5.20417042793042E-18,0.02667));
#1721=CARTESIAN_POINT('',(0.012065,-0.00762,0.02667));
#1722=CARTESIAN_POINT('',(0.03175,-0.00762,0.02667));
#1723=CARTESIAN_POINT('',(0.03175,-0.00762,0.02667));
#1724=CARTESIAN_POINT('',(0.03175,6.93889390390723E-18,0.02667));
#1725=CARTESIAN_POINT('',(0.03175,0.007366,0.02667));
#1726=CARTESIAN_POINT('',(0.03175,0.007366,0.02667));
#1727=CARTESIAN_POINT('',(0.012065,-0.00762,0.02159));
#1728=CARTESIAN_POINT('',(0.012065,-0.00762,0.01651));
#1729=CARTESIAN_POINT('',(0.012065,5.20417042793042E-18,0.01651));
#1730=CARTESIAN_POINT('',(0.03175,-0.03302,0.04572));
#1731=CARTESIAN_POINT('',(0.03175,-0.03302,0.04826));
#1732=CARTESIAN_POINT('',(0.03175,-0.03302,0.04572));
#1733=CARTESIAN_POINT('',(0.,0.,0.04572));
#1734=CARTESIAN_POINT('',(-0.03175,-0.03302,0.04572));
#1735=CARTESIAN_POINT('',(-0.03175,-0.03302,0.04826));
#1736=CARTESIAN_POINT('',(-0.03175,-0.03302,0.04572));
#1737=CARTESIAN_POINT('',(0.,0.,0.04572));
#1738=CARTESIAN_POINT('',(-0.03175,0.03302,0.04572));
#1739=CARTESIAN_POINT('',(-0.03175,0.03302,0.04826));
#1740=CARTESIAN_POINT('',(-0.03175,0.03302,0.04572));
#1741=CARTESIAN_POINT('',(0.,0.,0.04572));
#1742=CARTESIAN_POINT('',(0.03175,0.03302,0.04572));
#1743=CARTESIAN_POINT('',(0.03175,0.03302,0.04826));
#1744=CARTESIAN_POINT('',(0.03175,0.03302,0.04572));
#1745=CARTESIAN_POINT('',(0.,0.,0.04572));
#1746=CARTESIAN_POINT('',(0.,0.,0.04826));
#1747=CARTESIAN_POINT('',(0.,0.,0.04826));
#1748=CARTESIAN_POINT('',(0.,0.,0.04826));
#1749=CARTESIAN_POINT('',(0.,0.,0.04826));
#1750=CARTESIAN_POINT('',(0.03175,-0.00762,0.027813));
#1751=CARTESIAN_POINT('',(0.03175,-0.00762,0.028956));
#1752=CARTESIAN_POINT('',(0.03175,-0.00762,0.028956));
#1753=CARTESIAN_POINT('',(0.03175,-0.00762,0.027813));
#1754=CARTESIAN_POINT('',(0.03175,-0.00127,0.028956));
#1755=CARTESIAN_POINT('',(0.03175,0.00508,0.028956));
#1756=CARTESIAN_POINT('',(0.03175,0.00508,0.028956));
#1757=CARTESIAN_POINT('',(0.03175,-0.00127,0.028956));
#1758=CARTESIAN_POINT('',(0.03175,0.00508,0.0344805));
#1759=CARTESIAN_POINT('',(0.03175,0.00508,0.040005));
#1760=CARTESIAN_POINT('',(0.03175,0.00508,0.040005));
#1761=CARTESIAN_POINT('',(0.03175,0.00508,0.0344805));
#1762=CARTESIAN_POINT('',(0.03175,-0.00127,0.040005));
#1763=CARTESIAN_POINT('',(0.03175,-0.00762,0.040005));
#1764=CARTESIAN_POINT('',(0.03175,-0.00762,0.040005));
#1765=CARTESIAN_POINT('',(0.03175,-0.00127,0.040005));
#1766=CARTESIAN_POINT('',(0.03175,-0.00762,0.041148));
#1767=CARTESIAN_POINT('',(0.03175,-0.00762,0.042291));
#1768=CARTESIAN_POINT('',(0.03175,-0.00762,0.042291));
#1769=CARTESIAN_POINT('',(0.03175,-0.00762,0.041148));
#1770=CARTESIAN_POINT('',(0.03175,-0.000127000000000002,0.042291));
#1771=CARTESIAN_POINT('',(0.03175,0.007366,0.042291));
#1772=CARTESIAN_POINT('',(0.03175,0.007366,0.042291));
#1773=CARTESIAN_POINT('',(0.03175,-0.000127000000000002,0.042291));
#1774=CARTESIAN_POINT('',(0.03175,0.007366,0.0344805));
#1775=CARTESIAN_POINT('',(0.03175,0.007366,0.0344805));
#1776=CARTESIAN_POINT('',(0.03175,0.,0.0263525));
#1777=CARTESIAN_POINT('',(-0.040005,-6.93889390390723E-18,0.04953));
#1778=CARTESIAN_POINT('',(-0.040005,-0.038735,0.008382));
#1779=CARTESIAN_POINT('',(-0.040005,0.032893,0.008382));
#1780=CARTESIAN_POINT('',(-0.040005,-0.032893,0.008382));
#1781=CARTESIAN_POINT('',(-0.040005,-0.032893,0.04953));
#1782=CARTESIAN_POINT('',(-0.040005,0.032893,0.008382));
#1783=CARTESIAN_POINT('',(-0.040005,0.0184912,0.0245745));
#1784=CARTESIAN_POINT('',(-0.040005,0.0184912,0.04064));
#1785=CARTESIAN_POINT('',(-0.040005,0.0184912,0.008509));
#1786=CARTESIAN_POINT('',(-0.040005,-0.000596900000000011,0.04064));
#1787=CARTESIAN_POINT('',(-0.040005,-0.019685,0.04064));
#1788=CARTESIAN_POINT('',(-0.040005,-0.019685,0.0245745));
#1789=CARTESIAN_POINT('',(-0.040005,-0.019685,0.008509));
#1790=CARTESIAN_POINT('',(-0.040005,-0.000596900000000011,0.008509));
#1791=CARTESIAN_POINT('',(-0.037465,0.0184912,0.0245745));
#1792=CARTESIAN_POINT('',(-0.037465,0.0184912,0.008509));
#1793=CARTESIAN_POINT('',(-0.037465,0.0184912,0.008509));
#1794=CARTESIAN_POINT('',(-0.037465,0.0184912,0.0245745));
#1795=CARTESIAN_POINT('',(-0.037465,0.0184912,0.04064));
#1796=CARTESIAN_POINT('',(-0.037465,0.0184912,0.04064));
#1797=CARTESIAN_POINT('',(-0.037465,-0.000596900000000011,0.04064));
#1798=CARTESIAN_POINT('',(-0.037465,-0.000596900000000011,0.04064));
#1799=CARTESIAN_POINT('',(-0.037465,-0.019685,0.04064));
#1800=CARTESIAN_POINT('',(-0.037465,-0.019685,0.04064));
#1801=CARTESIAN_POINT('',(-0.037465,-0.019685,0.0245745));
#1802=CARTESIAN_POINT('',(-0.037465,-0.019685,0.0245745));
#1803=CARTESIAN_POINT('',(-0.037465,-0.019685,0.008509));
#1804=CARTESIAN_POINT('',(-0.037465,-0.019685,0.008509));
#1805=CARTESIAN_POINT('',(-0.037465,-0.000596900000000011,0.008509));
#1806=CARTESIAN_POINT('',(-0.037465,-0.000596900000000011,0.008509));
#1807=CARTESIAN_POINT('',(-0.037465,-6.93889390390723E-18,0.024765));
#1808=CARTESIAN_POINT('',(-0.03429,0.000308584532583207,0.0263525));
#1809=CARTESIAN_POINT('',(-0.03429,0.0330021690651664,0.044958));
#1810=CARTESIAN_POINT('',(-0.03429,0.0361771690651665,0.044958));
#1811=CARTESIAN_POINT('',(-0.03429,0.0361771690651665,0.025908));
#1812=CARTESIAN_POINT('',(-0.03429,0.0361771690651665,0.006858));
#1813=CARTESIAN_POINT('',(-0.03429,0.0330021690651664,0.006858));
#1814=CARTESIAN_POINT('',(-0.035814,0.0361771690651665,0.025908));
#1815=CARTESIAN_POINT('',(-0.035814,0.0361771690651665,0.044958));
#1816=CARTESIAN_POINT('',(-0.035814,0.0361771690651665,0.044958));
#1817=CARTESIAN_POINT('',(-0.035814,0.0361771690651665,0.025908));
#1818=CARTESIAN_POINT('',(-0.035814,0.0361771690651665,0.006858));
#1819=CARTESIAN_POINT('',(-0.035814,0.0361771690651665,0.006858));
#1820=CARTESIAN_POINT('',(-0.035814,0.0330021690651664,0.044958));
#1821=CARTESIAN_POINT('',(-0.035814,0.0298271690651664,0.044958));
#1822=CARTESIAN_POINT('',(-0.035814,0.0298271690651664,0.044958));
#1823=CARTESIAN_POINT('',(-0.035814,0.0330021690651664,0.044958));
#1824=CARTESIAN_POINT('',(-0.035814,0.0298271690651664,0.025908));
#1825=CARTESIAN_POINT('',(-0.035814,0.0298271690651664,0.006858));
#1826=CARTESIAN_POINT('',(-0.035814,0.0298271690651664,0.006858));
#1827=CARTESIAN_POINT('',(-0.035814,0.0298271690651664,0.025908));
#1828=CARTESIAN_POINT('',(-0.035814,0.0330021690651664,0.006858));
#1829=CARTESIAN_POINT('',(-0.035814,0.0330021690651664,0.006858));
#1830=CARTESIAN_POINT('',(-0.035814,0.000308584532583207,0.0263525));
#1831=CARTESIAN_POINT('',(2.81084007293869E-18,-0.030353,0.008382));
#1832=CARTESIAN_POINT('',(0.029083,-0.030353,0.008382));
#1833=CARTESIAN_POINT('',(-0.031623,-0.030353,0.008382));
#1834=CARTESIAN_POINT('',(0.029083,6.93889390390723E-18,0.008382));
#1835=CARTESIAN_POINT('',(0.029083,0.030353,0.008382));
#1836=CARTESIAN_POINT('',(0.029083,-0.030353,0.008382));
#1837=CARTESIAN_POINT('',(-0.031623,0.,0.008382));
#1838=CARTESIAN_POINT('',(-0.031623,-0.030353,0.008382));
#1839=CARTESIAN_POINT('',(-0.031623,0.030353,0.008382));
#1840=CARTESIAN_POINT('',(1.55243050053517E-18,0.030353,0.008382));
#1841=CARTESIAN_POINT('',(0.029083,0.030353,0.008382));
#1842=CARTESIAN_POINT('',(-0.031623,0.030353,0.008382));
#1843=CARTESIAN_POINT('',(0.031623,0.032893,0.04953));
#1844=CARTESIAN_POINT('',(0.031623,0.032893,0.008382));
#1845=CARTESIAN_POINT('',(0.037465,0.032893,0.008382));
#1846=CARTESIAN_POINT('',(0.037465,0.038735,0.008382));
#1847=CARTESIAN_POINT('',(0.031623,0.038735,0.008382));
#1848=CARTESIAN_POINT('',(0.037465,0.032892999999996,0.00783339935452186));
#1849=CARTESIAN_POINT('',(0.0374649999998518,0.0387349999998531,0.00745104123612918));
#1850=CARTESIAN_POINT('',(0.031622999999996,0.038735,0.00783339935452186));
#1851=CARTESIAN_POINT('',(0.0373569314077832,0.0328602519417544,0.00673621957338459));
#1852=CARTESIAN_POINT('',(0.0372044628868344,0.0384744628868338,0.0056271206954681));
#1853=CARTESIAN_POINT('',(0.0315902519417544,0.0386269314077832,0.00673621957338458));
#1854=CARTESIAN_POINT('',(0.0368768933947981,0.0327147858772111,0.00515364998653609));
#1855=CARTESIAN_POINT('',(0.0362046458461042,0.0374746458461043,0.00342701742644316));
#1856=CARTESIAN_POINT('',(0.031444785877211,0.0381468933947981,0.00515364998653608));
#1857=CARTESIAN_POINT('',(0.0360972444620819,0.0324785286248735,0.00369526529996601));
#1858=CARTESIAN_POINT('',(0.0349407751992319,0.0362107751992318,0.00194220126245241));
#1859=CARTESIAN_POINT('',(0.0312085286248735,0.0373672444620819,0.003695265299966));
#1860=CARTESIAN_POINT('',(0.0346987831776977,0.0320547524780902,0.00199031243944874));
#1861=CARTESIAN_POINT('',(0.0332573501359991,0.0345273501359991,0.000756070091973677));
#1862=CARTESIAN_POINT('',(0.0307847524780902,0.0359687831776979,0.00199031243944873));
#1863=CARTESIAN_POINT('',(0.0323742646888955,0.0313503529360288,0.000436325946546636));
#1864=CARTESIAN_POINT('',(0.0312835281550333,0.0325535281550336,0.000130062513602389));
#1865=CARTESIAN_POINT('',(0.0300803529360288,0.0336442646888939,0.000436325946546631));
#1866=CARTESIAN_POINT('',(0.0301802012626085,0.0306854852310938,-4.9681404859054E-18));
#1867=CARTESIAN_POINT('',(0.0297978432152179,0.0310678432152175,2.13139216913272E-7));
#1868=CARTESIAN_POINT('',(0.0294154852310938,0.0314502012626118,-7.29492570133925E-18));
#1869=CARTESIAN_POINT('',(0.029083,0.030353,-3.46944695195361E-18));
#1870=CARTESIAN_POINT('',(0.029083,0.030353,-3.46944695195361E-18));
#1871=CARTESIAN_POINT('',(0.029083,0.030353,-3.46944695195361E-18));
#1872=CARTESIAN_POINT('',(0.031623,-0.032893,0.04953));
#1873=CARTESIAN_POINT('',(0.031623,-0.032893,0.008382));
#1874=CARTESIAN_POINT('',(0.031623,-0.038735,0.008382));
#1875=CARTESIAN_POINT('',(0.037465,-0.038735,0.008382));
#1876=CARTESIAN_POINT('',(0.037465,-0.032893,0.008382));
#1877=CARTESIAN_POINT('',(0.031622999999996,-0.038735,0.00783339935452186));
#1878=CARTESIAN_POINT('',(0.0374649999998518,-0.0387349999998531,0.00745104123612918));
#1879=CARTESIAN_POINT('',(0.037465,-0.032892999999996,0.00783339935452186));
#1880=CARTESIAN_POINT('',(0.0315902519417544,-0.0386269314077832,0.00673621957338459));
#1881=CARTESIAN_POINT('',(0.0372044628868344,-0.0384744628868338,0.0056271206954681));
#1882=CARTESIAN_POINT('',(0.0373569314077832,-0.0328602519417544,0.00673621957338459));
#1883=CARTESIAN_POINT('',(0.031444785877211,-0.0381468933947981,0.00515364998653609));
#1884=CARTESIAN_POINT('',(0.0362046458461042,-0.0374746458461043,0.00342701742644316));
#1885=CARTESIAN_POINT('',(0.0368768933947981,-0.0327147858772111,0.00515364998653609));
#1886=CARTESIAN_POINT('',(0.0312085286248735,-0.0373672444620819,0.00369526529996601));
#1887=CARTESIAN_POINT('',(0.0349407751992318,-0.0362107751992318,0.00194220126245242));
#1888=CARTESIAN_POINT('',(0.0360972444620819,-0.0324785286248735,0.00369526529996601));
#1889=CARTESIAN_POINT('',(0.0307847524780902,-0.0359687831776979,0.00199031243944874));
#1890=CARTESIAN_POINT('',(0.0332573501359992,-0.0345273501359991,0.000756070091973673));
#1891=CARTESIAN_POINT('',(0.0346987831776977,-0.0320547524780902,0.00199031243944874));
#1892=CARTESIAN_POINT('',(0.0300803529360288,-0.0336442646888943,0.000436325946546638));
#1893=CARTESIAN_POINT('',(0.0312835281550334,-0.0325535281550336,0.000130062513602397));
#1894=CARTESIAN_POINT('',(0.0323742646888955,-0.0313503529360288,0.000436325946546636));
#1895=CARTESIAN_POINT('',(0.0294154852310938,-0.031450201262611,-3.80474787819467E-18));
#1896=CARTESIAN_POINT('',(0.0297978432152179,-0.0310678432152175,2.13139216913272E-7));
#1897=CARTESIAN_POINT('',(0.0301802012626085,-0.0306854852310938,-4.9681404859054E-18));
#1898=CARTESIAN_POINT('',(0.029083,-0.030353,-3.46944695195361E-18));
#1899=CARTESIAN_POINT('',(0.029083,-0.030353,-3.46944695195361E-18));
#1900=CARTESIAN_POINT('',(0.029083,-0.030353,-3.46944695195361E-18));
#1901=CARTESIAN_POINT('',(-0.034163,-0.032893,0.04953));
#1902=CARTESIAN_POINT('',(-0.034163,-0.032893,0.008382));
#1903=CARTESIAN_POINT('',(-0.040005,-0.032893,0.008382));
#1904=CARTESIAN_POINT('',(-0.040005,-0.038735,0.008382));
#1905=CARTESIAN_POINT('',(-0.034163,-0.038735,0.008382));
#1906=CARTESIAN_POINT('',(-0.040005,-0.032892999999996,0.00783339935452297));
#1907=CARTESIAN_POINT('',(-0.0400049999998544,-0.0387349999998531,0.00745104123613119));
#1908=CARTESIAN_POINT('',(-0.0341629999999977,-0.038735,0.00783339935452297));
#1909=CARTESIAN_POINT('',(-0.0398969314077832,-0.0328602519417544,0.00673621957338406));
#1910=CARTESIAN_POINT('',(-0.0397444628868332,-0.0384744628868338,0.00562712069546717));
#1911=CARTESIAN_POINT('',(-0.0341302519417535,-0.0386269314077832,0.00673621957338406));
#1912=CARTESIAN_POINT('',(-0.0394168933947981,-0.0327147858772111,0.00515364998653624));
#1913=CARTESIAN_POINT('',(-0.0387446458461045,-0.0374746458461043,0.00342701742644341));
#1914=CARTESIAN_POINT('',(-0.0339847858772113,-0.0381468933947981,0.00515364998653623));
#1915=CARTESIAN_POINT('',(-0.0386372444620819,-0.0324785286248734,0.00369526529996595));
#1916=CARTESIAN_POINT('',(-0.0374807751992318,-0.0362107751992318,0.00194220126245234));
#1917=CARTESIAN_POINT('',(-0.0337485286248734,-0.0373672444620819,0.00369526529996595));
#1918=CARTESIAN_POINT('',(-0.0372387831776976,-0.0320547524780902,0.0019903124394488));
#1919=CARTESIAN_POINT('',(-0.0357973501359991,-0.0345273501359992,0.000756070091973731));
#1920=CARTESIAN_POINT('',(-0.0333247524780902,-0.0359687831776978,0.0019903124394488));
#1921=CARTESIAN_POINT('',(-0.0349142646888966,-0.0313503529360288,0.000436325946546607));
#1922=CARTESIAN_POINT('',(-0.0338235281550346,-0.0325535281550335,0.000130062513602373));
#1923=CARTESIAN_POINT('',(-0.0326203529360292,-0.0336442646888955,0.00043632594654661));
#1924=CARTESIAN_POINT('',(-0.0327202012626061,-0.0306854852310938,-6.46683401984976E-18));
#1925=CARTESIAN_POINT('',(-0.0323378432152154,-0.0310678432152175,2.13139216913272E-7));
#1926=CARTESIAN_POINT('',(-0.031955485231093,-0.0314502012626085,-6.23313943490125E-18));
#1927=CARTESIAN_POINT('',(-0.031623,-0.030353,-3.46944695195361E-18));
#1928=CARTESIAN_POINT('',(-0.031623,-0.030353,-3.46944695195361E-18));
#1929=CARTESIAN_POINT('',(-0.031623,-0.030353,-3.46944695195361E-18));
#1930=CARTESIAN_POINT('',(-0.034163,0.032893,0.04953));
#1931=CARTESIAN_POINT('',(-0.034163,0.032893,0.008382));
#1932=CARTESIAN_POINT('',(-0.034163,0.038735,0.008382));
#1933=CARTESIAN_POINT('',(-0.040005,0.038735,0.008382));
#1934=CARTESIAN_POINT('',(-0.040005,0.032893,0.008382));
#1935=CARTESIAN_POINT('',(-0.0341629999999977,0.038735,0.00783339935452297));
#1936=CARTESIAN_POINT('',(-0.0400049999998544,0.0387349999998531,0.00745104123613119));
#1937=CARTESIAN_POINT('',(-0.040005,0.032892999999996,0.00783339935452297));
#1938=CARTESIAN_POINT('',(-0.0341302519417535,0.0386269314077832,0.00673621957338407));
#1939=CARTESIAN_POINT('',(-0.0397444628868332,0.0384744628868338,0.00562712069546717));
#1940=CARTESIAN_POINT('',(-0.0398969314077832,0.0328602519417544,0.00673621957338406));
#1941=CARTESIAN_POINT('',(-0.0339847858772113,0.0381468933947982,0.00515364998653624));
#1942=CARTESIAN_POINT('',(-0.0387446458461045,0.0374746458461043,0.00342701742644341));
#1943=CARTESIAN_POINT('',(-0.0394168933947981,0.0327147858772111,0.00515364998653624));
#1944=CARTESIAN_POINT('',(-0.0337485286248734,0.0373672444620819,0.00369526529996596));
#1945=CARTESIAN_POINT('',(-0.0374807751992318,0.0362107751992318,0.00194220126245235));
#1946=CARTESIAN_POINT('',(-0.0386372444620819,0.0324785286248734,0.00369526529996595));
#1947=CARTESIAN_POINT('',(-0.0333247524780902,0.0359687831776978,0.00199031243944881));
#1948=CARTESIAN_POINT('',(-0.0357973501359991,0.0345273501359992,0.00075607009197373));
#1949=CARTESIAN_POINT('',(-0.0372387831776976,0.0320547524780902,0.0019903124394488));
#1950=CARTESIAN_POINT('',(-0.0326203529360292,0.0336442646888955,0.000436325946546617));
#1951=CARTESIAN_POINT('',(-0.0338235281550346,0.0325535281550336,0.000130062513602371));
#1952=CARTESIAN_POINT('',(-0.0349142646888966,0.0313503529360288,0.000436325946546607));
#1953=CARTESIAN_POINT('',(-0.031955485231093,0.0314502012626085,-2.43814258791205E-18));
#1954=CARTESIAN_POINT('',(-0.0323378432152154,0.0310678432152175,2.13139216913272E-7));
#1955=CARTESIAN_POINT('',(-0.0327202012626061,0.0306854852310938,-6.46683401984976E-18));
#1956=CARTESIAN_POINT('',(-0.031623,0.030353,-3.46944695195361E-18));
#1957=CARTESIAN_POINT('',(-0.031623,0.030353,-3.46944695195361E-18));
#1958=CARTESIAN_POINT('',(-0.031623,0.030353,-3.46944695195361E-18));
#1959=MECHANICAL_DESIGN_GEOMETRIC_PRESENTATION_REPRESENTATION('',(#1153),
#1960);
#1960=(
GEOMETRIC_REPRESENTATION_CONTEXT(3)
GLOBAL_UNCERTAINTY_ASSIGNED_CONTEXT((#1961))
GLOBAL_UNIT_ASSIGNED_CONTEXT((#1964,#1963,#1962))
REPRESENTATION_CONTEXT('Part 1','TOP_LEVEL_ASSEMBLY_PART')
);
#1961=UNCERTAINTY_MEASURE_WITH_UNIT(LENGTH_MEASURE(2.E-5),#1964,
'DISTANCE_ACCURACY_VALUE','Maximum Tolerance applied to model');
#1962=(
NAMED_UNIT(*)
SI_UNIT($,.STERADIAN.)
SOLID_ANGLE_UNIT()
);
#1963=(
NAMED_UNIT(*)
PLANE_ANGLE_UNIT()
SI_UNIT($,.RADIAN.)
);
#1964=(
LENGTH_UNIT()
NAMED_UNIT(*)
SI_UNIT($,.METRE.)
);
#1965=PRODUCT_DEFINITION_SHAPE('','',#1966);
#1966=PRODUCT_DEFINITION('','',#1968,#1967);
#1967=PRODUCT_DEFINITION_CONTEXT('',#1974,'design');
#1968=PRODUCT_DEFINITION_FORMATION_WITH_SPECIFIED_SOURCE('','',#1970,
 .NOT_KNOWN.);
#1969=PRODUCT_RELATED_PRODUCT_CATEGORY('','',(#1970));
#1970=PRODUCT('Part 1','Part 1','Part 1',(#1972));
#1971=PRODUCT_CATEGORY('','');
#1972=PRODUCT_CONTEXT('',#1974,'mechanical');
#1973=APPLICATION_PROTOCOL_DEFINITION('international standard',
'ap242_managed_model_based_3d_engineering',2020,#1974);
#1974=APPLICATION_CONTEXT('managed model based 3d engineering');
ENDSEC;
END-ISO-10303-21;
