ISO-10303-21;
HEADER;
/* Generated by software containing ST-Developer
 * from STEP Tools, Inc. (www.steptools.com) 
 */
/* OPTION: using custom renumber hook */

FILE_DESCRIPTION(
/* description */ ('STEP AP242 Edition 2',
'CAx-IF Rec.Pracs.---Representation and Presentation of Product Manufa
cturing Information (PMI)---4.0---2014-10-13',
'CAx-IF Rec.Pracs.---3D Tessellated Geometry---0.4---2014-09-14','2;1',
'CAx-IF Rec.Pracs.---User Defined Attributes---1.5---2016-08-15'),
/* implementation_level */ '2;1');

FILE_NAME(
/* name */ 'Feet',
/* time_stamp */ '2026-08-28T05:26:08Z',
/* author */ (''),
/* organization */ (''),
/* preprocessor_version */ 'ST-DEVELOPER v20',
/* originating_system */ 'ONSHAPE BY PTC INC, 1.219',
/* authorisation */ '  ');

FILE_SCHEMA (('AP242_MANAGED_MODEL_BASED_3D_ENGINEERING_MIM_LF { 1 0 10303 442 3 1 4 }'));
ENDSEC;

DATA;
#10=SHAPE_REPRESENTATION_RELATIONSHIP('','',#383,#11);
#11=ADVANCED_BREP_SHAPE_REPRESENTATION('',(#381),#643);
#12=CYLINDRICAL_SURFACE('',#414,0.008382);
#13=CYLINDRICAL_SURFACE('',#415,0.008382);
#14=CYLINDRICAL_SURFACE('',#416,0.00762);
#15=CYLINDRICAL_SURFACE('',#417,0.00762);
#16=CYLINDRICAL_SURFACE('',#418,0.00797173318295596);
#17=CYLINDRICAL_SURFACE('',#419,0.00797173318295596);
#18=CYLINDRICAL_SURFACE('',#420,0.00797173318295596);
#19=CYLINDRICAL_SURFACE('',#421,0.00797173318295596);
#20=CYLINDRICAL_SURFACE('',#422,0.001905);
#21=CIRCLE('',#387,0.001905);
#22=CIRCLE('',#390,0.001905);
#23=CIRCLE('',#392,0.00797173318295596);
#24=CIRCLE('',#393,0.00797173318295596);
#25=CIRCLE('',#394,0.00797173318295596);
#26=CIRCLE('',#395,0.00797173318295596);
#27=CIRCLE('',#401,0.00797173318295596);
#28=CIRCLE('',#402,0.00797173318295596);
#29=CIRCLE('',#403,0.00797173318295596);
#30=CIRCLE('',#404,0.00797173318295596);
#31=CIRCLE('',#405,0.00762);
#32=CIRCLE('',#406,0.00762);
#33=CIRCLE('',#407,0.008382);
#34=CIRCLE('',#408,0.008382);
#35=CIRCLE('',#410,0.00762);
#36=CIRCLE('',#411,0.008382);
#37=CIRCLE('',#412,0.008382);
#38=CIRCLE('',#413,0.00762);
#39=ORIENTED_EDGE('',*,*,#143,.T.);
#40=ORIENTED_EDGE('',*,*,#144,.T.);
#41=ORIENTED_EDGE('',*,*,#145,.T.);
#42=ORIENTED_EDGE('',*,*,#146,.T.);
#43=ORIENTED_EDGE('',*,*,#147,.T.);
#44=ORIENTED_EDGE('',*,*,#148,.T.);
#45=ORIENTED_EDGE('',*,*,#149,.T.);
#46=ORIENTED_EDGE('',*,*,#150,.F.);
#47=ORIENTED_EDGE('',*,*,#151,.T.);
#48=ORIENTED_EDGE('',*,*,#152,.F.);
#49=ORIENTED_EDGE('',*,*,#153,.F.);
#50=ORIENTED_EDGE('',*,*,#154,.T.);
#51=ORIENTED_EDGE('',*,*,#155,.F.);
#52=ORIENTED_EDGE('',*,*,#156,.T.);
#53=ORIENTED_EDGE('',*,*,#157,.T.);
#54=ORIENTED_EDGE('',*,*,#158,.F.);
#55=ORIENTED_EDGE('',*,*,#159,.T.);
#56=ORIENTED_EDGE('',*,*,#160,.T.);
#57=ORIENTED_EDGE('',*,*,#161,.T.);
#58=ORIENTED_EDGE('',*,*,#162,.T.);
#59=ORIENTED_EDGE('',*,*,#145,.F.);
#60=ORIENTED_EDGE('',*,*,#163,.T.);
#61=ORIENTED_EDGE('',*,*,#150,.T.);
#62=ORIENTED_EDGE('',*,*,#164,.T.);
#63=ORIENTED_EDGE('',*,*,#153,.T.);
#64=ORIENTED_EDGE('',*,*,#165,.T.);
#65=ORIENTED_EDGE('',*,*,#162,.F.);
#66=ORIENTED_EDGE('',*,*,#166,.T.);
#67=ORIENTED_EDGE('',*,*,#167,.F.);
#68=ORIENTED_EDGE('',*,*,#168,.T.);
#69=ORIENTED_EDGE('',*,*,#169,.T.);
#70=ORIENTED_EDGE('',*,*,#170,.T.);
#71=ORIENTED_EDGE('',*,*,#171,.F.);
#72=ORIENTED_EDGE('',*,*,#172,.T.);
#73=ORIENTED_EDGE('',*,*,#173,.T.);
#74=ORIENTED_EDGE('',*,*,#174,.T.);
#75=ORIENTED_EDGE('',*,*,#175,.T.);
#76=ORIENTED_EDGE('',*,*,#176,.T.);
#77=ORIENTED_EDGE('',*,*,#177,.F.);
#78=ORIENTED_EDGE('',*,*,#178,.T.);
#79=ORIENTED_EDGE('',*,*,#179,.F.);
#80=ORIENTED_EDGE('',*,*,#180,.T.);
#81=ORIENTED_EDGE('',*,*,#181,.T.);
#82=ORIENTED_EDGE('',*,*,#182,.T.);
#83=ORIENTED_EDGE('',*,*,#143,.F.);
#84=ORIENTED_EDGE('',*,*,#183,.T.);
#85=ORIENTED_EDGE('',*,*,#160,.F.);
#86=ORIENTED_EDGE('',*,*,#184,.T.);
#87=ORIENTED_EDGE('',*,*,#155,.T.);
#88=ORIENTED_EDGE('',*,*,#185,.T.);
#89=ORIENTED_EDGE('',*,*,#152,.T.);
#90=ORIENTED_EDGE('',*,*,#186,.T.);
#91=ORIENTED_EDGE('',*,*,#173,.F.);
#92=ORIENTED_EDGE('',*,*,#187,.T.);
#93=ORIENTED_EDGE('',*,*,#167,.T.);
#94=ORIENTED_EDGE('',*,*,#188,.T.);
#95=ORIENTED_EDGE('',*,*,#179,.T.);
#96=ORIENTED_EDGE('',*,*,#189,.T.);
#97=ORIENTED_EDGE('',*,*,#177,.T.);
#98=ORIENTED_EDGE('',*,*,#190,.T.);
#99=ORIENTED_EDGE('',*,*,#169,.F.);
#100=ORIENTED_EDGE('',*,*,#191,.T.);
#101=ORIENTED_EDGE('',*,*,#171,.T.);
#102=ORIENTED_EDGE('',*,*,#192,.T.);
#103=ORIENTED_EDGE('',*,*,#175,.F.);
#104=ORIENTED_EDGE('',*,*,#193,.T.);
#105=ORIENTED_EDGE('',*,*,#181,.F.);
#106=ORIENTED_EDGE('',*,*,#194,.T.);
#107=ORIENTED_EDGE('',*,*,#190,.F.);
#108=ORIENTED_EDGE('',*,*,#176,.F.);
#109=ORIENTED_EDGE('',*,*,#192,.F.);
#110=ORIENTED_EDGE('',*,*,#174,.F.);
#111=ORIENTED_EDGE('',*,*,#189,.F.);
#112=ORIENTED_EDGE('',*,*,#182,.F.);
#113=ORIENTED_EDGE('',*,*,#193,.F.);
#114=ORIENTED_EDGE('',*,*,#178,.F.);
#115=ORIENTED_EDGE('',*,*,#187,.F.);
#116=ORIENTED_EDGE('',*,*,#172,.F.);
#117=ORIENTED_EDGE('',*,*,#191,.F.);
#118=ORIENTED_EDGE('',*,*,#168,.F.);
#119=ORIENTED_EDGE('',*,*,#188,.F.);
#120=ORIENTED_EDGE('',*,*,#170,.F.);
#121=ORIENTED_EDGE('',*,*,#194,.F.);
#122=ORIENTED_EDGE('',*,*,#180,.F.);
#123=ORIENTED_EDGE('',*,*,#163,.F.);
#124=ORIENTED_EDGE('',*,*,#144,.F.);
#125=ORIENTED_EDGE('',*,*,#186,.F.);
#126=ORIENTED_EDGE('',*,*,#151,.F.);
#127=ORIENTED_EDGE('',*,*,#164,.F.);
#128=ORIENTED_EDGE('',*,*,#149,.F.);
#129=ORIENTED_EDGE('',*,*,#147,.F.);
#130=ORIENTED_EDGE('',*,*,#185,.F.);
#131=ORIENTED_EDGE('',*,*,#154,.F.);
#132=ORIENTED_EDGE('',*,*,#165,.F.);
#133=ORIENTED_EDGE('',*,*,#156,.F.);
#134=ORIENTED_EDGE('',*,*,#184,.F.);
#135=ORIENTED_EDGE('',*,*,#159,.F.);
#136=ORIENTED_EDGE('',*,*,#157,.F.);
#137=ORIENTED_EDGE('',*,*,#166,.F.);
#138=ORIENTED_EDGE('',*,*,#161,.F.);
#139=ORIENTED_EDGE('',*,*,#183,.F.);
#140=ORIENTED_EDGE('',*,*,#146,.F.);
#141=ORIENTED_EDGE('',*,*,#158,.T.);
#142=ORIENTED_EDGE('',*,*,#148,.F.);
#143=EDGE_CURVE('',#195,#196,#229,.T.);
#144=EDGE_CURVE('',#196,#197,#230,.F.);
#145=EDGE_CURVE('',#197,#198,#231,.T.);
#146=EDGE_CURVE('',#198,#195,#232,.T.);
#147=EDGE_CURVE('',#199,#200,#233,.F.);
#148=EDGE_CURVE('',#200,#200,#21,.T.);
#149=EDGE_CURVE('',#200,#201,#234,.F.);
#150=EDGE_CURVE('',#202,#201,#235,.T.);
#151=EDGE_CURVE('',#202,#203,#236,.T.);
#152=EDGE_CURVE('',#199,#203,#237,.T.);
#153=EDGE_CURVE('',#204,#205,#238,.T.);
#154=EDGE_CURVE('',#204,#206,#239,.T.);
#155=EDGE_CURVE('',#207,#206,#240,.T.);
#156=EDGE_CURVE('',#207,#205,#241,.F.);
#157=EDGE_CURVE('',#208,#209,#242,.T.);
#158=EDGE_CURVE('',#209,#209,#22,.T.);
#159=EDGE_CURVE('',#209,#210,#243,.T.);
#160=EDGE_CURVE('',#210,#211,#244,.T.);
#161=EDGE_CURVE('',#211,#212,#245,.F.);
#162=EDGE_CURVE('',#212,#208,#246,.T.);
#163=EDGE_CURVE('',#197,#202,#23,.T.);
#164=EDGE_CURVE('',#201,#204,#24,.T.);
#165=EDGE_CURVE('',#205,#208,#25,.T.);
#166=EDGE_CURVE('',#212,#198,#26,.T.);
#167=EDGE_CURVE('',#213,#214,#247,.T.);
#168=EDGE_CURVE('',#213,#215,#248,.T.);
#169=EDGE_CURVE('',#215,#216,#249,.T.);
#170=EDGE_CURVE('',#216,#214,#250,.F.);
#171=EDGE_CURVE('',#217,#218,#251,.T.);
#172=EDGE_CURVE('',#217,#219,#252,.F.);
#173=EDGE_CURVE('',#219,#220,#253,.T.);
#174=EDGE_CURVE('',#220,#218,#254,.T.);
#175=EDGE_CURVE('',#221,#222,#255,.T.);
#176=EDGE_CURVE('',#222,#223,#256,.F.);
#177=EDGE_CURVE('',#224,#223,#257,.T.);
#178=EDGE_CURVE('',#224,#221,#258,.T.);
#179=EDGE_CURVE('',#225,#226,#259,.T.);
#180=EDGE_CURVE('',#225,#227,#260,.T.);
#181=EDGE_CURVE('',#227,#228,#261,.T.);
#182=EDGE_CURVE('',#228,#226,#262,.F.);
#183=EDGE_CURVE('',#195,#211,#27,.T.);
#184=EDGE_CURVE('',#210,#207,#28,.T.);
#185=EDGE_CURVE('',#206,#199,#29,.T.);
#186=EDGE_CURVE('',#203,#196,#30,.T.);
#187=EDGE_CURVE('',#219,#213,#31,.F.);
#188=EDGE_CURVE('',#214,#225,#32,.F.);
#189=EDGE_CURVE('',#226,#224,#33,.F.);
#190=EDGE_CURVE('',#223,#220,#34,.F.);
#191=EDGE_CURVE('',#215,#217,#35,.F.);
#192=EDGE_CURVE('',#218,#222,#36,.F.);
#193=EDGE_CURVE('',#221,#228,#37,.F.);
#194=EDGE_CURVE('',#227,#216,#38,.F.);
#195=VERTEX_POINT('',#538);
#196=VERTEX_POINT('',#539);
#197=VERTEX_POINT('',#541);
#198=VERTEX_POINT('',#543);
#199=VERTEX_POINT('',#547);
#200=VERTEX_POINT('',#548);
#201=VERTEX_POINT('',#551);
#202=VERTEX_POINT('',#553);
#203=VERTEX_POINT('',#555);
#204=VERTEX_POINT('',#559);
#205=VERTEX_POINT('',#560);
#206=VERTEX_POINT('',#562);
#207=VERTEX_POINT('',#564);
#208=VERTEX_POINT('',#568);
#209=VERTEX_POINT('',#569);
#210=VERTEX_POINT('',#572);
#211=VERTEX_POINT('',#574);
#212=VERTEX_POINT('',#576);
#213=VERTEX_POINT('',#585);
#214=VERTEX_POINT('',#586);
#215=VERTEX_POINT('',#588);
#216=VERTEX_POINT('',#590);
#217=VERTEX_POINT('',#594);
#218=VERTEX_POINT('',#595);
#219=VERTEX_POINT('',#597);
#220=VERTEX_POINT('',#599);
#221=VERTEX_POINT('',#603);
#222=VERTEX_POINT('',#604);
#223=VERTEX_POINT('',#606);
#224=VERTEX_POINT('',#608);
#225=VERTEX_POINT('',#612);
#226=VERTEX_POINT('',#613);
#227=VERTEX_POINT('',#615);
#228=VERTEX_POINT('',#617);
#229=LINE('',#537,#263);
#230=LINE('',#540,#264);
#231=LINE('',#542,#265);
#232=LINE('',#544,#266);
#233=LINE('',#546,#267);
#234=LINE('',#550,#268);
#235=LINE('',#552,#269);
#236=LINE('',#554,#270);
#237=LINE('',#556,#271);
#238=LINE('',#558,#272);
#239=LINE('',#561,#273);
#240=LINE('',#563,#274);
#241=LINE('',#565,#275);
#242=LINE('',#567,#276);
#243=LINE('',#571,#277);
#244=LINE('',#573,#278);
#245=LINE('',#575,#279);
#246=LINE('',#577,#280);
#247=LINE('',#584,#281);
#248=LINE('',#587,#282);
#249=LINE('',#589,#283);
#250=LINE('',#591,#284);
#251=LINE('',#593,#285);
#252=LINE('',#596,#286);
#253=LINE('',#598,#287);
#254=LINE('',#600,#288);
#255=LINE('',#602,#289);
#256=LINE('',#605,#290);
#257=LINE('',#607,#291);
#258=LINE('',#609,#292);
#259=LINE('',#611,#293);
#260=LINE('',#614,#294);
#261=LINE('',#616,#295);
#262=LINE('',#618,#296);
#263=VECTOR('',#427,1.);
#264=VECTOR('',#428,1.);
#265=VECTOR('',#429,1.);
#266=VECTOR('',#430,1.);
#267=VECTOR('',#433,1.);
#268=VECTOR('',#436,1.);
#269=VECTOR('',#437,1.);
#270=VECTOR('',#438,1.);
#271=VECTOR('',#439,1.);
#272=VECTOR('',#442,1.);
#273=VECTOR('',#443,1.);
#274=VECTOR('',#444,1.);
#275=VECTOR('',#445,1.);
#276=VECTOR('',#448,1.);
#277=VECTOR('',#451,1.);
#278=VECTOR('',#452,1.);
#279=VECTOR('',#453,1.);
#280=VECTOR('',#454,1.);
#281=VECTOR('',#467,1.);
#282=VECTOR('',#468,1.);
#283=VECTOR('',#469,1.);
#284=VECTOR('',#470,1.);
#285=VECTOR('',#473,1.);
#286=VECTOR('',#474,1.);
#287=VECTOR('',#475,1.);
#288=VECTOR('',#476,1.);
#289=VECTOR('',#479,1.);
#290=VECTOR('',#480,1.);
#291=VECTOR('',#481,1.);
#292=VECTOR('',#482,1.);
#293=VECTOR('',#485,1.);
#294=VECTOR('',#486,1.);
#295=VECTOR('',#487,1.);
#296=VECTOR('',#488,1.);
#297=EDGE_LOOP('',(#39,#40,#41,#42));
#298=EDGE_LOOP('',(#43,#44,#45,#46,#47,#48));
#299=EDGE_LOOP('',(#49,#50,#51,#52));
#300=EDGE_LOOP('',(#53,#54,#55,#56,#57,#58));
#301=EDGE_LOOP('',(#59,#60,#61,#62,#63,#64,#65,#66));
#302=EDGE_LOOP('',(#67,#68,#69,#70));
#303=EDGE_LOOP('',(#71,#72,#73,#74));
#304=EDGE_LOOP('',(#75,#76,#77,#78));
#305=EDGE_LOOP('',(#79,#80,#81,#82));
#306=EDGE_LOOP('',(#83,#84,#85,#86,#87,#88,#89,#90));
#307=EDGE_LOOP('',(#91,#92,#93,#94,#95,#96,#97,#98));
#308=EDGE_LOOP('',(#99,#100,#101,#102,#103,#104,#105,#106));
#309=EDGE_LOOP('',(#107,#108,#109,#110));
#310=EDGE_LOOP('',(#111,#112,#113,#114));
#311=EDGE_LOOP('',(#115,#116,#117,#118));
#312=EDGE_LOOP('',(#119,#120,#121,#122));
#313=EDGE_LOOP('',(#123,#124,#125,#126));
#314=EDGE_LOOP('',(#127,#128,#129,#130,#131));
#315=EDGE_LOOP('',(#132,#133,#134,#135,#136));
#316=EDGE_LOOP('',(#137,#138,#139,#140));
#317=EDGE_LOOP('',(#141));
#318=EDGE_LOOP('',(#142));
#319=FACE_BOUND('',#297,.T.);
#320=FACE_BOUND('',#298,.T.);
#321=FACE_BOUND('',#299,.T.);
#322=FACE_BOUND('',#300,.T.);
#323=FACE_BOUND('',#301,.T.);
#324=FACE_BOUND('',#302,.T.);
#325=FACE_BOUND('',#303,.T.);
#326=FACE_BOUND('',#304,.T.);
#327=FACE_BOUND('',#305,.T.);
#328=FACE_BOUND('',#306,.T.);
#329=FACE_BOUND('',#307,.T.);
#330=FACE_BOUND('',#308,.T.);
#331=FACE_BOUND('',#309,.T.);
#332=FACE_BOUND('',#310,.T.);
#333=FACE_BOUND('',#311,.T.);
#334=FACE_BOUND('',#312,.T.);
#335=FACE_BOUND('',#313,.T.);
#336=FACE_BOUND('',#314,.T.);
#337=FACE_BOUND('',#315,.T.);
#338=FACE_BOUND('',#316,.T.);
#339=FACE_BOUND('',#317,.T.);
#340=FACE_BOUND('',#318,.T.);
#341=PLANE('',#385);
#342=PLANE('',#386);
#343=PLANE('',#388);
#344=PLANE('',#389);
#345=PLANE('',#391);
#346=PLANE('',#396);
#347=PLANE('',#397);
#348=PLANE('',#398);
#349=PLANE('',#399);
#350=PLANE('',#400);
#351=PLANE('',#409);
#352=ADVANCED_FACE('',(#319),#341,.T.);
#353=ADVANCED_FACE('',(#320),#342,.F.);
#354=ADVANCED_FACE('',(#321),#343,.F.);
#355=ADVANCED_FACE('',(#322),#344,.T.);
#356=ADVANCED_FACE('',(#323),#345,.T.);
#357=ADVANCED_FACE('',(#324),#346,.F.);
#358=ADVANCED_FACE('',(#325),#347,.T.);
#359=ADVANCED_FACE('',(#326),#348,.F.);
#360=ADVANCED_FACE('',(#327),#349,.F.);
#361=ADVANCED_FACE('',(#328,#329),#350,.F.);
#362=ADVANCED_FACE('',(#330),#351,.F.);
#363=ADVANCED_FACE('',(#331),#12,.T.);
#364=ADVANCED_FACE('',(#332),#13,.T.);
#365=ADVANCED_FACE('',(#333),#14,.T.);
#366=ADVANCED_FACE('',(#334),#15,.T.);
#367=ADVANCED_FACE('',(#335),#16,.T.);
#368=ADVANCED_FACE('',(#336),#17,.T.);
#369=ADVANCED_FACE('',(#337),#18,.T.);
#370=ADVANCED_FACE('',(#338),#19,.T.);
#371=ADVANCED_FACE('',(#339,#340),#20,.F.);
#372=CLOSED_SHELL('',(#352,#353,#354,#355,#356,#357,#358,#359,#360,#361,
#362,#363,#364,#365,#366,#367,#368,#369,#370,#371));
#373=STYLED_ITEM('',(#374),#381);
#374=PRESENTATION_STYLE_ASSIGNMENT((#375));
#375=SURFACE_STYLE_USAGE(.BOTH.,#376);
#376=SURFACE_SIDE_STYLE('',(#377));
#377=SURFACE_STYLE_FILL_AREA(#378);
#378=FILL_AREA_STYLE('',(#379));
#379=FILL_AREA_STYLE_COLOUR('',#380);
#380=COLOUR_RGB('',0.615686274509804,0.811764705882353,0.929411764705882);
#381=MANIFOLD_SOLID_BREP('Part 1',#372);
#382=SHAPE_DEFINITION_REPRESENTATION(#648,#383);
#383=SHAPE_REPRESENTATION('Part 1',(#384),#643);
#384=AXIS2_PLACEMENT_3D('',#535,#423,#424);
#385=AXIS2_PLACEMENT_3D('',#536,#425,#426);
#386=AXIS2_PLACEMENT_3D('',#545,#431,#432);
#387=AXIS2_PLACEMENT_3D('',#549,#434,#435);
#388=AXIS2_PLACEMENT_3D('',#557,#440,#441);
#389=AXIS2_PLACEMENT_3D('',#566,#446,#447);
#390=AXIS2_PLACEMENT_3D('',#570,#449,#450);
#391=AXIS2_PLACEMENT_3D('',#578,#455,#456);
#392=AXIS2_PLACEMENT_3D('',#579,#457,#458);
#393=AXIS2_PLACEMENT_3D('',#580,#459,#460);
#394=AXIS2_PLACEMENT_3D('',#581,#461,#462);
#395=AXIS2_PLACEMENT_3D('',#582,#463,#464);
#396=AXIS2_PLACEMENT_3D('',#583,#465,#466);
#397=AXIS2_PLACEMENT_3D('',#592,#471,#472);
#398=AXIS2_PLACEMENT_3D('',#601,#477,#478);
#399=AXIS2_PLACEMENT_3D('',#610,#483,#484);
#400=AXIS2_PLACEMENT_3D('',#619,#489,#490);
#401=AXIS2_PLACEMENT_3D('',#620,#491,#492);
#402=AXIS2_PLACEMENT_3D('',#621,#493,#494);
#403=AXIS2_PLACEMENT_3D('',#622,#495,#496);
#404=AXIS2_PLACEMENT_3D('',#623,#497,#498);
#405=AXIS2_PLACEMENT_3D('',#624,#499,#500);
#406=AXIS2_PLACEMENT_3D('',#625,#501,#502);
#407=AXIS2_PLACEMENT_3D('',#626,#503,#504);
#408=AXIS2_PLACEMENT_3D('',#627,#505,#506);
#409=AXIS2_PLACEMENT_3D('',#628,#507,#508);
#410=AXIS2_PLACEMENT_3D('',#629,#509,#510);
#411=AXIS2_PLACEMENT_3D('',#630,#511,#512);
#412=AXIS2_PLACEMENT_3D('',#631,#513,#514);
#413=AXIS2_PLACEMENT_3D('',#632,#515,#516);
#414=AXIS2_PLACEMENT_3D('',#633,#517,#518);
#415=AXIS2_PLACEMENT_3D('',#634,#519,#520);
#416=AXIS2_PLACEMENT_3D('',#635,#521,#522);
#417=AXIS2_PLACEMENT_3D('',#636,#523,#524);
#418=AXIS2_PLACEMENT_3D('',#637,#525,#526);
#419=AXIS2_PLACEMENT_3D('',#638,#527,#528);
#420=AXIS2_PLACEMENT_3D('',#639,#529,#530);
#421=AXIS2_PLACEMENT_3D('',#640,#531,#532);
#422=AXIS2_PLACEMENT_3D('',#641,#533,#534);
#423=DIRECTION('',(0.,0.,1.));
#424=DIRECTION('',(1.,0.,0.));
#425=DIRECTION('',(1.28055374703012E-16,-1.,0.));
#426=DIRECTION('',(1.,1.28055374703012E-16,0.));
#427=DIRECTION('',(1.,1.28055374703012E-16,0.));
#428=DIRECTION('',(0.,0.,-1.));
#429=DIRECTION('',(-1.,-1.28055374703012E-16,0.));
#430=DIRECTION('',(0.,0.,-1.));
#431=DIRECTION('',(-1.,-1.30087999698298E-16,0.));
#432=DIRECTION('',(1.30087999698298E-16,-1.,0.));
#433=DIRECTION('',(0.,0.,-1.));
#434=DIRECTION('',(-1.,-1.30087999698298E-16,0.));
#435=DIRECTION('',(1.30087999698298E-16,-1.,0.));
#436=DIRECTION('',(0.,0.,-1.));
#437=DIRECTION('',(-1.30087999698298E-16,1.,0.));
#438=DIRECTION('',(0.,0.,-1.));
#439=DIRECTION('',(1.30087999698298E-16,-1.,0.));
#440=DIRECTION('',(8.53702498020082E-17,-1.,0.));
#441=DIRECTION('',(1.,8.53702498020082E-17,0.));
#442=DIRECTION('',(-1.,-8.53702498020082E-17,0.));
#443=DIRECTION('',(0.,0.,-1.));
#444=DIRECTION('',(1.,8.53702498020082E-17,0.));
#445=DIRECTION('',(0.,0.,-1.));
#446=DIRECTION('',(-1.,-1.30087999698298E-16,0.));
#447=DIRECTION('',(1.30087999698298E-16,-1.,0.));
#448=DIRECTION('',(0.,0.,-1.));
#449=DIRECTION('',(-1.,-1.30087999698298E-16,0.));
#450=DIRECTION('',(1.30087999698298E-16,-1.,0.));
#451=DIRECTION('',(0.,0.,-1.));
#452=DIRECTION('',(1.30087999698298E-16,-1.,0.));
#453=DIRECTION('',(0.,0.,-1.));
#454=DIRECTION('',(-1.30087999698298E-16,1.,0.));
#455=DIRECTION('',(0.,0.,1.));
#456=DIRECTION('',(1.,0.,0.));
#457=DIRECTION('',(0.,0.,1.));
#458=DIRECTION('',(1.,0.,0.));
#459=DIRECTION('',(0.,0.,1.));
#460=DIRECTION('',(1.,0.,0.));
#461=DIRECTION('',(0.,0.,1.));
#462=DIRECTION('',(1.,0.,0.));
#463=DIRECTION('',(0.,0.,1.));
#464=DIRECTION('',(1.,0.,0.));
#465=DIRECTION('',(1.4009476890586E-16,-1.,0.));
#466=DIRECTION('',(1.,1.4009476890586E-16,0.));
#467=DIRECTION('',(-1.,-1.4009476890586E-16,0.));
#468=DIRECTION('',(0.,0.,-1.));
#469=DIRECTION('',(-1.,-1.4009476890586E-16,0.));
#470=DIRECTION('',(0.,0.,-1.));
#471=DIRECTION('',(1.,1.97245342502835E-16,0.));
#472=DIRECTION('',(-1.97245342502835E-16,1.,0.));
#473=DIRECTION('',(1.97245342502835E-16,-1.,0.));
#474=DIRECTION('',(0.,0.,-1.));
#475=DIRECTION('',(1.97245342502835E-16,-1.,0.));
#476=DIRECTION('',(0.,0.,-1.));
#477=DIRECTION('',(0.,1.,0.));
#478=DIRECTION('',(0.,0.,1.));
#479=DIRECTION('',(1.,0.,0.));
#480=DIRECTION('',(0.,0.,-1.));
#481=DIRECTION('',(1.,0.,0.));
#482=DIRECTION('',(0.,0.,-1.));
#483=DIRECTION('',(1.,1.97245342502835E-16,0.));
#484=DIRECTION('',(-1.97245342502835E-16,1.,0.));
#485=DIRECTION('',(1.97245342502835E-16,-1.,0.));
#486=DIRECTION('',(0.,0.,-1.));
#487=DIRECTION('',(1.97245342502835E-16,-1.,0.));
#488=DIRECTION('',(0.,0.,-1.));
#489=DIRECTION('',(0.,0.,-1.));
#490=DIRECTION('',(1.,0.,0.));
#491=DIRECTION('',(0.,0.,-1.));
#492=DIRECTION('',(-1.,0.,0.));
#493=DIRECTION('',(0.,0.,-1.));
#494=DIRECTION('',(-1.,0.,0.));
#495=DIRECTION('',(0.,0.,-1.));
#496=DIRECTION('',(-1.,0.,0.));
#497=DIRECTION('',(0.,0.,-1.));
#498=DIRECTION('',(-1.,0.,0.));
#499=DIRECTION('',(0.,0.,-1.));
#500=DIRECTION('',(-1.,0.,0.));
#501=DIRECTION('',(0.,0.,-1.));
#502=DIRECTION('',(-1.,0.,0.));
#503=DIRECTION('',(0.,0.,-1.));
#504=DIRECTION('',(-1.,0.,0.));
#505=DIRECTION('',(0.,0.,-1.));
#506=DIRECTION('',(-1.,0.,0.));
#507=DIRECTION('',(0.,0.,1.));
#508=DIRECTION('',(1.,0.,0.));
#509=DIRECTION('',(0.,0.,1.));
#510=DIRECTION('',(1.,0.,0.));
#511=DIRECTION('',(0.,0.,1.));
#512=DIRECTION('',(1.,0.,0.));
#513=DIRECTION('',(0.,0.,1.));
#514=DIRECTION('',(1.,0.,0.));
#515=DIRECTION('',(0.,0.,1.));
#516=DIRECTION('',(1.,0.,0.));
#517=DIRECTION('',(0.,0.,1.));
#518=DIRECTION('',(1.,0.,0.));
#519=DIRECTION('',(0.,0.,-1.));
#520=DIRECTION('',(-1.,0.,0.));
#521=DIRECTION('',(0.,0.,1.));
#522=DIRECTION('',(1.,0.,0.));
#523=DIRECTION('',(0.,0.,-1.));
#524=DIRECTION('',(-1.,0.,0.));
#525=DIRECTION('',(0.,0.,1.));
#526=DIRECTION('',(1.,0.,0.));
#527=DIRECTION('',(0.,0.,-1.));
#528=DIRECTION('',(-1.,0.,0.));
#529=DIRECTION('',(0.,0.,1.));
#530=DIRECTION('',(1.,0.,0.));
#531=DIRECTION('',(0.,0.,-1.));
#532=DIRECTION('',(-1.,0.,0.));
#533=DIRECTION('',(-1.,-1.30087999698298E-16,0.));
#534=DIRECTION('',(1.30087999698298E-16,-1.,0.));
#535=CARTESIAN_POINT('',(0.,0.,0.));
#536=CARTESIAN_POINT('',(0.,-0.013335,0.01397));
#537=CARTESIAN_POINT('',(0.,-0.013335,0.00127));
#538=CARTESIAN_POINT('',(-0.012348266817044,-0.013335,0.00127));
#539=CARTESIAN_POINT('',(0.012348266817044,-0.013335,0.00127));
#540=CARTESIAN_POINT('',(0.012348266817044,-0.013335,0.01397));
#541=CARTESIAN_POINT('',(0.012348266817044,-0.013335,0.01397));
#542=CARTESIAN_POINT('',(0.,-0.013335,0.01397));
#543=CARTESIAN_POINT('',(-0.012348266817044,-0.013335,0.01397));
#544=CARTESIAN_POINT('',(-0.012348266817044,-0.013335,0.01397));
#545=CARTESIAN_POINT('',(0.02032,3.46944695195361E-18,0.01397));
#546=CARTESIAN_POINT('',(0.02032,0.00536326681704405,0.01397));
#547=CARTESIAN_POINT('',(0.02032,0.00536326681704405,0.00127));
#548=CARTESIAN_POINT('',(0.02032,0.00536326681704405,0.009906));
#549=CARTESIAN_POINT('',(0.02032,0.00345826681704405,0.009906));
#550=CARTESIAN_POINT('',(0.02032,0.00536326681704405,0.01397));
#551=CARTESIAN_POINT('',(0.02032,0.00536326681704405,0.01397));
#552=CARTESIAN_POINT('',(0.02032,3.46944695195361E-18,0.01397));
#553=CARTESIAN_POINT('',(0.02032,-0.00536326681704404,0.01397));
#554=CARTESIAN_POINT('',(0.02032,-0.00536326681704404,0.00127));
#555=CARTESIAN_POINT('',(0.02032,-0.00536326681704404,0.00127));
#556=CARTESIAN_POINT('',(0.02032,3.46944695195361E-18,0.00127));
#557=CARTESIAN_POINT('',(-3.46944695195361E-18,0.013335,0.01397));
#558=CARTESIAN_POINT('',(-3.46944695195361E-18,0.013335,0.01397));
#559=CARTESIAN_POINT('',(0.012348266817044,0.013335,0.01397));
#560=CARTESIAN_POINT('',(-0.012348266817044,0.013335,0.01397));
#561=CARTESIAN_POINT('',(0.012348266817044,0.013335,0.01397));
#562=CARTESIAN_POINT('',(0.012348266817044,0.013335,0.00127));
#563=CARTESIAN_POINT('',(-3.46944695195361E-18,0.013335,0.00127));
#564=CARTESIAN_POINT('',(-0.012348266817044,0.013335,0.00127));
#565=CARTESIAN_POINT('',(-0.012348266817044,0.013335,0.01397));
#566=CARTESIAN_POINT('',(-0.02032,-1.7347234759768E-18,0.01397));
#567=CARTESIAN_POINT('',(-0.02032,0.00536326681704404,0.00127));
#568=CARTESIAN_POINT('',(-0.02032,0.00536326681704404,0.01397));
#569=CARTESIAN_POINT('',(-0.02032,0.00536326681704404,0.009906));
#570=CARTESIAN_POINT('',(-0.02032,0.00345826681704404,0.009906));
#571=CARTESIAN_POINT('',(-0.02032,0.00536326681704404,0.00127));
#572=CARTESIAN_POINT('',(-0.02032,0.00536326681704404,0.00127));
#573=CARTESIAN_POINT('',(-0.02032,-1.7347234759768E-18,0.00127));
#574=CARTESIAN_POINT('',(-0.02032,-0.00536326681704405,0.00127));
#575=CARTESIAN_POINT('',(-0.02032,-0.00536326681704405,0.01397));
#576=CARTESIAN_POINT('',(-0.02032,-0.00536326681704405,0.01397));
#577=CARTESIAN_POINT('',(-0.02032,-1.7347234759768E-18,0.01397));
#578=CARTESIAN_POINT('',(-3.46944695195361E-18,0.,0.01397));
#579=CARTESIAN_POINT('',(0.012348266817044,-0.00536326681704404,0.01397));
#580=CARTESIAN_POINT('',(0.012348266817044,0.00536326681704405,0.01397));
#581=CARTESIAN_POINT('',(-0.012348266817044,0.00536326681704404,0.01397));
#582=CARTESIAN_POINT('',(-0.012348266817044,-0.00536326681704405,0.01397));
#583=CARTESIAN_POINT('',(0.,0.014859,0.00127));
#584=CARTESIAN_POINT('',(0.,0.014859,0.00127));
#585=CARTESIAN_POINT('',(0.017145,0.014859,0.00127));
#586=CARTESIAN_POINT('',(-0.017145,0.014859,0.00127));
#587=CARTESIAN_POINT('',(0.017145,0.014859,0.));
#588=CARTESIAN_POINT('',(0.017145,0.014859,0.));
#589=CARTESIAN_POINT('',(0.,0.014859,0.));
#590=CARTESIAN_POINT('',(-0.017145,0.014859,0.));
#591=CARTESIAN_POINT('',(-0.017145,0.014859,0.00127));
#592=CARTESIAN_POINT('',(0.024765,-0.0027305,0.00127));
#593=CARTESIAN_POINT('',(0.024765,-0.0027305,0.));
#594=CARTESIAN_POINT('',(0.024765,0.007239,0.));
#595=CARTESIAN_POINT('',(0.024765,-0.011938,0.));
#596=CARTESIAN_POINT('',(0.024765,0.007239,0.00127));
#597=CARTESIAN_POINT('',(0.024765,0.007239,0.00127));
#598=CARTESIAN_POINT('',(0.024765,-0.0027305,0.00127));
#599=CARTESIAN_POINT('',(0.024765,-0.011938,0.00127));
#600=CARTESIAN_POINT('',(0.024765,-0.011938,0.));
#601=CARTESIAN_POINT('',(0.,-0.02032,0.00127));
#602=CARTESIAN_POINT('',(0.,-0.02032,0.));
#603=CARTESIAN_POINT('',(-0.016383,-0.02032,0.));
#604=CARTESIAN_POINT('',(0.016383,-0.02032,0.));
#605=CARTESIAN_POINT('',(0.016383,-0.02032,0.00127));
#606=CARTESIAN_POINT('',(0.016383,-0.02032,0.00127));
#607=CARTESIAN_POINT('',(0.,-0.02032,0.00127));
#608=CARTESIAN_POINT('',(-0.016383,-0.02032,0.00127));
#609=CARTESIAN_POINT('',(-0.016383,-0.02032,0.00127));
#610=CARTESIAN_POINT('',(-0.024765,-0.0027305,0.00127));
#611=CARTESIAN_POINT('',(-0.024765,-0.0027305,0.00127));
#612=CARTESIAN_POINT('',(-0.024765,0.007239,0.00127));
#613=CARTESIAN_POINT('',(-0.024765,-0.011938,0.00127));
#614=CARTESIAN_POINT('',(-0.024765,0.007239,0.00127));
#615=CARTESIAN_POINT('',(-0.024765,0.007239,0.));
#616=CARTESIAN_POINT('',(-0.024765,-0.0027305,0.));
#617=CARTESIAN_POINT('',(-0.024765,-0.011938,0.));
#618=CARTESIAN_POINT('',(-0.024765,-0.011938,0.00127));
#619=CARTESIAN_POINT('',(0.,-0.0027305,0.00127));
#620=CARTESIAN_POINT('',(-0.012348266817044,-0.00536326681704405,0.00127));
#621=CARTESIAN_POINT('',(-0.012348266817044,0.00536326681704404,0.00127));
#622=CARTESIAN_POINT('',(0.012348266817044,0.00536326681704405,0.00127));
#623=CARTESIAN_POINT('',(0.012348266817044,-0.00536326681704404,0.00127));
#624=CARTESIAN_POINT('',(0.017145,0.007239,0.00127));
#625=CARTESIAN_POINT('',(-0.017145,0.007239,0.00127));
#626=CARTESIAN_POINT('',(-0.016383,-0.011938,0.00127));
#627=CARTESIAN_POINT('',(0.016383,-0.011938,0.00127));
#628=CARTESIAN_POINT('',(-3.46944695195361E-18,0.,0.));
#629=CARTESIAN_POINT('',(0.017145,0.007239,0.));
#630=CARTESIAN_POINT('',(0.016383,-0.011938,0.));
#631=CARTESIAN_POINT('',(-0.016383,-0.011938,0.));
#632=CARTESIAN_POINT('',(-0.017145,0.007239,0.));
#633=CARTESIAN_POINT('',(0.016383,-0.011938,0.00127));
#634=CARTESIAN_POINT('',(-0.016383,-0.011938,0.00127));
#635=CARTESIAN_POINT('',(0.017145,0.007239,0.00127));
#636=CARTESIAN_POINT('',(-0.017145,0.007239,0.00127));
#637=CARTESIAN_POINT('',(0.012348266817044,-0.00536326681704404,0.01397));
#638=CARTESIAN_POINT('',(0.012348266817044,0.00536326681704405,0.01397));
#639=CARTESIAN_POINT('',(-0.012348266817044,0.00536326681704404,0.01397));
#640=CARTESIAN_POINT('',(-0.012348266817044,-0.00536326681704405,0.01397));
#641=CARTESIAN_POINT('',(0.0420273390593471,0.00345826681704405,0.009906));
#642=MECHANICAL_DESIGN_GEOMETRIC_PRESENTATION_REPRESENTATION('',(#373),
#643);
#643=(
GEOMETRIC_REPRESENTATION_CONTEXT(3)
GLOBAL_UNCERTAINTY_ASSIGNED_CONTEXT((#644))
GLOBAL_UNIT_ASSIGNED_CONTEXT((#647,#646,#645))
REPRESENTATION_CONTEXT('Part 1','TOP_LEVEL_ASSEMBLY_PART')
);
#644=UNCERTAINTY_MEASURE_WITH_UNIT(LENGTH_MEASURE(1.E-8),#647,
'DISTANCE_ACCURACY_VALUE','Maximum Tolerance applied to model');
#645=(
NAMED_UNIT(*)
SI_UNIT($,.STERADIAN.)
SOLID_ANGLE_UNIT()
);
#646=(
NAMED_UNIT(*)
PLANE_ANGLE_UNIT()
SI_UNIT($,.RADIAN.)
);
#647=(
LENGTH_UNIT()
NAMED_UNIT(*)
SI_UNIT($,.METRE.)
);
#648=PRODUCT_DEFINITION_SHAPE('','',#649);
#649=PRODUCT_DEFINITION('','',#651,#650);
#650=PRODUCT_DEFINITION_CONTEXT('',#657,'design');
#651=PRODUCT_DEFINITION_FORMATION_WITH_SPECIFIED_SOURCE('','',#653,
 .NOT_KNOWN.);
#652=PRODUCT_RELATED_PRODUCT_CATEGORY('','',(#653));
#653=PRODUCT('Part 1','Part 1','Part 1',(#655));
#654=PRODUCT_CATEGORY('','');
#655=PRODUCT_CONTEXT('',#657,'mechanical');
#656=APPLICATION_PROTOCOL_DEFINITION('international standard',
'ap242_managed_model_based_3d_engineering',2020,#657);
#657=APPLICATION_CONTEXT('managed model based 3d engineering');
ENDSEC;
END-ISO-10303-21;
