ISO-10303-21;
HEADER;
/* Generated by software containing ST-Developer
 * from STEP Tools, Inc. (www.steptools.com) 
 */
/* OPTION: using custom renumber hook */

FILE_DESCRIPTION(
/* description */ ('STEP AP242 Edition 2',
'CAx-IF Rec.Pracs.---Representation and Presentation of Product Manufa
cturing Information (PMI)---4.0---2014-10-13',
'CAx-IF Rec.Pracs.---3D Tessellated Geometry---0.4---2014-09-14','2;1',
'CAx-IF Rec.Pracs.---User Defined Attributes---1.5---2016-08-15'),
/* implementation_level */ '2;1');

FILE_NAME(
/* name */ 'Legs',
/* time_stamp */ '2026-08-28T05:25:43Z',
/* author */ (''),
/* organization */ (''),
/* preprocessor_version */ 'ST-DEVELOPER v20',
/* originating_system */ 'ONSHAPE BY PTC INC, 1.219',
/* authorisation */ '  ');

FILE_SCHEMA (('AP242_MANAGED_MODEL_BASED_3D_ENGINEERING_MIM_LF { 1 0 10303 442 3 1 4 }'));
ENDSEC;

DATA;
#10=SHAPE_REPRESENTATION_RELATIONSHIP('','',#311,#11);
#11=ADVANCED_BREP_SHAPE_REPRESENTATION('',(#309),#521);
#12=CYLINDRICAL_SURFACE('',#337,0.00306605122421383);
#13=CYLINDRICAL_SURFACE('',#338,0.00306605122421383);
#14=CYLINDRICAL_SURFACE('',#339,0.00306605122421383);
#15=CYLINDRICAL_SURFACE('',#340,0.00306605122421383);
#16=CYLINDRICAL_SURFACE('',#341,0.00981136391748426);
#17=CYLINDRICAL_SURFACE('',#342,0.00981136391748426);
#18=CYLINDRICAL_SURFACE('',#343,0.001905);
#19=CYLINDRICAL_SURFACE('',#344,0.001905);
#20=LINE('',#439,#44);
#21=LINE('',#442,#45);
#22=LINE('',#444,#46);
#23=LINE('',#446,#47);
#24=LINE('',#450,#48);
#25=LINE('',#453,#49);
#26=LINE('',#455,#50);
#27=LINE('',#457,#51);
#28=LINE('',#464,#52);
#29=LINE('',#468,#53);
#30=LINE('',#474,#54);
#31=LINE('',#476,#55);
#32=LINE('',#481,#56);
#33=LINE('',#483,#57);
#34=LINE('',#489,#58);
#35=LINE('',#493,#59);
#36=LINE('',#497,#60);
#37=LINE('',#501,#61);
#38=LINE('',#503,#62);
#39=LINE('',#504,#63);
#40=LINE('',#508,#64);
#41=LINE('',#509,#65);
#42=LINE('',#511,#66);
#43=LINE('',#514,#67);
#44=VECTOR('',#351,1.);
#45=VECTOR('',#352,1.);
#46=VECTOR('',#353,1.);
#47=VECTOR('',#354,1.);
#48=VECTOR('',#359,1.);
#49=VECTOR('',#360,1.);
#50=VECTOR('',#361,1.);
#51=VECTOR('',#362,1.);
#52=VECTOR('',#371,1.);
#53=VECTOR('',#374,1.);
#54=VECTOR('',#379,1.);
#55=VECTOR('',#380,1.);
#56=VECTOR('',#387,1.);
#57=VECTOR('',#388,1.);
#58=VECTOR('',#393,1.);
#59=VECTOR('',#396,1.);
#60=VECTOR('',#401,1.);
#61=VECTOR('',#406,1.);
#62=VECTOR('',#409,1.);
#63=VECTOR('',#410,1.);
#64=VECTOR('',#415,1.);
#65=VECTOR('',#416,1.);
#66=VECTOR('',#419,1.);
#67=VECTOR('',#424,1.);
#68=ORIENTED_EDGE('',*,*,#148,.F.);
#69=ORIENTED_EDGE('',*,*,#149,.T.);
#70=ORIENTED_EDGE('',*,*,#150,.T.);
#71=ORIENTED_EDGE('',*,*,#151,.F.);
#72=ORIENTED_EDGE('',*,*,#152,.T.);
#73=ORIENTED_EDGE('',*,*,#153,.T.);
#74=ORIENTED_EDGE('',*,*,#154,.F.);
#75=ORIENTED_EDGE('',*,*,#155,.T.);
#76=ORIENTED_EDGE('',*,*,#156,.T.);
#77=ORIENTED_EDGE('',*,*,#157,.T.);
#78=ORIENTED_EDGE('',*,*,#156,.F.);
#79=ORIENTED_EDGE('',*,*,#158,.T.);
#80=ORIENTED_EDGE('',*,*,#159,.T.);
#81=ORIENTED_EDGE('',*,*,#151,.T.);
#82=ORIENTED_EDGE('',*,*,#160,.T.);
#83=ORIENTED_EDGE('',*,*,#161,.T.);
#84=ORIENTED_EDGE('',*,*,#162,.T.);
#85=ORIENTED_EDGE('',*,*,#163,.F.);
#86=ORIENTED_EDGE('',*,*,#164,.T.);
#87=ORIENTED_EDGE('',*,*,#165,.T.);
#88=ORIENTED_EDGE('',*,*,#166,.T.);
#89=ORIENTED_EDGE('',*,*,#167,.F.);
#90=ORIENTED_EDGE('',*,*,#168,.T.);
#91=ORIENTED_EDGE('',*,*,#169,.T.);
#92=ORIENTED_EDGE('',*,*,#154,.T.);
#93=ORIENTED_EDGE('',*,*,#170,.T.);
#94=ORIENTED_EDGE('',*,*,#171,.F.);
#95=ORIENTED_EDGE('',*,*,#172,.T.);
#96=ORIENTED_EDGE('',*,*,#173,.T.);
#97=ORIENTED_EDGE('',*,*,#174,.T.);
#98=ORIENTED_EDGE('',*,*,#175,.T.);
#99=ORIENTED_EDGE('',*,*,#176,.F.);
#100=ORIENTED_EDGE('',*,*,#177,.T.);
#101=ORIENTED_EDGE('',*,*,#149,.F.);
#102=ORIENTED_EDGE('',*,*,#157,.F.);
#103=ORIENTED_EDGE('',*,*,#167,.T.);
#104=ORIENTED_EDGE('',*,*,#178,.F.);
#105=ORIENTED_EDGE('',*,*,#170,.F.);
#106=ORIENTED_EDGE('',*,*,#179,.T.);
#107=ORIENTED_EDGE('',*,*,#166,.F.);
#108=ORIENTED_EDGE('',*,*,#180,.T.);
#109=ORIENTED_EDGE('',*,*,#171,.T.);
#110=ORIENTED_EDGE('',*,*,#178,.T.);
#111=ORIENTED_EDGE('',*,*,#161,.F.);
#112=ORIENTED_EDGE('',*,*,#181,.T.);
#113=ORIENTED_EDGE('',*,*,#176,.T.);
#114=ORIENTED_EDGE('',*,*,#182,.T.);
#115=ORIENTED_EDGE('',*,*,#183,.F.);
#116=ORIENTED_EDGE('',*,*,#163,.T.);
#117=ORIENTED_EDGE('',*,*,#184,.T.);
#118=ORIENTED_EDGE('',*,*,#174,.F.);
#119=ORIENTED_EDGE('',*,*,#185,.T.);
#120=ORIENTED_EDGE('',*,*,#152,.F.);
#121=ORIENTED_EDGE('',*,*,#159,.F.);
#122=ORIENTED_EDGE('',*,*,#186,.F.);
#123=ORIENTED_EDGE('',*,*,#168,.F.);
#124=ORIENTED_EDGE('',*,*,#158,.F.);
#125=ORIENTED_EDGE('',*,*,#155,.F.);
#126=ORIENTED_EDGE('',*,*,#169,.F.);
#127=ORIENTED_EDGE('',*,*,#186,.T.);
#128=ORIENTED_EDGE('',*,*,#180,.F.);
#129=ORIENTED_EDGE('',*,*,#165,.F.);
#130=ORIENTED_EDGE('',*,*,#187,.F.);
#131=ORIENTED_EDGE('',*,*,#172,.F.);
#132=ORIENTED_EDGE('',*,*,#164,.F.);
#133=ORIENTED_EDGE('',*,*,#185,.F.);
#134=ORIENTED_EDGE('',*,*,#173,.F.);
#135=ORIENTED_EDGE('',*,*,#187,.T.);
#136=ORIENTED_EDGE('',*,*,#177,.F.);
#137=ORIENTED_EDGE('',*,*,#181,.F.);
#138=ORIENTED_EDGE('',*,*,#160,.F.);
#139=ORIENTED_EDGE('',*,*,#150,.F.);
#140=ORIENTED_EDGE('',*,*,#175,.F.);
#141=ORIENTED_EDGE('',*,*,#184,.F.);
#142=ORIENTED_EDGE('',*,*,#162,.F.);
#143=ORIENTED_EDGE('',*,*,#182,.F.);
#144=ORIENTED_EDGE('',*,*,#183,.T.);
#145=ORIENTED_EDGE('',*,*,#179,.F.);
#146=ORIENTED_EDGE('',*,*,#148,.T.);
#147=ORIENTED_EDGE('',*,*,#153,.F.);
#148=EDGE_CURVE('',#188,#188,#216,.T.);
#149=EDGE_CURVE('',#189,#190,#20,.T.);
#150=EDGE_CURVE('',#190,#191,#21,.T.);
#151=EDGE_CURVE('',#192,#191,#22,.T.);
#152=EDGE_CURVE('',#192,#189,#23,.T.);
#153=EDGE_CURVE('',#193,#193,#217,.T.);
#154=EDGE_CURVE('',#194,#195,#24,.T.);
#155=EDGE_CURVE('',#194,#196,#25,.F.);
#156=EDGE_CURVE('',#196,#197,#26,.T.);
#157=EDGE_CURVE('',#197,#195,#27,.T.);
#158=EDGE_CURVE('',#196,#198,#218,.T.);
#159=EDGE_CURVE('',#198,#192,#219,.T.);
#160=EDGE_CURVE('',#191,#199,#220,.F.);
#161=EDGE_CURVE('',#199,#200,#28,.T.);
#162=EDGE_CURVE('',#200,#201,#221,.F.);
#163=EDGE_CURVE('',#202,#201,#29,.T.);
#164=EDGE_CURVE('',#202,#203,#222,.T.);
#165=EDGE_CURVE('',#203,#204,#223,.T.);
#166=EDGE_CURVE('',#204,#205,#30,.T.);
#167=EDGE_CURVE('',#197,#205,#31,.T.);
#168=EDGE_CURVE('',#189,#206,#224,.F.);
#169=EDGE_CURVE('',#206,#194,#225,.F.);
#170=EDGE_CURVE('',#195,#207,#32,.T.);
#171=EDGE_CURVE('',#208,#207,#33,.T.);
#172=EDGE_CURVE('',#208,#209,#226,.F.);
#173=EDGE_CURVE('',#209,#210,#227,.F.);
#174=EDGE_CURVE('',#210,#211,#34,.T.);
#175=EDGE_CURVE('',#211,#212,#228,.T.);
#176=EDGE_CURVE('',#213,#212,#35,.T.);
#177=EDGE_CURVE('',#213,#190,#229,.T.);
#178=EDGE_CURVE('',#207,#205,#36,.T.);
#179=EDGE_CURVE('',#214,#214,#230,.T.);
#180=EDGE_CURVE('',#204,#208,#37,.T.);
#181=EDGE_CURVE('',#199,#213,#38,.F.);
#182=EDGE_CURVE('',#212,#200,#39,.T.);
#183=EDGE_CURVE('',#215,#215,#231,.T.);
#184=EDGE_CURVE('',#201,#211,#40,.F.);
#185=EDGE_CURVE('',#210,#202,#41,.F.);
#186=EDGE_CURVE('',#206,#198,#42,.T.);
#187=EDGE_CURVE('',#209,#203,#43,.F.);
#188=VERTEX_POINT('',#438);
#189=VERTEX_POINT('',#440);
#190=VERTEX_POINT('',#441);
#191=VERTEX_POINT('',#443);
#192=VERTEX_POINT('',#445);
#193=VERTEX_POINT('',#449);
#194=VERTEX_POINT('',#451);
#195=VERTEX_POINT('',#452);
#196=VERTEX_POINT('',#454);
#197=VERTEX_POINT('',#456);
#198=VERTEX_POINT('',#460);
#199=VERTEX_POINT('',#463);
#200=VERTEX_POINT('',#465);
#201=VERTEX_POINT('',#467);
#202=VERTEX_POINT('',#469);
#203=VERTEX_POINT('',#471);
#204=VERTEX_POINT('',#473);
#205=VERTEX_POINT('',#475);
#206=VERTEX_POINT('',#479);
#207=VERTEX_POINT('',#482);
#208=VERTEX_POINT('',#484);
#209=VERTEX_POINT('',#486);
#210=VERTEX_POINT('',#488);
#211=VERTEX_POINT('',#490);
#212=VERTEX_POINT('',#492);
#213=VERTEX_POINT('',#494);
#214=VERTEX_POINT('',#500);
#215=VERTEX_POINT('',#507);
#216=CIRCLE('',#314,0.001905);
#217=CIRCLE('',#316,0.001905);
#218=CIRCLE('',#318,0.00306605122421383);
#219=CIRCLE('',#319,0.00306605122421383);
#220=CIRCLE('',#320,0.00981136391748426);
#221=CIRCLE('',#321,0.00981136391748426);
#222=CIRCLE('',#322,0.00306605122421383);
#223=CIRCLE('',#323,0.00306605122421383);
#224=CIRCLE('',#325,0.00306605122421383);
#225=CIRCLE('',#326,0.00306605122421383);
#226=CIRCLE('',#327,0.00306605122421383);
#227=CIRCLE('',#328,0.00306605122421383);
#228=CIRCLE('',#329,0.00981136391748426);
#229=CIRCLE('',#330,0.00981136391748426);
#230=CIRCLE('',#333,0.001905);
#231=CIRCLE('',#336,0.001905);
#232=EDGE_LOOP('',(#68));
#233=EDGE_LOOP('',(#69,#70,#71,#72));
#234=EDGE_LOOP('',(#73));
#235=EDGE_LOOP('',(#74,#75,#76,#77));
#236=EDGE_LOOP('',(#78,#79,#80,#81,#82,#83,#84,#85,#86,#87,#88,#89));
#237=EDGE_LOOP('',(#90,#91,#92,#93,#94,#95,#96,#97,#98,#99,#100,#101));
#238=EDGE_LOOP('',(#102,#103,#104,#105));
#239=EDGE_LOOP('',(#106));
#240=EDGE_LOOP('',(#107,#108,#109,#110));
#241=EDGE_LOOP('',(#111,#112,#113,#114));
#242=EDGE_LOOP('',(#115));
#243=EDGE_LOOP('',(#116,#117,#118,#119));
#244=EDGE_LOOP('',(#120,#121,#122,#123));
#245=EDGE_LOOP('',(#124,#125,#126,#127));
#246=EDGE_LOOP('',(#128,#129,#130,#131));
#247=EDGE_LOOP('',(#132,#133,#134,#135));
#248=EDGE_LOOP('',(#136,#137,#138,#139));
#249=EDGE_LOOP('',(#140,#141,#142,#143));
#250=EDGE_LOOP('',(#144));
#251=EDGE_LOOP('',(#145));
#252=EDGE_LOOP('',(#146));
#253=EDGE_LOOP('',(#147));
#254=FACE_BOUND('',#232,.T.);
#255=FACE_BOUND('',#233,.T.);
#256=FACE_BOUND('',#234,.T.);
#257=FACE_BOUND('',#235,.T.);
#258=FACE_BOUND('',#236,.T.);
#259=FACE_BOUND('',#237,.T.);
#260=FACE_BOUND('',#238,.T.);
#261=FACE_BOUND('',#239,.T.);
#262=FACE_BOUND('',#240,.T.);
#263=FACE_BOUND('',#241,.T.);
#264=FACE_BOUND('',#242,.T.);
#265=FACE_BOUND('',#243,.T.);
#266=FACE_BOUND('',#244,.T.);
#267=FACE_BOUND('',#245,.T.);
#268=FACE_BOUND('',#246,.T.);
#269=FACE_BOUND('',#247,.T.);
#270=FACE_BOUND('',#248,.T.);
#271=FACE_BOUND('',#249,.T.);
#272=FACE_BOUND('',#250,.T.);
#273=FACE_BOUND('',#251,.T.);
#274=FACE_BOUND('',#252,.T.);
#275=FACE_BOUND('',#253,.T.);
#276=PLANE('',#313);
#277=PLANE('',#315);
#278=PLANE('',#317);
#279=PLANE('',#324);
#280=PLANE('',#331);
#281=PLANE('',#332);
#282=PLANE('',#334);
#283=PLANE('',#335);
#284=ADVANCED_FACE('',(#254,#255),#276,.T.);
#285=ADVANCED_FACE('',(#256,#257),#277,.F.);
#286=ADVANCED_FACE('',(#258),#278,.T.);
#287=ADVANCED_FACE('',(#259),#279,.F.);
#288=ADVANCED_FACE('',(#260),#280,.T.);
#289=ADVANCED_FACE('',(#261,#262),#281,.F.);
#290=ADVANCED_FACE('',(#263),#282,.F.);
#291=ADVANCED_FACE('',(#264,#265),#283,.T.);
#292=ADVANCED_FACE('',(#266),#12,.T.);
#293=ADVANCED_FACE('',(#267),#13,.T.);
#294=ADVANCED_FACE('',(#268),#14,.T.);
#295=ADVANCED_FACE('',(#269),#15,.T.);
#296=ADVANCED_FACE('',(#270),#16,.F.);
#297=ADVANCED_FACE('',(#271),#17,.F.);
#298=ADVANCED_FACE('',(#272,#273),#18,.F.);
#299=ADVANCED_FACE('',(#274,#275),#19,.F.);
#300=CLOSED_SHELL('',(#284,#285,#286,#287,#288,#289,#290,#291,#292,#293,
#294,#295,#296,#297,#298,#299));
#301=STYLED_ITEM('',(#302),#309);
#302=PRESENTATION_STYLE_ASSIGNMENT((#303));
#303=SURFACE_STYLE_USAGE(.BOTH.,#304);
#304=SURFACE_SIDE_STYLE('',(#305));
#305=SURFACE_STYLE_FILL_AREA(#306);
#306=FILL_AREA_STYLE('',(#307));
#307=FILL_AREA_STYLE_COLOUR('',#308);
#308=COLOUR_RGB('',0.615686274509804,0.811764705882353,0.929411764705882);
#309=MANIFOLD_SOLID_BREP('Part 1',#300);
#310=SHAPE_DEFINITION_REPRESENTATION(#526,#311);
#311=SHAPE_REPRESENTATION('Part 1',(#312),#521);
#312=AXIS2_PLACEMENT_3D('',#435,#345,#346);
#313=AXIS2_PLACEMENT_3D('',#436,#347,#348);
#314=AXIS2_PLACEMENT_3D('',#437,#349,#350);
#315=AXIS2_PLACEMENT_3D('',#447,#355,#356);
#316=AXIS2_PLACEMENT_3D('',#448,#357,#358);
#317=AXIS2_PLACEMENT_3D('',#458,#363,#364);
#318=AXIS2_PLACEMENT_3D('',#459,#365,#366);
#319=AXIS2_PLACEMENT_3D('',#461,#367,#368);
#320=AXIS2_PLACEMENT_3D('',#462,#369,#370);
#321=AXIS2_PLACEMENT_3D('',#466,#372,#373);
#322=AXIS2_PLACEMENT_3D('',#470,#375,#376);
#323=AXIS2_PLACEMENT_3D('',#472,#377,#378);
#324=AXIS2_PLACEMENT_3D('',#477,#381,#382);
#325=AXIS2_PLACEMENT_3D('',#478,#383,#384);
#326=AXIS2_PLACEMENT_3D('',#480,#385,#386);
#327=AXIS2_PLACEMENT_3D('',#485,#389,#390);
#328=AXIS2_PLACEMENT_3D('',#487,#391,#392);
#329=AXIS2_PLACEMENT_3D('',#491,#394,#395);
#330=AXIS2_PLACEMENT_3D('',#495,#397,#398);
#331=AXIS2_PLACEMENT_3D('',#496,#399,#400);
#332=AXIS2_PLACEMENT_3D('',#498,#402,#403);
#333=AXIS2_PLACEMENT_3D('',#499,#404,#405);
#334=AXIS2_PLACEMENT_3D('',#502,#407,#408);
#335=AXIS2_PLACEMENT_3D('',#505,#411,#412);
#336=AXIS2_PLACEMENT_3D('',#506,#413,#414);
#337=AXIS2_PLACEMENT_3D('',#510,#417,#418);
#338=AXIS2_PLACEMENT_3D('',#512,#420,#421);
#339=AXIS2_PLACEMENT_3D('',#513,#422,#423);
#340=AXIS2_PLACEMENT_3D('',#515,#425,#426);
#341=AXIS2_PLACEMENT_3D('',#516,#427,#428);
#342=AXIS2_PLACEMENT_3D('',#517,#429,#430);
#343=AXIS2_PLACEMENT_3D('',#518,#431,#432);
#344=AXIS2_PLACEMENT_3D('',#519,#433,#434);
#345=DIRECTION('',(0.,0.,1.));
#346=DIRECTION('',(1.,0.,0.));
#347=DIRECTION('',(1.36592399683213E-16,1.,0.));
#348=DIRECTION('',(-1.,1.36592399683213E-16,0.));
#349=DIRECTION('',(1.36592399683213E-16,1.,0.));
#350=DIRECTION('',(-1.,1.36592399683213E-16,0.));
#351=DIRECTION('',(0.,0.,1.));
#352=DIRECTION('',(1.,-1.36592399683213E-16,0.));
#353=DIRECTION('',(0.,0.,1.));
#354=DIRECTION('',(-1.,1.36592399683213E-16,0.));
#355=DIRECTION('',(1.0244429976241E-16,1.,0.));
#356=DIRECTION('',(-1.,1.0244429976241E-16,0.));
#357=DIRECTION('',(1.0244429976241E-16,1.,0.));
#358=DIRECTION('',(-1.,1.0244429976241E-16,0.));
#359=DIRECTION('',(0.,0.,1.));
#360=DIRECTION('',(-1.,1.0244429976241E-16,0.));
#361=DIRECTION('',(0.,0.,1.));
#362=DIRECTION('',(-1.,1.0244429976241E-16,0.));
#363=DIRECTION('',(1.,-3.41480999208033E-16,0.));
#364=DIRECTION('',(3.41480999208033E-16,1.,0.));
#365=DIRECTION('',(1.,-3.41480999208033E-16,0.));
#366=DIRECTION('',(3.41480999208033E-16,1.,0.));
#367=DIRECTION('',(1.,-3.41480999208033E-16,0.));
#368=DIRECTION('',(3.41480999208033E-16,1.,0.));
#369=DIRECTION('',(1.,-3.41480999208033E-16,0.));
#370=DIRECTION('',(3.41480999208033E-16,1.,0.));
#371=DIRECTION('',(3.41480999208033E-16,1.,0.));
#372=DIRECTION('',(1.,-3.41480999208033E-16,0.));
#373=DIRECTION('',(3.41480999208033E-16,1.,0.));
#374=DIRECTION('',(0.,0.,1.));
#375=DIRECTION('',(1.,-3.41480999208033E-16,0.));
#376=DIRECTION('',(3.41480999208033E-16,1.,0.));
#377=DIRECTION('',(1.,-3.41480999208033E-16,0.));
#378=DIRECTION('',(3.41480999208033E-16,1.,0.));
#379=DIRECTION('',(0.,0.,1.));
#380=DIRECTION('',(3.41480999208033E-16,1.,0.));
#381=DIRECTION('',(1.,-3.41480999208033E-16,0.));
#382=DIRECTION('',(3.41480999208033E-16,1.,0.));
#383=DIRECTION('',(1.,-3.41480999208033E-16,0.));
#384=DIRECTION('',(3.41480999208033E-16,1.,0.));
#385=DIRECTION('',(1.,-3.41480999208033E-16,0.));
#386=DIRECTION('',(3.41480999208033E-16,1.,0.));
#387=DIRECTION('',(3.41480999208033E-16,1.,0.));
#388=DIRECTION('',(0.,0.,1.));
#389=DIRECTION('',(1.,-3.41480999208033E-16,0.));
#390=DIRECTION('',(3.41480999208033E-16,1.,0.));
#391=DIRECTION('',(1.,-3.41480999208033E-16,0.));
#392=DIRECTION('',(3.41480999208033E-16,1.,0.));
#393=DIRECTION('',(0.,0.,1.));
#394=DIRECTION('',(1.,-3.41480999208033E-16,0.));
#395=DIRECTION('',(3.41480999208033E-16,1.,0.));
#396=DIRECTION('',(3.41480999208033E-16,1.,0.));
#397=DIRECTION('',(1.,-3.41480999208033E-16,0.));
#398=DIRECTION('',(3.41480999208033E-16,1.,0.));
#399=DIRECTION('',(0.,0.,1.));
#400=DIRECTION('',(1.,0.,0.));
#401=DIRECTION('',(1.,0.,0.));
#402=DIRECTION('',(0.,-1.,0.));
#403=DIRECTION('',(0.,0.,-1.));
#404=DIRECTION('',(0.,-1.,0.));
#405=DIRECTION('',(0.,0.,-1.));
#406=DIRECTION('',(-1.,0.,0.));
#407=DIRECTION('',(0.,0.,1.));
#408=DIRECTION('',(1.,0.,0.));
#409=DIRECTION('',(1.,-1.36592399683213E-16,0.));
#410=DIRECTION('',(1.,0.,0.));
#411=DIRECTION('',(0.,-1.,0.));
#412=DIRECTION('',(0.,0.,-1.));
#413=DIRECTION('',(0.,-1.,0.));
#414=DIRECTION('',(0.,0.,-1.));
#415=DIRECTION('',(1.,0.,0.));
#416=DIRECTION('',(-1.,0.,0.));
#417=DIRECTION('',(1.,-1.36592399683213E-16,0.));
#418=DIRECTION('',(1.36592399683213E-16,1.,0.));
#419=DIRECTION('',(1.,-1.36592399683213E-16,0.));
#420=DIRECTION('',(-1.,1.0244429976241E-16,0.));
#421=DIRECTION('',(-1.0244429976241E-16,-1.,0.));
#422=DIRECTION('',(-1.,0.,0.));
#423=DIRECTION('',(0.,0.,1.));
#424=DIRECTION('',(-1.,0.,0.));
#425=DIRECTION('',(1.,0.,0.));
#426=DIRECTION('',(0.,0.,-1.));
#427=DIRECTION('',(1.,-1.36592399683213E-16,0.));
#428=DIRECTION('',(1.36592399683213E-16,1.,0.));
#429=DIRECTION('',(1.,0.,0.));
#430=DIRECTION('',(0.,0.,-1.));
#431=DIRECTION('',(-1.0244429976241E-16,-1.,0.));
#432=DIRECTION('',(1.,-1.0244429976241E-16,0.));
#433=DIRECTION('',(-1.0244429976241E-16,-1.,0.));
#434=DIRECTION('',(1.,-1.0244429976241E-16,0.));
#435=CARTESIAN_POINT('',(0.,0.,0.));
#436=CARTESIAN_POINT('',(0.,0.00254,-0.03175));
#437=CARTESIAN_POINT('',(5.20417042793043E-19,0.00254,-0.0261439487757862));
#438=CARTESIAN_POINT('',(-0.001905,0.00254,-0.0261439487757862));
#439=CARTESIAN_POINT('',(-0.00635,0.00254,-0.03175));
#440=CARTESIAN_POINT('',(-0.00635,0.00254,-0.0286839487757862));
#441=CARTESIAN_POINT('',(-0.00635,0.00254,-0.0123513639174843));
#442=CARTESIAN_POINT('',(0.,0.00254,-0.0123513639174843));
#443=CARTESIAN_POINT('',(0.00635,0.00254,-0.0123513639174843));
#444=CARTESIAN_POINT('',(0.00635,0.00254,-0.03175));
#445=CARTESIAN_POINT('',(0.00635,0.00254,-0.0286839487757862));
#446=CARTESIAN_POINT('',(-0.00635,0.00254,-0.0286839487757862));
#447=CARTESIAN_POINT('',(-1.7347234759768E-18,-0.00254,-0.03175));
#448=CARTESIAN_POINT('',(7.70371977754894E-34,-0.00254,-0.0261439487757862));
#449=CARTESIAN_POINT('',(-0.001905,-0.00254,-0.0261439487757862));
#450=CARTESIAN_POINT('',(-0.00635,-0.00254,-0.03175));
#451=CARTESIAN_POINT('',(-0.00635,-0.00254,-0.0286839487757862));
#452=CARTESIAN_POINT('',(-0.00635,-0.00254,0.));
#453=CARTESIAN_POINT('',(-1.7347234759768E-18,-0.00254,-0.0286839487757862));
#454=CARTESIAN_POINT('',(0.00635,-0.00254,-0.0286839487757862));
#455=CARTESIAN_POINT('',(0.00635,-0.00254,-0.03175));
#456=CARTESIAN_POINT('',(0.00635,-0.00254,0.));
#457=CARTESIAN_POINT('',(-1.7347234759768E-18,-0.00254,0.));
#458=CARTESIAN_POINT('',(0.00635,-3.03576608295941E-18,-0.03175));
#459=CARTESIAN_POINT('',(0.00635,0.000526051224213828,-0.0286839487757862));
#460=CARTESIAN_POINT('',(0.00635,-3.36102673470506E-18,-0.0317045348478931));
#461=CARTESIAN_POINT('',(0.00635,-0.000526051224213835,-0.0286839487757862));
#462=CARTESIAN_POINT('',(0.00635,0.0123513639174843,-0.0123513639174843));
#463=CARTESIAN_POINT('',(0.00635,0.0123513639174843,-0.00254));
#464=CARTESIAN_POINT('',(0.00635,-3.03576608295941E-18,-0.00254));
#465=CARTESIAN_POINT('',(0.00635,0.0333686360825158,-0.00254));
#466=CARTESIAN_POINT('',(0.00635,0.0333686360825158,-0.0123513639174843));
#467=CARTESIAN_POINT('',(0.00635,0.04318,-0.0123513639174843));
#468=CARTESIAN_POINT('',(0.00635,0.04318,-0.031752));
#469=CARTESIAN_POINT('',(0.00635,0.04318,-0.0286839487757862));
#470=CARTESIAN_POINT('',(0.00635,0.0462460512242138,-0.0286839487757862));
#471=CARTESIAN_POINT('',(0.00635,0.04572,-0.0317045348478931));
#472=CARTESIAN_POINT('',(0.00635,0.0451939487757862,-0.0286839487757862));
#473=CARTESIAN_POINT('',(0.00635,0.04826,-0.0286839487757862));
#474=CARTESIAN_POINT('',(0.00635,0.04826,-0.00254));
#475=CARTESIAN_POINT('',(0.00635,0.04826,0.));
#476=CARTESIAN_POINT('',(0.00635,-3.03576608295941E-18,0.));
#477=CARTESIAN_POINT('',(-0.00635,-2.16840434497101E-18,-0.03175));
#478=CARTESIAN_POINT('',(-0.00635,-0.000526051224213833,-0.0286839487757862));
#479=CARTESIAN_POINT('',(-0.00635,-1.84314369322536E-18,-0.0317045348478931));
#480=CARTESIAN_POINT('',(-0.00635,0.000526051224213829,-0.0286839487757862));
#481=CARTESIAN_POINT('',(-0.00635,-2.16840434497101E-18,0.));
#482=CARTESIAN_POINT('',(-0.00635,0.04826,0.));
#483=CARTESIAN_POINT('',(-0.00635,0.04826,-0.00254));
#484=CARTESIAN_POINT('',(-0.00635,0.04826,-0.0286839487757862));
#485=CARTESIAN_POINT('',(-0.00635,0.0451939487757862,-0.0286839487757862));
#486=CARTESIAN_POINT('',(-0.00635,0.04572,-0.0317045348478931));
#487=CARTESIAN_POINT('',(-0.00635,0.0462460512242138,-0.0286839487757862));
#488=CARTESIAN_POINT('',(-0.00635,0.04318,-0.0286839487757862));
#489=CARTESIAN_POINT('',(-0.00635,0.04318,-0.031752));
#490=CARTESIAN_POINT('',(-0.00635,0.04318,-0.0123513639174843));
#491=CARTESIAN_POINT('',(-0.00635,0.0333686360825158,-0.0123513639174843));
#492=CARTESIAN_POINT('',(-0.00635,0.0333686360825158,-0.00254));
#493=CARTESIAN_POINT('',(-0.00635,-2.16840434497101E-18,-0.00254));
#494=CARTESIAN_POINT('',(-0.00635,0.0123513639174843,-0.00254));
#495=CARTESIAN_POINT('',(-0.00635,0.0123513639174843,-0.0123513639174843));
#496=CARTESIAN_POINT('',(-1.7347234759768E-18,-2.60208521396521E-18,0.));
#497=CARTESIAN_POINT('',(-1.21430643318376E-17,0.04826,0.));
#498=CARTESIAN_POINT('',(-1.21430643318376E-17,0.04826,-0.00254));
#499=CARTESIAN_POINT('',(5.20417042793042E-18,0.04826,-0.0261439487757862));
#500=CARTESIAN_POINT('',(5.20417042793042E-18,0.04826,-0.0280489487757862));
#501=CARTESIAN_POINT('',(-1.21430643318376E-17,0.04826,-0.0286839487757862));
#502=CARTESIAN_POINT('',(-6.93889390390723E-18,0.02286,-0.00254));
#503=CARTESIAN_POINT('',(-8.37429372381565E-18,0.0123513639174843,-0.00254));
#504=CARTESIAN_POINT('',(-6.93889390390723E-18,0.0333686360825158,-0.00254));
#505=CARTESIAN_POINT('',(0.,0.04318,-0.031752));
#506=CARTESIAN_POINT('',(4.68375338513738E-18,0.04318,-0.0261439487757862));
#507=CARTESIAN_POINT('',(4.68375338513738E-18,0.04318,-0.0280489487757862));
#508=CARTESIAN_POINT('',(0.,0.04318,-0.0123513639174843));
#509=CARTESIAN_POINT('',(0.00635,0.04318,-0.0286839487757862));
#510=CARTESIAN_POINT('',(-4.18799294267021E-19,-0.000526051224213834,-0.0286839487757862));
#511=CARTESIAN_POINT('',(-1.21430643318376E-18,-2.60208521396521E-18,-0.0317045348478931));
#512=CARTESIAN_POINT('',(-1.68083252667306E-18,0.000526051224213829,-0.0286839487757862));
#513=CARTESIAN_POINT('',(-1.21430643318376E-17,0.0451939487757862,-0.0286839487757862));
#514=CARTESIAN_POINT('',(8.67361737988404E-19,0.04572,-0.0317045348478931));
#515=CARTESIAN_POINT('',(-1.7347234759768E-18,0.0462460512242138,-0.0286839487757862));
#516=CARTESIAN_POINT('',(1.34015774165447E-18,0.0123513639174843,-0.0123513639174843));
#517=CARTESIAN_POINT('',(-6.93889390390723E-18,0.0333686360825158,-0.0123513639174843));
#518=CARTESIAN_POINT('',(6.27201109438361E-18,0.0586836220944429,-0.0261439487757862));
#519=CARTESIAN_POINT('',(6.27201109438361E-18,0.0586836220944429,-0.0261439487757862));
#520=MECHANICAL_DESIGN_GEOMETRIC_PRESENTATION_REPRESENTATION('',(#301),
#521);
#521=(
GEOMETRIC_REPRESENTATION_CONTEXT(3)
GLOBAL_UNCERTAINTY_ASSIGNED_CONTEXT((#522))
GLOBAL_UNIT_ASSIGNED_CONTEXT((#525,#524,#523))
REPRESENTATION_CONTEXT('Part 1','TOP_LEVEL_ASSEMBLY_PART')
);
#522=UNCERTAINTY_MEASURE_WITH_UNIT(LENGTH_MEASURE(1.E-8),#525,
'DISTANCE_ACCURACY_VALUE','Maximum Tolerance applied to model');
#523=(
NAMED_UNIT(*)
SI_UNIT($,.STERADIAN.)
SOLID_ANGLE_UNIT()
);
#524=(
NAMED_UNIT(*)
PLANE_ANGLE_UNIT()
SI_UNIT($,.RADIAN.)
);
#525=(
LENGTH_UNIT()
NAMED_UNIT(*)
SI_UNIT($,.METRE.)
);
#526=PRODUCT_DEFINITION_SHAPE('','',#527);
#527=PRODUCT_DEFINITION('','',#529,#528);
#528=PRODUCT_DEFINITION_CONTEXT('',#535,'design');
#529=PRODUCT_DEFINITION_FORMATION_WITH_SPECIFIED_SOURCE('','',#531,
 .NOT_KNOWN.);
#530=PRODUCT_RELATED_PRODUCT_CATEGORY('','',(#531));
#531=PRODUCT('Part 1','Part 1','Part 1',(#533));
#532=PRODUCT_CATEGORY('','');
#533=PRODUCT_CONTEXT('',#535,'mechanical');
#534=APPLICATION_PROTOCOL_DEFINITION('international standard',
'ap242_managed_model_based_3d_engineering',2020,#535);
#535=APPLICATION_CONTEXT('managed model based 3d engineering');
ENDSEC;
END-ISO-10303-21;
