ISO-10303-21;
HEADER;
/* Generated by software containing ST-Developer
 * from STEP Tools, Inc. (www.steptools.com) 
 */
/* OPTION: using custom renumber hook */

FILE_DESCRIPTION(
/* description */ ('STEP AP242 Edition 2',
'CAx-IF Rec.Pracs.---Representation and Presentation of Product Manufa
cturing Information (PMI)---4.0---2014-10-13',
'CAx-IF Rec.Pracs.---3D Tessellated Geometry---0.4---2014-09-14','2;1',
'CAx-IF Rec.Pracs.---User Defined Attributes---1.5---2016-08-15'),
/* implementation_level */ '2;1');

FILE_NAME(
/* name */ 'Top cover',
/* time_stamp */ '2026-08-28T05:26:25Z',
/* author */ (''),
/* organization */ (''),
/* preprocessor_version */ 'ST-DEVELOPER v20',
/* originating_system */ 'ONSHAPE BY PTC INC, 1.219',
/* authorisation */ '  ');

FILE_SCHEMA (('AP242_MANAGED_MODEL_BASED_3D_ENGINEERING_MIM_LF { 1 0 10303 442 3 1 4 }'));
ENDSEC;

DATA;
#10=SHAPE_REPRESENTATION_RELATIONSHIP('','',#289,#11);
#11=ADVANCED_BREP_SHAPE_REPRESENTATION('',(#287),#451);
#12=ORIENTED_EDGE('',*,*,#84,.F.);
#13=ORIENTED_EDGE('',*,*,#85,.T.);
#14=ORIENTED_EDGE('',*,*,#86,.T.);
#15=ORIENTED_EDGE('',*,*,#87,.F.);
#16=ORIENTED_EDGE('',*,*,#88,.T.);
#17=ORIENTED_EDGE('',*,*,#89,.T.);
#18=ORIENTED_EDGE('',*,*,#90,.F.);
#19=ORIENTED_EDGE('',*,*,#91,.F.);
#20=ORIENTED_EDGE('',*,*,#92,.F.);
#21=ORIENTED_EDGE('',*,*,#93,.T.);
#22=ORIENTED_EDGE('',*,*,#94,.F.);
#23=ORIENTED_EDGE('',*,*,#95,.F.);
#24=ORIENTED_EDGE('',*,*,#96,.F.);
#25=ORIENTED_EDGE('',*,*,#97,.F.);
#26=ORIENTED_EDGE('',*,*,#84,.T.);
#27=ORIENTED_EDGE('',*,*,#98,.T.);
#28=ORIENTED_EDGE('',*,*,#99,.T.);
#29=ORIENTED_EDGE('',*,*,#100,.F.);
#30=ORIENTED_EDGE('',*,*,#85,.F.);
#31=ORIENTED_EDGE('',*,*,#97,.T.);
#32=ORIENTED_EDGE('',*,*,#101,.T.);
#33=ORIENTED_EDGE('',*,*,#102,.F.);
#34=ORIENTED_EDGE('',*,*,#86,.F.);
#35=ORIENTED_EDGE('',*,*,#100,.T.);
#36=ORIENTED_EDGE('',*,*,#103,.F.);
#37=ORIENTED_EDGE('',*,*,#98,.F.);
#38=ORIENTED_EDGE('',*,*,#87,.T.);
#39=ORIENTED_EDGE('',*,*,#102,.T.);
#40=ORIENTED_EDGE('',*,*,#96,.T.);
#41=ORIENTED_EDGE('',*,*,#103,.T.);
#42=ORIENTED_EDGE('',*,*,#101,.F.);
#43=ORIENTED_EDGE('',*,*,#99,.F.);
#44=ORIENTED_EDGE('',*,*,#89,.F.);
#45=ORIENTED_EDGE('',*,*,#104,.F.);
#46=ORIENTED_EDGE('',*,*,#105,.T.);
#47=ORIENTED_EDGE('',*,*,#106,.T.);
#48=ORIENTED_EDGE('',*,*,#88,.F.);
#49=ORIENTED_EDGE('',*,*,#107,.F.);
#50=ORIENTED_EDGE('',*,*,#108,.T.);
#51=ORIENTED_EDGE('',*,*,#104,.T.);
#52=ORIENTED_EDGE('',*,*,#95,.T.);
#53=ORIENTED_EDGE('',*,*,#109,.F.);
#54=ORIENTED_EDGE('',*,*,#110,.F.);
#55=ORIENTED_EDGE('',*,*,#107,.T.);
#56=ORIENTED_EDGE('',*,*,#94,.T.);
#57=ORIENTED_EDGE('',*,*,#111,.F.);
#58=ORIENTED_EDGE('',*,*,#112,.F.);
#59=ORIENTED_EDGE('',*,*,#109,.T.);
#60=ORIENTED_EDGE('',*,*,#93,.F.);
#61=ORIENTED_EDGE('',*,*,#113,.F.);
#62=ORIENTED_EDGE('',*,*,#114,.T.);
#63=ORIENTED_EDGE('',*,*,#111,.T.);
#64=ORIENTED_EDGE('',*,*,#92,.T.);
#65=ORIENTED_EDGE('',*,*,#115,.F.);
#66=ORIENTED_EDGE('',*,*,#116,.F.);
#67=ORIENTED_EDGE('',*,*,#113,.T.);
#68=ORIENTED_EDGE('',*,*,#91,.T.);
#69=ORIENTED_EDGE('',*,*,#117,.F.);
#70=ORIENTED_EDGE('',*,*,#118,.F.);
#71=ORIENTED_EDGE('',*,*,#115,.T.);
#72=ORIENTED_EDGE('',*,*,#90,.T.);
#73=ORIENTED_EDGE('',*,*,#106,.F.);
#74=ORIENTED_EDGE('',*,*,#119,.F.);
#75=ORIENTED_EDGE('',*,*,#117,.T.);
#76=ORIENTED_EDGE('',*,*,#105,.F.);
#77=ORIENTED_EDGE('',*,*,#108,.F.);
#78=ORIENTED_EDGE('',*,*,#110,.T.);
#79=ORIENTED_EDGE('',*,*,#112,.T.);
#80=ORIENTED_EDGE('',*,*,#114,.F.);
#81=ORIENTED_EDGE('',*,*,#116,.T.);
#82=ORIENTED_EDGE('',*,*,#118,.T.);
#83=ORIENTED_EDGE('',*,*,#119,.T.);
#84=EDGE_CURVE('',#120,#121,#144,.T.);
#85=EDGE_CURVE('',#120,#122,#145,.T.);
#86=EDGE_CURVE('',#122,#123,#146,.T.);
#87=EDGE_CURVE('',#121,#123,#147,.T.);
#88=EDGE_CURVE('',#124,#125,#148,.T.);
#89=EDGE_CURVE('',#125,#126,#149,.T.);
#90=EDGE_CURVE('',#127,#126,#150,.T.);
#91=EDGE_CURVE('',#128,#127,#151,.T.);
#92=EDGE_CURVE('',#129,#128,#152,.T.);
#93=EDGE_CURVE('',#129,#130,#153,.T.);
#94=EDGE_CURVE('',#131,#130,#154,.T.);
#95=EDGE_CURVE('',#124,#131,#155,.T.);
#96=EDGE_CURVE('',#132,#133,#156,.T.);
#97=EDGE_CURVE('',#120,#132,#157,.T.);
#98=EDGE_CURVE('',#121,#133,#158,.T.);
#99=EDGE_CURVE('',#132,#134,#159,.T.);
#100=EDGE_CURVE('',#122,#134,#160,.T.);
#101=EDGE_CURVE('',#134,#135,#161,.T.);
#102=EDGE_CURVE('',#123,#135,#162,.T.);
#103=EDGE_CURVE('',#133,#135,#163,.T.);
#104=EDGE_CURVE('',#136,#125,#164,.T.);
#105=EDGE_CURVE('',#136,#137,#165,.T.);
#106=EDGE_CURVE('',#137,#126,#166,.T.);
#107=EDGE_CURVE('',#138,#124,#167,.T.);
#108=EDGE_CURVE('',#138,#136,#168,.T.);
#109=EDGE_CURVE('',#139,#131,#169,.T.);
#110=EDGE_CURVE('',#138,#139,#170,.T.);
#111=EDGE_CURVE('',#140,#130,#171,.T.);
#112=EDGE_CURVE('',#139,#140,#172,.T.);
#113=EDGE_CURVE('',#141,#129,#173,.T.);
#114=EDGE_CURVE('',#141,#140,#174,.T.);
#115=EDGE_CURVE('',#142,#128,#175,.T.);
#116=EDGE_CURVE('',#141,#142,#176,.T.);
#117=EDGE_CURVE('',#143,#127,#177,.T.);
#118=EDGE_CURVE('',#142,#143,#178,.T.);
#119=EDGE_CURVE('',#143,#137,#179,.T.);
#120=VERTEX_POINT('',#377);
#121=VERTEX_POINT('',#378);
#122=VERTEX_POINT('',#380);
#123=VERTEX_POINT('',#382);
#124=VERTEX_POINT('',#385);
#125=VERTEX_POINT('',#386);
#126=VERTEX_POINT('',#388);
#127=VERTEX_POINT('',#390);
#128=VERTEX_POINT('',#392);
#129=VERTEX_POINT('',#394);
#130=VERTEX_POINT('',#396);
#131=VERTEX_POINT('',#398);
#132=VERTEX_POINT('',#402);
#133=VERTEX_POINT('',#403);
#134=VERTEX_POINT('',#408);
#135=VERTEX_POINT('',#412);
#136=VERTEX_POINT('',#419);
#137=VERTEX_POINT('',#421);
#138=VERTEX_POINT('',#425);
#139=VERTEX_POINT('',#429);
#140=VERTEX_POINT('',#433);
#141=VERTEX_POINT('',#437);
#142=VERTEX_POINT('',#441);
#143=VERTEX_POINT('',#445);
#144=LINE('',#376,#180);
#145=LINE('',#379,#181);
#146=LINE('',#381,#182);
#147=LINE('',#383,#183);
#148=LINE('',#384,#184);
#149=LINE('',#387,#185);
#150=LINE('',#389,#186);
#151=LINE('',#391,#187);
#152=LINE('',#393,#188);
#153=LINE('',#395,#189);
#154=LINE('',#397,#190);
#155=LINE('',#399,#191);
#156=LINE('',#401,#192);
#157=LINE('',#404,#193);
#158=LINE('',#405,#194);
#159=LINE('',#407,#195);
#160=LINE('',#409,#196);
#161=LINE('',#411,#197);
#162=LINE('',#413,#198);
#163=LINE('',#415,#199);
#164=LINE('',#418,#200);
#165=LINE('',#420,#201);
#166=LINE('',#422,#202);
#167=LINE('',#424,#203);
#168=LINE('',#426,#204);
#169=LINE('',#428,#205);
#170=LINE('',#430,#206);
#171=LINE('',#432,#207);
#172=LINE('',#434,#208);
#173=LINE('',#436,#209);
#174=LINE('',#438,#210);
#175=LINE('',#440,#211);
#176=LINE('',#442,#212);
#177=LINE('',#444,#213);
#178=LINE('',#446,#214);
#179=LINE('',#448,#215);
#180=VECTOR('',#310,1.);
#181=VECTOR('',#311,1.);
#182=VECTOR('',#312,1.);
#183=VECTOR('',#313,1.);
#184=VECTOR('',#314,1.);
#185=VECTOR('',#315,1.);
#186=VECTOR('',#316,1.);
#187=VECTOR('',#317,1.);
#188=VECTOR('',#318,1.);
#189=VECTOR('',#319,1.);
#190=VECTOR('',#320,1.);
#191=VECTOR('',#321,1.);
#192=VECTOR('',#324,1.);
#193=VECTOR('',#325,1.);
#194=VECTOR('',#326,1.);
#195=VECTOR('',#329,1.);
#196=VECTOR('',#330,1.);
#197=VECTOR('',#333,1.);
#198=VECTOR('',#334,1.);
#199=VECTOR('',#337,1.);
#200=VECTOR('',#342,1.);
#201=VECTOR('',#343,1.);
#202=VECTOR('',#344,1.);
#203=VECTOR('',#347,1.);
#204=VECTOR('',#348,1.);
#205=VECTOR('',#351,1.);
#206=VECTOR('',#352,1.);
#207=VECTOR('',#355,1.);
#208=VECTOR('',#356,1.);
#209=VECTOR('',#359,1.);
#210=VECTOR('',#360,1.);
#211=VECTOR('',#363,1.);
#212=VECTOR('',#364,1.);
#213=VECTOR('',#367,1.);
#214=VECTOR('',#368,1.);
#215=VECTOR('',#371,1.);
#216=EDGE_LOOP('',(#12,#13,#14,#15));
#217=EDGE_LOOP('',(#16,#17,#18,#19,#20,#21,#22,#23));
#218=EDGE_LOOP('',(#24,#25,#26,#27));
#219=EDGE_LOOP('',(#28,#29,#30,#31));
#220=EDGE_LOOP('',(#32,#33,#34,#35));
#221=EDGE_LOOP('',(#36,#37,#38,#39));
#222=EDGE_LOOP('',(#40,#41,#42,#43));
#223=EDGE_LOOP('',(#44,#45,#46,#47));
#224=EDGE_LOOP('',(#48,#49,#50,#51));
#225=EDGE_LOOP('',(#52,#53,#54,#55));
#226=EDGE_LOOP('',(#56,#57,#58,#59));
#227=EDGE_LOOP('',(#60,#61,#62,#63));
#228=EDGE_LOOP('',(#64,#65,#66,#67));
#229=EDGE_LOOP('',(#68,#69,#70,#71));
#230=EDGE_LOOP('',(#72,#73,#74,#75));
#231=EDGE_LOOP('',(#76,#77,#78,#79,#80,#81,#82,#83));
#232=FACE_BOUND('',#216,.T.);
#233=FACE_BOUND('',#217,.T.);
#234=FACE_BOUND('',#218,.T.);
#235=FACE_BOUND('',#219,.T.);
#236=FACE_BOUND('',#220,.T.);
#237=FACE_BOUND('',#221,.T.);
#238=FACE_BOUND('',#222,.T.);
#239=FACE_BOUND('',#223,.T.);
#240=FACE_BOUND('',#224,.T.);
#241=FACE_BOUND('',#225,.T.);
#242=FACE_BOUND('',#226,.T.);
#243=FACE_BOUND('',#227,.T.);
#244=FACE_BOUND('',#228,.T.);
#245=FACE_BOUND('',#229,.T.);
#246=FACE_BOUND('',#230,.T.);
#247=FACE_BOUND('',#231,.T.);
#248=PLANE('',#291);
#249=PLANE('',#292);
#250=PLANE('',#293);
#251=PLANE('',#294);
#252=PLANE('',#295);
#253=PLANE('',#296);
#254=PLANE('',#297);
#255=PLANE('',#298);
#256=PLANE('',#299);
#257=PLANE('',#300);
#258=PLANE('',#301);
#259=PLANE('',#302);
#260=PLANE('',#303);
#261=PLANE('',#304);
#262=PLANE('',#305);
#263=ADVANCED_FACE('',(#232,#233),#248,.T.);
#264=ADVANCED_FACE('',(#234),#249,.T.);
#265=ADVANCED_FACE('',(#235),#250,.F.);
#266=ADVANCED_FACE('',(#236),#251,.F.);
#267=ADVANCED_FACE('',(#237),#252,.T.);
#268=ADVANCED_FACE('',(#238),#253,.F.);
#269=ADVANCED_FACE('',(#239),#254,.T.);
#270=ADVANCED_FACE('',(#240),#255,.T.);
#271=ADVANCED_FACE('',(#241),#256,.F.);
#272=ADVANCED_FACE('',(#242),#257,.F.);
#273=ADVANCED_FACE('',(#243),#258,.T.);
#274=ADVANCED_FACE('',(#244),#259,.F.);
#275=ADVANCED_FACE('',(#245),#260,.F.);
#276=ADVANCED_FACE('',(#246),#261,.F.);
#277=ADVANCED_FACE('',(#247),#262,.T.);
#278=CLOSED_SHELL('',(#263,#264,#265,#266,#267,#268,#269,#270,#271,#272,
#273,#274,#275,#276,#277));
#279=STYLED_ITEM('',(#280),#287);
#280=PRESENTATION_STYLE_ASSIGNMENT((#281));
#281=SURFACE_STYLE_USAGE(.BOTH.,#282);
#282=SURFACE_SIDE_STYLE('',(#283));
#283=SURFACE_STYLE_FILL_AREA(#284);
#284=FILL_AREA_STYLE('',(#285));
#285=FILL_AREA_STYLE_COLOUR('',#286);
#286=COLOUR_RGB('',0.615686274509804,0.811764705882353,0.929411764705882);
#287=MANIFOLD_SOLID_BREP('Part 1',#278);
#288=SHAPE_DEFINITION_REPRESENTATION(#456,#289);
#289=SHAPE_REPRESENTATION('Part 1',(#290),#451);
#290=AXIS2_PLACEMENT_3D('',#374,#306,#307);
#291=AXIS2_PLACEMENT_3D('',#375,#308,#309);
#292=AXIS2_PLACEMENT_3D('',#400,#322,#323);
#293=AXIS2_PLACEMENT_3D('',#406,#327,#328);
#294=AXIS2_PLACEMENT_3D('',#410,#331,#332);
#295=AXIS2_PLACEMENT_3D('',#414,#335,#336);
#296=AXIS2_PLACEMENT_3D('',#416,#338,#339);
#297=AXIS2_PLACEMENT_3D('',#417,#340,#341);
#298=AXIS2_PLACEMENT_3D('',#423,#345,#346);
#299=AXIS2_PLACEMENT_3D('',#427,#349,#350);
#300=AXIS2_PLACEMENT_3D('',#431,#353,#354);
#301=AXIS2_PLACEMENT_3D('',#435,#357,#358);
#302=AXIS2_PLACEMENT_3D('',#439,#361,#362);
#303=AXIS2_PLACEMENT_3D('',#443,#365,#366);
#304=AXIS2_PLACEMENT_3D('',#447,#369,#370);
#305=AXIS2_PLACEMENT_3D('',#449,#372,#373);
#306=DIRECTION('',(0.,0.,1.));
#307=DIRECTION('',(1.,0.,0.));
#308=DIRECTION('',(0.,0.,1.));
#309=DIRECTION('',(1.,0.,0.));
#310=DIRECTION('',(-1.,-1.95131999547447E-16,0.));
#311=DIRECTION('',(0.,1.,0.));
#312=DIRECTION('',(-1.,-1.95131999547447E-16,0.));
#313=DIRECTION('',(0.,1.,0.));
#314=DIRECTION('',(-1.,0.,0.));
#315=DIRECTION('',(0.,1.,0.));
#316=DIRECTION('',(-1.,0.,0.));
#317=DIRECTION('',(0.,1.,0.));
#318=DIRECTION('',(-1.,0.,0.));
#319=DIRECTION('',(0.,1.,0.));
#320=DIRECTION('',(-1.,0.,0.));
#321=DIRECTION('',(0.,1.,0.));
#322=DIRECTION('',(1.95131999547447E-16,-1.,0.));
#323=DIRECTION('',(1.,1.95131999547447E-16,0.));
#324=DIRECTION('',(-1.,-1.95131999547447E-16,0.));
#325=DIRECTION('',(0.,0.,-1.));
#326=DIRECTION('',(0.,0.,-1.));
#327=DIRECTION('',(-1.,0.,0.));
#328=DIRECTION('',(0.,0.,1.));
#329=DIRECTION('',(0.,1.,0.));
#330=DIRECTION('',(0.,0.,-1.));
#331=DIRECTION('',(1.95131999547447E-16,-1.,0.));
#332=DIRECTION('',(1.,1.95131999547447E-16,0.));
#333=DIRECTION('',(-1.,-1.95131999547447E-16,0.));
#334=DIRECTION('',(0.,0.,-1.));
#335=DIRECTION('',(-1.,0.,0.));
#336=DIRECTION('',(0.,0.,1.));
#337=DIRECTION('',(0.,1.,0.));
#338=DIRECTION('',(0.,0.,1.));
#339=DIRECTION('',(1.,0.,0.));
#340=DIRECTION('',(-1.,0.,0.));
#341=DIRECTION('',(0.,0.,1.));
#342=DIRECTION('',(0.,0.,-1.));
#343=DIRECTION('',(0.,1.,0.));
#344=DIRECTION('',(0.,0.,-1.));
#345=DIRECTION('',(0.,-1.,0.));
#346=DIRECTION('',(0.,0.,-1.));
#347=DIRECTION('',(0.,0.,-1.));
#348=DIRECTION('',(-1.,0.,0.));
#349=DIRECTION('',(-1.,0.,0.));
#350=DIRECTION('',(0.,0.,1.));
#351=DIRECTION('',(0.,0.,-1.));
#352=DIRECTION('',(0.,1.,0.));
#353=DIRECTION('',(0.,-1.,0.));
#354=DIRECTION('',(0.,0.,-1.));
#355=DIRECTION('',(0.,0.,-1.));
#356=DIRECTION('',(-1.,0.,0.));
#357=DIRECTION('',(-1.,0.,0.));
#358=DIRECTION('',(0.,0.,1.));
#359=DIRECTION('',(0.,0.,-1.));
#360=DIRECTION('',(0.,1.,0.));
#361=DIRECTION('',(0.,-1.,0.));
#362=DIRECTION('',(0.,0.,-1.));
#363=DIRECTION('',(0.,0.,-1.));
#364=DIRECTION('',(-1.,0.,0.));
#365=DIRECTION('',(-1.,0.,0.));
#366=DIRECTION('',(0.,0.,1.));
#367=DIRECTION('',(0.,0.,-1.));
#368=DIRECTION('',(0.,1.,0.));
#369=DIRECTION('',(0.,-1.,0.));
#370=DIRECTION('',(0.,0.,-1.));
#371=DIRECTION('',(-1.,0.,0.));
#372=DIRECTION('',(0.,0.,1.));
#373=DIRECTION('',(1.,0.,0.));
#374=CARTESIAN_POINT('',(0.,0.,0.));
#375=CARTESIAN_POINT('',(0.,-6.93889390390723E-18,0.00127));
#376=CARTESIAN_POINT('',(0.,-0.03429,0.00127));
#377=CARTESIAN_POINT('',(0.03556,-0.03429,0.00127));
#378=CARTESIAN_POINT('',(-0.03556,-0.03429,0.00127));
#379=CARTESIAN_POINT('',(0.03556,6.93889390390723E-18,0.00127));
#380=CARTESIAN_POINT('',(0.03556,0.03429,0.00127));
#381=CARTESIAN_POINT('',(0.,0.03429,0.00127));
#382=CARTESIAN_POINT('',(-0.03556,0.03429,0.00127));
#383=CARTESIAN_POINT('',(-0.03556,-6.93889390390723E-18,0.00127));
#384=CARTESIAN_POINT('',(0.,-0.0088265,0.00127));
#385=CARTESIAN_POINT('',(0.0067945,-0.0088265,0.00127));
#386=CARTESIAN_POINT('',(-0.0067945,-0.0088265,0.00127));
#387=CARTESIAN_POINT('',(-0.0067945,-0.000635,0.00127));
#388=CARTESIAN_POINT('',(-0.0067945,0.0075565,0.00127));
#389=CARTESIAN_POINT('',(-0.0061595,0.0075565,0.00127));
#390=CARTESIAN_POINT('',(-0.0055245,0.0075565,0.00127));
#391=CARTESIAN_POINT('',(-0.0055245,-8.67361737988404E-19,0.00127));
#392=CARTESIAN_POINT('',(-0.0055245,-0.0075565,0.00127));
#393=CARTESIAN_POINT('',(0.,-0.0075565,0.00127));
#394=CARTESIAN_POINT('',(0.0055245,-0.0075565,0.00127));
#395=CARTESIAN_POINT('',(0.0055245,-8.67361737988404E-19,0.00127));
#396=CARTESIAN_POINT('',(0.0055245,0.0075565,0.00127));
#397=CARTESIAN_POINT('',(0.0061595,0.0075565,0.00127));
#398=CARTESIAN_POINT('',(0.0067945,0.0075565,0.00127));
#399=CARTESIAN_POINT('',(0.0067945,-0.000635,0.00127));
#400=CARTESIAN_POINT('',(0.,-0.03429,0.00127));
#401=CARTESIAN_POINT('',(0.,-0.03429,0.));
#402=CARTESIAN_POINT('',(0.03556,-0.03429,0.));
#403=CARTESIAN_POINT('',(-0.03556,-0.03429,0.));
#404=CARTESIAN_POINT('',(0.03556,-0.03429,0.00127));
#405=CARTESIAN_POINT('',(-0.03556,-0.03429,0.00127));
#406=CARTESIAN_POINT('',(0.03556,6.93889390390723E-18,0.00127));
#407=CARTESIAN_POINT('',(0.03556,6.93889390390723E-18,0.));
#408=CARTESIAN_POINT('',(0.03556,0.03429,0.));
#409=CARTESIAN_POINT('',(0.03556,0.03429,0.00127));
#410=CARTESIAN_POINT('',(0.,0.03429,0.00127));
#411=CARTESIAN_POINT('',(0.,0.03429,0.));
#412=CARTESIAN_POINT('',(-0.03556,0.03429,0.));
#413=CARTESIAN_POINT('',(-0.03556,0.03429,0.00127));
#414=CARTESIAN_POINT('',(-0.03556,-6.93889390390723E-18,0.00127));
#415=CARTESIAN_POINT('',(-0.03556,-6.93889390390723E-18,0.));
#416=CARTESIAN_POINT('',(0.,-6.93889390390723E-18,0.));
#417=CARTESIAN_POINT('',(-0.0067945,-0.000635,0.00508));
#418=CARTESIAN_POINT('',(-0.0067945,-0.0088265,0.00508));
#419=CARTESIAN_POINT('',(-0.0067945,-0.0088265,0.00508));
#420=CARTESIAN_POINT('',(-0.0067945,-0.000635,0.00508));
#421=CARTESIAN_POINT('',(-0.0067945,0.0075565,0.00508));
#422=CARTESIAN_POINT('',(-0.0067945,0.0075565,0.00508));
#423=CARTESIAN_POINT('',(0.,-0.0088265,0.00508));
#424=CARTESIAN_POINT('',(0.0067945,-0.0088265,0.00508));
#425=CARTESIAN_POINT('',(0.0067945,-0.0088265,0.00508));
#426=CARTESIAN_POINT('',(0.,-0.0088265,0.00508));
#427=CARTESIAN_POINT('',(0.0067945,-0.000635,0.00508));
#428=CARTESIAN_POINT('',(0.0067945,0.0075565,0.00508));
#429=CARTESIAN_POINT('',(0.0067945,0.0075565,0.00508));
#430=CARTESIAN_POINT('',(0.0067945,-0.000635,0.00508));
#431=CARTESIAN_POINT('',(0.0061595,0.0075565,0.00508));
#432=CARTESIAN_POINT('',(0.0055245,0.0075565,0.00508));
#433=CARTESIAN_POINT('',(0.0055245,0.0075565,0.00508));
#434=CARTESIAN_POINT('',(0.0061595,0.0075565,0.00508));
#435=CARTESIAN_POINT('',(0.0055245,-8.67361737988404E-19,0.00508));
#436=CARTESIAN_POINT('',(0.0055245,-0.0075565,0.00508));
#437=CARTESIAN_POINT('',(0.0055245,-0.0075565,0.00508));
#438=CARTESIAN_POINT('',(0.0055245,-8.67361737988404E-19,0.00508));
#439=CARTESIAN_POINT('',(0.,-0.0075565,0.00508));
#440=CARTESIAN_POINT('',(-0.0055245,-0.0075565,0.00508));
#441=CARTESIAN_POINT('',(-0.0055245,-0.0075565,0.00508));
#442=CARTESIAN_POINT('',(0.,-0.0075565,0.00508));
#443=CARTESIAN_POINT('',(-0.0055245,-8.67361737988404E-19,0.00508));
#444=CARTESIAN_POINT('',(-0.0055245,0.0075565,0.00508));
#445=CARTESIAN_POINT('',(-0.0055245,0.0075565,0.00508));
#446=CARTESIAN_POINT('',(-0.0055245,-8.67361737988404E-19,0.00508));
#447=CARTESIAN_POINT('',(-0.0061595,0.0075565,0.00508));
#448=CARTESIAN_POINT('',(-0.0061595,0.0075565,0.00508));
#449=CARTESIAN_POINT('',(0.,0.,0.00508));
#450=MECHANICAL_DESIGN_GEOMETRIC_PRESENTATION_REPRESENTATION('',(#279),
#451);
#451=(
GEOMETRIC_REPRESENTATION_CONTEXT(3)
GLOBAL_UNCERTAINTY_ASSIGNED_CONTEXT((#452))
GLOBAL_UNIT_ASSIGNED_CONTEXT((#455,#454,#453))
REPRESENTATION_CONTEXT('Part 1','TOP_LEVEL_ASSEMBLY_PART')
);
#452=UNCERTAINTY_MEASURE_WITH_UNIT(LENGTH_MEASURE(1.E-8),#455,
'DISTANCE_ACCURACY_VALUE','Maximum Tolerance applied to model');
#453=(
NAMED_UNIT(*)
SI_UNIT($,.STERADIAN.)
SOLID_ANGLE_UNIT()
);
#454=(
NAMED_UNIT(*)
PLANE_ANGLE_UNIT()
SI_UNIT($,.RADIAN.)
);
#455=(
LENGTH_UNIT()
NAMED_UNIT(*)
SI_UNIT($,.METRE.)
);
#456=PRODUCT_DEFINITION_SHAPE('','',#457);
#457=PRODUCT_DEFINITION('','',#459,#458);
#458=PRODUCT_DEFINITION_CONTEXT('',#465,'design');
#459=PRODUCT_DEFINITION_FORMATION_WITH_SPECIFIED_SOURCE('','',#461,
 .NOT_KNOWN.);
#460=PRODUCT_RELATED_PRODUCT_CATEGORY('','',(#461));
#461=PRODUCT('Part 1','Part 1','Part 1',(#463));
#462=PRODUCT_CATEGORY('','');
#463=PRODUCT_CONTEXT('',#465,'mechanical');
#464=APPLICATION_PROTOCOL_DEFINITION('international standard',
'ap242_managed_model_based_3d_engineering',2020,#465);
#465=APPLICATION_CONTEXT('managed model based 3d engineering');
ENDSEC;
END-ISO-10303-21;
